G75*
%MOIN*%
%OFA0B0*%
%FSLAX25Y25*%
%IPPOS*%
%LPD*%
%AMOC8*
5,1,8,0,0,1.08239X$1,22.5*
%
%ADD10R,0.05118X0.04724*%
%ADD11R,0.04724X0.05118*%
%ADD12R,0.02362X0.08661*%
%ADD13R,0.03150X0.03543*%
%ADD14R,0.02600X0.08000*%
%ADD15R,0.04724X0.02756*%
%ADD16R,0.03543X0.03150*%
%ADD17R,0.02756X0.04724*%
%ADD18R,0.05512X0.11811*%
%ADD19R,0.05906X0.06299*%
%ADD20R,0.13780X0.03937*%
%ADD21R,0.11024X0.09449*%
%ADD22R,0.03937X0.18110*%
%ADD23R,0.06693X0.13386*%
%ADD24R,0.09843X0.07874*%
%ADD25R,0.07874X0.09843*%
%ADD26R,0.09843X0.04724*%
%ADD27R,0.04724X0.09843*%
D10*
X0076800Y0094050D03*
X0086800Y0094050D03*
X0086800Y0102050D03*
X0076800Y0102050D03*
X0044925Y0109050D03*
X0044925Y0117050D03*
X0034925Y0117050D03*
X0034925Y0109050D03*
X0115550Y0109050D03*
X0115550Y0117050D03*
X0081800Y0239050D03*
X0081800Y0247050D03*
X0051800Y0248300D03*
X0051800Y0240300D03*
X0031800Y0247800D03*
X0031800Y0255800D03*
X0041800Y0296550D03*
X0041800Y0304550D03*
X0079300Y0304550D03*
X0079300Y0296550D03*
X0089300Y0296550D03*
X0099300Y0296550D03*
X0099300Y0304550D03*
X0089300Y0304550D03*
X0391800Y0120800D03*
X0391800Y0112800D03*
X0391800Y0105800D03*
X0391800Y0097800D03*
X0526800Y0088300D03*
X0536800Y0088300D03*
X0536800Y0080300D03*
X0526800Y0080300D03*
X0551800Y0060800D03*
X0551800Y0052800D03*
X0528050Y0105300D03*
X0528050Y0113300D03*
X0518050Y0237800D03*
X0518050Y0245800D03*
X0521800Y0255300D03*
X0521800Y0263300D03*
X0491800Y0264050D03*
X0491800Y0257050D03*
X0491800Y0249050D03*
X0491800Y0272050D03*
X0491800Y0280300D03*
X0491800Y0288300D03*
X0518050Y0289050D03*
X0518050Y0297050D03*
X0581800Y0264550D03*
X0581800Y0256550D03*
X0576800Y0248300D03*
X0576800Y0240300D03*
X0566800Y0240300D03*
X0566800Y0248300D03*
X0586800Y0248300D03*
X0586800Y0240300D03*
X0593050Y0272800D03*
X0593050Y0280800D03*
X0438050Y0336550D03*
X0438050Y0344550D03*
X0431800Y0260800D03*
X0431800Y0252800D03*
X0431800Y0245800D03*
X0431800Y0237800D03*
D11*
X0040300Y0090550D03*
X0048300Y0090550D03*
X0056550Y0090550D03*
X0064550Y0090550D03*
X0105300Y0098050D03*
X0113300Y0098050D03*
X0090800Y0115550D03*
X0082800Y0115550D03*
X0082800Y0125550D03*
X0090800Y0125550D03*
X0070800Y0228050D03*
X0062800Y0228050D03*
X0062800Y0238050D03*
X0070800Y0238050D03*
X0070800Y0248050D03*
X0062800Y0248050D03*
X0040800Y0240550D03*
X0032800Y0240550D03*
X0032800Y0266800D03*
X0040800Y0266800D03*
X0070300Y0289300D03*
X0078300Y0289300D03*
X0091550Y0281800D03*
X0099550Y0281800D03*
X0099550Y0271800D03*
X0091550Y0271800D03*
X0091550Y0260550D03*
X0099550Y0260550D03*
X0059550Y0299300D03*
X0051550Y0299300D03*
X0409050Y0085550D03*
X0417050Y0085550D03*
X0429050Y0085550D03*
X0437050Y0085550D03*
X0437800Y0096800D03*
X0445800Y0096800D03*
X0417050Y0075550D03*
X0409050Y0075550D03*
X0400800Y0070550D03*
X0409050Y0065550D03*
X0417050Y0065550D03*
X0417050Y0055550D03*
X0409050Y0055550D03*
X0392800Y0070550D03*
X0392800Y0080550D03*
X0400800Y0080550D03*
X0434050Y0069300D03*
X0442050Y0069300D03*
X0520300Y0096800D03*
X0528300Y0096800D03*
X0577800Y0091800D03*
X0585800Y0091800D03*
X0537675Y0032425D03*
X0529675Y0032425D03*
X0420800Y0126800D03*
X0412800Y0126800D03*
X0502800Y0224925D03*
X0510800Y0224925D03*
X0510800Y0234925D03*
X0502800Y0234925D03*
X0502800Y0244925D03*
X0510800Y0244925D03*
X0510800Y0254925D03*
X0502800Y0254925D03*
X0502800Y0278050D03*
X0510800Y0278050D03*
X0510800Y0288050D03*
X0502800Y0288050D03*
X0502800Y0298050D03*
X0510800Y0298050D03*
X0510800Y0308050D03*
X0502800Y0308050D03*
X0502800Y0318050D03*
X0510800Y0318050D03*
X0510800Y0328050D03*
X0502800Y0328050D03*
X0529050Y0328050D03*
X0537050Y0328050D03*
X0535800Y0311800D03*
X0527800Y0311800D03*
X0535300Y0301800D03*
X0543300Y0301800D03*
X0535800Y0291800D03*
X0527800Y0291800D03*
X0557800Y0291800D03*
X0565800Y0291800D03*
X0565800Y0301800D03*
X0557800Y0301800D03*
X0557800Y0281800D03*
X0565800Y0281800D03*
X0575300Y0281800D03*
X0583300Y0281800D03*
X0584550Y0271800D03*
X0576550Y0271800D03*
X0568300Y0271800D03*
X0560300Y0271800D03*
X0545800Y0271800D03*
X0537800Y0271800D03*
X0541550Y0231800D03*
X0549550Y0231800D03*
X0557800Y0231800D03*
X0565800Y0231800D03*
D12*
X0558050Y0242814D03*
X0553050Y0242814D03*
X0548050Y0242814D03*
X0543050Y0242814D03*
X0538050Y0242814D03*
X0533050Y0242814D03*
X0528050Y0242814D03*
X0528050Y0263286D03*
X0533050Y0263286D03*
X0538050Y0263286D03*
X0543050Y0263286D03*
X0548050Y0263286D03*
X0553050Y0263286D03*
X0558050Y0263286D03*
X0459300Y0262036D03*
X0454300Y0262036D03*
X0449300Y0262036D03*
X0444300Y0262036D03*
X0444300Y0241564D03*
X0449300Y0241564D03*
X0454300Y0241564D03*
X0459300Y0241564D03*
X0431800Y0117036D03*
X0426800Y0117036D03*
X0421800Y0117036D03*
X0416800Y0117036D03*
X0411800Y0117036D03*
X0406800Y0117036D03*
X0401800Y0117036D03*
X0401800Y0096564D03*
X0406800Y0096564D03*
X0411800Y0096564D03*
X0416800Y0096564D03*
X0421800Y0096564D03*
X0426800Y0096564D03*
X0431800Y0096564D03*
X0081800Y0259064D03*
X0076800Y0259064D03*
X0071800Y0259064D03*
X0066800Y0259064D03*
X0061800Y0259064D03*
X0056800Y0259064D03*
X0051800Y0259064D03*
X0051800Y0279536D03*
X0056800Y0279536D03*
X0061800Y0279536D03*
X0066800Y0279536D03*
X0071800Y0279536D03*
X0076800Y0279536D03*
X0081800Y0279536D03*
D13*
X0050540Y0234487D03*
X0043060Y0234487D03*
X0046800Y0226219D03*
X0101800Y0117381D03*
X0098060Y0109113D03*
X0105540Y0109113D03*
D14*
X0069300Y0100950D03*
X0064300Y0100950D03*
X0059300Y0100950D03*
X0054300Y0100950D03*
X0054300Y0125150D03*
X0059300Y0125150D03*
X0064300Y0125150D03*
X0069300Y0125150D03*
X0528050Y0067650D03*
X0533050Y0067650D03*
X0538050Y0067650D03*
X0543050Y0067650D03*
X0543050Y0043450D03*
X0538050Y0043450D03*
X0533050Y0043450D03*
X0528050Y0043450D03*
D15*
X0534083Y0225550D03*
X0519517Y0225550D03*
X0117833Y0140550D03*
X0103267Y0140550D03*
X0099083Y0135550D03*
X0084517Y0135550D03*
D16*
X0502863Y0263685D03*
X0511131Y0267425D03*
X0502863Y0271165D03*
X0542863Y0283060D03*
X0551131Y0286800D03*
X0542863Y0290540D03*
X0582469Y0293050D03*
X0590737Y0289310D03*
X0590737Y0296790D03*
D17*
X0543050Y0114083D03*
X0543050Y0099517D03*
X0546800Y0091583D03*
X0546800Y0077017D03*
D18*
X0413050Y0242351D03*
X0413050Y0261249D03*
D19*
X0574713Y0101800D03*
X0588887Y0101800D03*
D20*
X0548050Y0136800D03*
X0548050Y0146800D03*
X0391800Y0236800D03*
X0391800Y0246800D03*
D21*
X0577784Y0167991D03*
X0601800Y0167991D03*
X0601800Y0123109D03*
X0577784Y0123109D03*
D22*
X0097361Y0354733D03*
X0089487Y0354733D03*
X0081613Y0354733D03*
X0073739Y0354733D03*
D23*
X0063109Y0375206D03*
X0107991Y0375206D03*
D24*
X0408020Y0354871D03*
X0435580Y0361957D03*
X0435580Y0325737D03*
X0074005Y0138847D03*
D25*
X0057863Y0155580D03*
X0021643Y0155580D03*
X0028729Y0128020D03*
X0418847Y0309595D03*
D26*
X0408020Y0365894D03*
D27*
X0017706Y0128020D03*
M02*
