G75*
%MOIN*%
%OFA0B0*%
%FSLAX25Y25*%
%IPPOS*%
%LPD*%
%AMOC8*
5,1,8,0,0,1.08239X$1,22.5*
%
%ADD10R,0.08200X0.08200*%
%ADD11OC8,0.12611*%
%ADD12C,0.08200*%
%ADD13C,0.09300*%
%ADD14C,0.09855*%
%ADD15C,0.08800*%
%ADD16C,0.13461*%
%ADD17C,0.13800*%
%ADD18C,0.08674*%
D10*
X0141957Y0091859D03*
X0151800Y0091859D03*
X0161643Y0091859D03*
X0241957Y0091859D03*
X0251800Y0091859D03*
X0261643Y0091859D03*
X0211643Y0216859D03*
X0201800Y0216859D03*
X0191957Y0216859D03*
X0051643Y0216859D03*
X0041800Y0216859D03*
X0031957Y0216859D03*
X0031957Y0341859D03*
X0041800Y0341859D03*
X0051643Y0341859D03*
X0131957Y0341859D03*
X0141800Y0341859D03*
X0151643Y0341859D03*
X0291957Y0341859D03*
X0301800Y0341859D03*
X0311643Y0341859D03*
X0451957Y0341859D03*
X0461800Y0341859D03*
X0471643Y0341859D03*
X0571957Y0341859D03*
X0581800Y0341859D03*
X0591643Y0341859D03*
X0591643Y0216859D03*
X0581800Y0216859D03*
X0571957Y0216859D03*
X0491643Y0216859D03*
X0481800Y0216859D03*
X0471957Y0216859D03*
X0476800Y0091859D03*
X0466957Y0091859D03*
X0486643Y0091859D03*
D11*
X0494123Y0064300D03*
X0459477Y0064300D03*
X0269123Y0064300D03*
X0234477Y0064300D03*
X0169123Y0064300D03*
X0134477Y0064300D03*
X0184477Y0189300D03*
X0219123Y0189300D03*
X0059123Y0189300D03*
X0024477Y0189300D03*
X0024477Y0314300D03*
X0059123Y0314300D03*
X0124477Y0314300D03*
X0159123Y0314300D03*
X0284477Y0314300D03*
X0319123Y0314300D03*
X0444477Y0314300D03*
X0479123Y0314300D03*
X0564477Y0314300D03*
X0599123Y0314300D03*
X0599123Y0189300D03*
X0564477Y0189300D03*
X0499123Y0189300D03*
X0464477Y0189300D03*
D12*
X0411800Y0189300D03*
X0401800Y0189300D03*
X0391800Y0189300D03*
X0391800Y0151800D03*
X0401800Y0151800D03*
X0411800Y0151800D03*
X0581800Y0074300D03*
X0581800Y0064300D03*
X0581800Y0054300D03*
X0391800Y0314300D03*
X0381800Y0314300D03*
X0371800Y0314300D03*
X0231800Y0314300D03*
X0221800Y0314300D03*
X0211800Y0314300D03*
X0131800Y0229300D03*
X0121800Y0229300D03*
X0111800Y0229300D03*
X0111800Y0189300D03*
X0121800Y0189300D03*
X0131800Y0189300D03*
X0131800Y0151800D03*
X0121800Y0151800D03*
X0111800Y0151800D03*
X0071800Y0083050D03*
X0061800Y0083050D03*
X0051800Y0083050D03*
X0051800Y0041800D03*
X0061800Y0041800D03*
X0071800Y0041800D03*
D13*
X0332194Y0054457D03*
X0332194Y0074143D03*
X0381406Y0074143D03*
X0381406Y0054457D03*
D14*
X0581800Y0101800D03*
D15*
X0583800Y0145550D03*
X0601800Y0145550D03*
D16*
X0364300Y0136800D03*
X0259300Y0136800D03*
X0259300Y0241800D03*
X0364300Y0241800D03*
D17*
X0016800Y0016800D03*
X0016800Y0366800D03*
X0606800Y0366800D03*
X0606800Y0016800D03*
D18*
X0421800Y0330461D03*
X0421800Y0358020D03*
X0053139Y0141800D03*
X0025580Y0141800D03*
M02*
