G75*
%MOIN*%
%OFA0B0*%
%FSLAX25Y25*%
%IPPOS*%
%LPD*%
%AMOC8*
5,1,8,0,0,1.08239X$1,22.5*
%
%ADD10C,0.00000*%
%ADD11C,0.00100*%
D10*
X0016800Y0001800D02*
X0606800Y0001800D01*
X0600300Y0016800D02*
X0600302Y0016961D01*
X0600308Y0017121D01*
X0600318Y0017282D01*
X0600332Y0017442D01*
X0600350Y0017602D01*
X0600371Y0017761D01*
X0600397Y0017920D01*
X0600427Y0018078D01*
X0600460Y0018235D01*
X0600498Y0018392D01*
X0600539Y0018547D01*
X0600584Y0018701D01*
X0600633Y0018854D01*
X0600686Y0019006D01*
X0600742Y0019157D01*
X0600803Y0019306D01*
X0600866Y0019454D01*
X0600934Y0019600D01*
X0601005Y0019744D01*
X0601079Y0019886D01*
X0601157Y0020027D01*
X0601239Y0020165D01*
X0601324Y0020302D01*
X0601412Y0020436D01*
X0601504Y0020568D01*
X0601599Y0020698D01*
X0601697Y0020826D01*
X0601798Y0020951D01*
X0601902Y0021073D01*
X0602009Y0021193D01*
X0602119Y0021310D01*
X0602232Y0021425D01*
X0602348Y0021536D01*
X0602467Y0021645D01*
X0602588Y0021750D01*
X0602712Y0021853D01*
X0602838Y0021953D01*
X0602966Y0022049D01*
X0603097Y0022142D01*
X0603231Y0022232D01*
X0603366Y0022319D01*
X0603504Y0022402D01*
X0603643Y0022482D01*
X0603785Y0022558D01*
X0603928Y0022631D01*
X0604073Y0022700D01*
X0604220Y0022766D01*
X0604368Y0022828D01*
X0604518Y0022886D01*
X0604669Y0022941D01*
X0604822Y0022992D01*
X0604976Y0023039D01*
X0605131Y0023082D01*
X0605287Y0023121D01*
X0605443Y0023157D01*
X0605601Y0023188D01*
X0605759Y0023216D01*
X0605918Y0023240D01*
X0606078Y0023260D01*
X0606238Y0023276D01*
X0606398Y0023288D01*
X0606559Y0023296D01*
X0606720Y0023300D01*
X0606880Y0023300D01*
X0607041Y0023296D01*
X0607202Y0023288D01*
X0607362Y0023276D01*
X0607522Y0023260D01*
X0607682Y0023240D01*
X0607841Y0023216D01*
X0607999Y0023188D01*
X0608157Y0023157D01*
X0608313Y0023121D01*
X0608469Y0023082D01*
X0608624Y0023039D01*
X0608778Y0022992D01*
X0608931Y0022941D01*
X0609082Y0022886D01*
X0609232Y0022828D01*
X0609380Y0022766D01*
X0609527Y0022700D01*
X0609672Y0022631D01*
X0609815Y0022558D01*
X0609957Y0022482D01*
X0610096Y0022402D01*
X0610234Y0022319D01*
X0610369Y0022232D01*
X0610503Y0022142D01*
X0610634Y0022049D01*
X0610762Y0021953D01*
X0610888Y0021853D01*
X0611012Y0021750D01*
X0611133Y0021645D01*
X0611252Y0021536D01*
X0611368Y0021425D01*
X0611481Y0021310D01*
X0611591Y0021193D01*
X0611698Y0021073D01*
X0611802Y0020951D01*
X0611903Y0020826D01*
X0612001Y0020698D01*
X0612096Y0020568D01*
X0612188Y0020436D01*
X0612276Y0020302D01*
X0612361Y0020165D01*
X0612443Y0020027D01*
X0612521Y0019886D01*
X0612595Y0019744D01*
X0612666Y0019600D01*
X0612734Y0019454D01*
X0612797Y0019306D01*
X0612858Y0019157D01*
X0612914Y0019006D01*
X0612967Y0018854D01*
X0613016Y0018701D01*
X0613061Y0018547D01*
X0613102Y0018392D01*
X0613140Y0018235D01*
X0613173Y0018078D01*
X0613203Y0017920D01*
X0613229Y0017761D01*
X0613250Y0017602D01*
X0613268Y0017442D01*
X0613282Y0017282D01*
X0613292Y0017121D01*
X0613298Y0016961D01*
X0613300Y0016800D01*
X0613298Y0016639D01*
X0613292Y0016479D01*
X0613282Y0016318D01*
X0613268Y0016158D01*
X0613250Y0015998D01*
X0613229Y0015839D01*
X0613203Y0015680D01*
X0613173Y0015522D01*
X0613140Y0015365D01*
X0613102Y0015208D01*
X0613061Y0015053D01*
X0613016Y0014899D01*
X0612967Y0014746D01*
X0612914Y0014594D01*
X0612858Y0014443D01*
X0612797Y0014294D01*
X0612734Y0014146D01*
X0612666Y0014000D01*
X0612595Y0013856D01*
X0612521Y0013714D01*
X0612443Y0013573D01*
X0612361Y0013435D01*
X0612276Y0013298D01*
X0612188Y0013164D01*
X0612096Y0013032D01*
X0612001Y0012902D01*
X0611903Y0012774D01*
X0611802Y0012649D01*
X0611698Y0012527D01*
X0611591Y0012407D01*
X0611481Y0012290D01*
X0611368Y0012175D01*
X0611252Y0012064D01*
X0611133Y0011955D01*
X0611012Y0011850D01*
X0610888Y0011747D01*
X0610762Y0011647D01*
X0610634Y0011551D01*
X0610503Y0011458D01*
X0610369Y0011368D01*
X0610234Y0011281D01*
X0610096Y0011198D01*
X0609957Y0011118D01*
X0609815Y0011042D01*
X0609672Y0010969D01*
X0609527Y0010900D01*
X0609380Y0010834D01*
X0609232Y0010772D01*
X0609082Y0010714D01*
X0608931Y0010659D01*
X0608778Y0010608D01*
X0608624Y0010561D01*
X0608469Y0010518D01*
X0608313Y0010479D01*
X0608157Y0010443D01*
X0607999Y0010412D01*
X0607841Y0010384D01*
X0607682Y0010360D01*
X0607522Y0010340D01*
X0607362Y0010324D01*
X0607202Y0010312D01*
X0607041Y0010304D01*
X0606880Y0010300D01*
X0606720Y0010300D01*
X0606559Y0010304D01*
X0606398Y0010312D01*
X0606238Y0010324D01*
X0606078Y0010340D01*
X0605918Y0010360D01*
X0605759Y0010384D01*
X0605601Y0010412D01*
X0605443Y0010443D01*
X0605287Y0010479D01*
X0605131Y0010518D01*
X0604976Y0010561D01*
X0604822Y0010608D01*
X0604669Y0010659D01*
X0604518Y0010714D01*
X0604368Y0010772D01*
X0604220Y0010834D01*
X0604073Y0010900D01*
X0603928Y0010969D01*
X0603785Y0011042D01*
X0603643Y0011118D01*
X0603504Y0011198D01*
X0603366Y0011281D01*
X0603231Y0011368D01*
X0603097Y0011458D01*
X0602966Y0011551D01*
X0602838Y0011647D01*
X0602712Y0011747D01*
X0602588Y0011850D01*
X0602467Y0011955D01*
X0602348Y0012064D01*
X0602232Y0012175D01*
X0602119Y0012290D01*
X0602009Y0012407D01*
X0601902Y0012527D01*
X0601798Y0012649D01*
X0601697Y0012774D01*
X0601599Y0012902D01*
X0601504Y0013032D01*
X0601412Y0013164D01*
X0601324Y0013298D01*
X0601239Y0013435D01*
X0601157Y0013573D01*
X0601079Y0013714D01*
X0601005Y0013856D01*
X0600934Y0014000D01*
X0600866Y0014146D01*
X0600803Y0014294D01*
X0600742Y0014443D01*
X0600686Y0014594D01*
X0600633Y0014746D01*
X0600584Y0014899D01*
X0600539Y0015053D01*
X0600498Y0015208D01*
X0600460Y0015365D01*
X0600427Y0015522D01*
X0600397Y0015680D01*
X0600371Y0015839D01*
X0600350Y0015998D01*
X0600332Y0016158D01*
X0600318Y0016318D01*
X0600308Y0016479D01*
X0600302Y0016639D01*
X0600300Y0016800D01*
X0606800Y0001800D02*
X0607162Y0001804D01*
X0607525Y0001818D01*
X0607887Y0001839D01*
X0608248Y0001870D01*
X0608608Y0001909D01*
X0608967Y0001957D01*
X0609325Y0002014D01*
X0609682Y0002079D01*
X0610037Y0002153D01*
X0610390Y0002236D01*
X0610741Y0002327D01*
X0611089Y0002426D01*
X0611435Y0002534D01*
X0611779Y0002650D01*
X0612119Y0002775D01*
X0612456Y0002907D01*
X0612790Y0003048D01*
X0613121Y0003197D01*
X0613448Y0003354D01*
X0613771Y0003518D01*
X0614090Y0003690D01*
X0614404Y0003870D01*
X0614715Y0004058D01*
X0615020Y0004253D01*
X0615321Y0004455D01*
X0615617Y0004665D01*
X0615907Y0004881D01*
X0616193Y0005105D01*
X0616473Y0005335D01*
X0616747Y0005572D01*
X0617015Y0005816D01*
X0617278Y0006066D01*
X0617534Y0006322D01*
X0617784Y0006585D01*
X0618028Y0006853D01*
X0618265Y0007127D01*
X0618495Y0007407D01*
X0618719Y0007693D01*
X0618935Y0007983D01*
X0619145Y0008279D01*
X0619347Y0008580D01*
X0619542Y0008885D01*
X0619730Y0009196D01*
X0619910Y0009510D01*
X0620082Y0009829D01*
X0620246Y0010152D01*
X0620403Y0010479D01*
X0620552Y0010810D01*
X0620693Y0011144D01*
X0620825Y0011481D01*
X0620950Y0011821D01*
X0621066Y0012165D01*
X0621174Y0012511D01*
X0621273Y0012859D01*
X0621364Y0013210D01*
X0621447Y0013563D01*
X0621521Y0013918D01*
X0621586Y0014275D01*
X0621643Y0014633D01*
X0621691Y0014992D01*
X0621730Y0015352D01*
X0621761Y0015713D01*
X0621782Y0016075D01*
X0621796Y0016438D01*
X0621800Y0016800D01*
X0621800Y0366800D01*
X0600300Y0366800D02*
X0600302Y0366961D01*
X0600308Y0367121D01*
X0600318Y0367282D01*
X0600332Y0367442D01*
X0600350Y0367602D01*
X0600371Y0367761D01*
X0600397Y0367920D01*
X0600427Y0368078D01*
X0600460Y0368235D01*
X0600498Y0368392D01*
X0600539Y0368547D01*
X0600584Y0368701D01*
X0600633Y0368854D01*
X0600686Y0369006D01*
X0600742Y0369157D01*
X0600803Y0369306D01*
X0600866Y0369454D01*
X0600934Y0369600D01*
X0601005Y0369744D01*
X0601079Y0369886D01*
X0601157Y0370027D01*
X0601239Y0370165D01*
X0601324Y0370302D01*
X0601412Y0370436D01*
X0601504Y0370568D01*
X0601599Y0370698D01*
X0601697Y0370826D01*
X0601798Y0370951D01*
X0601902Y0371073D01*
X0602009Y0371193D01*
X0602119Y0371310D01*
X0602232Y0371425D01*
X0602348Y0371536D01*
X0602467Y0371645D01*
X0602588Y0371750D01*
X0602712Y0371853D01*
X0602838Y0371953D01*
X0602966Y0372049D01*
X0603097Y0372142D01*
X0603231Y0372232D01*
X0603366Y0372319D01*
X0603504Y0372402D01*
X0603643Y0372482D01*
X0603785Y0372558D01*
X0603928Y0372631D01*
X0604073Y0372700D01*
X0604220Y0372766D01*
X0604368Y0372828D01*
X0604518Y0372886D01*
X0604669Y0372941D01*
X0604822Y0372992D01*
X0604976Y0373039D01*
X0605131Y0373082D01*
X0605287Y0373121D01*
X0605443Y0373157D01*
X0605601Y0373188D01*
X0605759Y0373216D01*
X0605918Y0373240D01*
X0606078Y0373260D01*
X0606238Y0373276D01*
X0606398Y0373288D01*
X0606559Y0373296D01*
X0606720Y0373300D01*
X0606880Y0373300D01*
X0607041Y0373296D01*
X0607202Y0373288D01*
X0607362Y0373276D01*
X0607522Y0373260D01*
X0607682Y0373240D01*
X0607841Y0373216D01*
X0607999Y0373188D01*
X0608157Y0373157D01*
X0608313Y0373121D01*
X0608469Y0373082D01*
X0608624Y0373039D01*
X0608778Y0372992D01*
X0608931Y0372941D01*
X0609082Y0372886D01*
X0609232Y0372828D01*
X0609380Y0372766D01*
X0609527Y0372700D01*
X0609672Y0372631D01*
X0609815Y0372558D01*
X0609957Y0372482D01*
X0610096Y0372402D01*
X0610234Y0372319D01*
X0610369Y0372232D01*
X0610503Y0372142D01*
X0610634Y0372049D01*
X0610762Y0371953D01*
X0610888Y0371853D01*
X0611012Y0371750D01*
X0611133Y0371645D01*
X0611252Y0371536D01*
X0611368Y0371425D01*
X0611481Y0371310D01*
X0611591Y0371193D01*
X0611698Y0371073D01*
X0611802Y0370951D01*
X0611903Y0370826D01*
X0612001Y0370698D01*
X0612096Y0370568D01*
X0612188Y0370436D01*
X0612276Y0370302D01*
X0612361Y0370165D01*
X0612443Y0370027D01*
X0612521Y0369886D01*
X0612595Y0369744D01*
X0612666Y0369600D01*
X0612734Y0369454D01*
X0612797Y0369306D01*
X0612858Y0369157D01*
X0612914Y0369006D01*
X0612967Y0368854D01*
X0613016Y0368701D01*
X0613061Y0368547D01*
X0613102Y0368392D01*
X0613140Y0368235D01*
X0613173Y0368078D01*
X0613203Y0367920D01*
X0613229Y0367761D01*
X0613250Y0367602D01*
X0613268Y0367442D01*
X0613282Y0367282D01*
X0613292Y0367121D01*
X0613298Y0366961D01*
X0613300Y0366800D01*
X0613298Y0366639D01*
X0613292Y0366479D01*
X0613282Y0366318D01*
X0613268Y0366158D01*
X0613250Y0365998D01*
X0613229Y0365839D01*
X0613203Y0365680D01*
X0613173Y0365522D01*
X0613140Y0365365D01*
X0613102Y0365208D01*
X0613061Y0365053D01*
X0613016Y0364899D01*
X0612967Y0364746D01*
X0612914Y0364594D01*
X0612858Y0364443D01*
X0612797Y0364294D01*
X0612734Y0364146D01*
X0612666Y0364000D01*
X0612595Y0363856D01*
X0612521Y0363714D01*
X0612443Y0363573D01*
X0612361Y0363435D01*
X0612276Y0363298D01*
X0612188Y0363164D01*
X0612096Y0363032D01*
X0612001Y0362902D01*
X0611903Y0362774D01*
X0611802Y0362649D01*
X0611698Y0362527D01*
X0611591Y0362407D01*
X0611481Y0362290D01*
X0611368Y0362175D01*
X0611252Y0362064D01*
X0611133Y0361955D01*
X0611012Y0361850D01*
X0610888Y0361747D01*
X0610762Y0361647D01*
X0610634Y0361551D01*
X0610503Y0361458D01*
X0610369Y0361368D01*
X0610234Y0361281D01*
X0610096Y0361198D01*
X0609957Y0361118D01*
X0609815Y0361042D01*
X0609672Y0360969D01*
X0609527Y0360900D01*
X0609380Y0360834D01*
X0609232Y0360772D01*
X0609082Y0360714D01*
X0608931Y0360659D01*
X0608778Y0360608D01*
X0608624Y0360561D01*
X0608469Y0360518D01*
X0608313Y0360479D01*
X0608157Y0360443D01*
X0607999Y0360412D01*
X0607841Y0360384D01*
X0607682Y0360360D01*
X0607522Y0360340D01*
X0607362Y0360324D01*
X0607202Y0360312D01*
X0607041Y0360304D01*
X0606880Y0360300D01*
X0606720Y0360300D01*
X0606559Y0360304D01*
X0606398Y0360312D01*
X0606238Y0360324D01*
X0606078Y0360340D01*
X0605918Y0360360D01*
X0605759Y0360384D01*
X0605601Y0360412D01*
X0605443Y0360443D01*
X0605287Y0360479D01*
X0605131Y0360518D01*
X0604976Y0360561D01*
X0604822Y0360608D01*
X0604669Y0360659D01*
X0604518Y0360714D01*
X0604368Y0360772D01*
X0604220Y0360834D01*
X0604073Y0360900D01*
X0603928Y0360969D01*
X0603785Y0361042D01*
X0603643Y0361118D01*
X0603504Y0361198D01*
X0603366Y0361281D01*
X0603231Y0361368D01*
X0603097Y0361458D01*
X0602966Y0361551D01*
X0602838Y0361647D01*
X0602712Y0361747D01*
X0602588Y0361850D01*
X0602467Y0361955D01*
X0602348Y0362064D01*
X0602232Y0362175D01*
X0602119Y0362290D01*
X0602009Y0362407D01*
X0601902Y0362527D01*
X0601798Y0362649D01*
X0601697Y0362774D01*
X0601599Y0362902D01*
X0601504Y0363032D01*
X0601412Y0363164D01*
X0601324Y0363298D01*
X0601239Y0363435D01*
X0601157Y0363573D01*
X0601079Y0363714D01*
X0601005Y0363856D01*
X0600934Y0364000D01*
X0600866Y0364146D01*
X0600803Y0364294D01*
X0600742Y0364443D01*
X0600686Y0364594D01*
X0600633Y0364746D01*
X0600584Y0364899D01*
X0600539Y0365053D01*
X0600498Y0365208D01*
X0600460Y0365365D01*
X0600427Y0365522D01*
X0600397Y0365680D01*
X0600371Y0365839D01*
X0600350Y0365998D01*
X0600332Y0366158D01*
X0600318Y0366318D01*
X0600308Y0366479D01*
X0600302Y0366639D01*
X0600300Y0366800D01*
X0606800Y0381800D02*
X0607162Y0381796D01*
X0607525Y0381782D01*
X0607887Y0381761D01*
X0608248Y0381730D01*
X0608608Y0381691D01*
X0608967Y0381643D01*
X0609325Y0381586D01*
X0609682Y0381521D01*
X0610037Y0381447D01*
X0610390Y0381364D01*
X0610741Y0381273D01*
X0611089Y0381174D01*
X0611435Y0381066D01*
X0611779Y0380950D01*
X0612119Y0380825D01*
X0612456Y0380693D01*
X0612790Y0380552D01*
X0613121Y0380403D01*
X0613448Y0380246D01*
X0613771Y0380082D01*
X0614090Y0379910D01*
X0614404Y0379730D01*
X0614715Y0379542D01*
X0615020Y0379347D01*
X0615321Y0379145D01*
X0615617Y0378935D01*
X0615907Y0378719D01*
X0616193Y0378495D01*
X0616473Y0378265D01*
X0616747Y0378028D01*
X0617015Y0377784D01*
X0617278Y0377534D01*
X0617534Y0377278D01*
X0617784Y0377015D01*
X0618028Y0376747D01*
X0618265Y0376473D01*
X0618495Y0376193D01*
X0618719Y0375907D01*
X0618935Y0375617D01*
X0619145Y0375321D01*
X0619347Y0375020D01*
X0619542Y0374715D01*
X0619730Y0374404D01*
X0619910Y0374090D01*
X0620082Y0373771D01*
X0620246Y0373448D01*
X0620403Y0373121D01*
X0620552Y0372790D01*
X0620693Y0372456D01*
X0620825Y0372119D01*
X0620950Y0371779D01*
X0621066Y0371435D01*
X0621174Y0371089D01*
X0621273Y0370741D01*
X0621364Y0370390D01*
X0621447Y0370037D01*
X0621521Y0369682D01*
X0621586Y0369325D01*
X0621643Y0368967D01*
X0621691Y0368608D01*
X0621730Y0368248D01*
X0621761Y0367887D01*
X0621782Y0367525D01*
X0621796Y0367162D01*
X0621800Y0366800D01*
X0606800Y0381800D02*
X0016800Y0381800D01*
X0010300Y0366800D02*
X0010302Y0366961D01*
X0010308Y0367121D01*
X0010318Y0367282D01*
X0010332Y0367442D01*
X0010350Y0367602D01*
X0010371Y0367761D01*
X0010397Y0367920D01*
X0010427Y0368078D01*
X0010460Y0368235D01*
X0010498Y0368392D01*
X0010539Y0368547D01*
X0010584Y0368701D01*
X0010633Y0368854D01*
X0010686Y0369006D01*
X0010742Y0369157D01*
X0010803Y0369306D01*
X0010866Y0369454D01*
X0010934Y0369600D01*
X0011005Y0369744D01*
X0011079Y0369886D01*
X0011157Y0370027D01*
X0011239Y0370165D01*
X0011324Y0370302D01*
X0011412Y0370436D01*
X0011504Y0370568D01*
X0011599Y0370698D01*
X0011697Y0370826D01*
X0011798Y0370951D01*
X0011902Y0371073D01*
X0012009Y0371193D01*
X0012119Y0371310D01*
X0012232Y0371425D01*
X0012348Y0371536D01*
X0012467Y0371645D01*
X0012588Y0371750D01*
X0012712Y0371853D01*
X0012838Y0371953D01*
X0012966Y0372049D01*
X0013097Y0372142D01*
X0013231Y0372232D01*
X0013366Y0372319D01*
X0013504Y0372402D01*
X0013643Y0372482D01*
X0013785Y0372558D01*
X0013928Y0372631D01*
X0014073Y0372700D01*
X0014220Y0372766D01*
X0014368Y0372828D01*
X0014518Y0372886D01*
X0014669Y0372941D01*
X0014822Y0372992D01*
X0014976Y0373039D01*
X0015131Y0373082D01*
X0015287Y0373121D01*
X0015443Y0373157D01*
X0015601Y0373188D01*
X0015759Y0373216D01*
X0015918Y0373240D01*
X0016078Y0373260D01*
X0016238Y0373276D01*
X0016398Y0373288D01*
X0016559Y0373296D01*
X0016720Y0373300D01*
X0016880Y0373300D01*
X0017041Y0373296D01*
X0017202Y0373288D01*
X0017362Y0373276D01*
X0017522Y0373260D01*
X0017682Y0373240D01*
X0017841Y0373216D01*
X0017999Y0373188D01*
X0018157Y0373157D01*
X0018313Y0373121D01*
X0018469Y0373082D01*
X0018624Y0373039D01*
X0018778Y0372992D01*
X0018931Y0372941D01*
X0019082Y0372886D01*
X0019232Y0372828D01*
X0019380Y0372766D01*
X0019527Y0372700D01*
X0019672Y0372631D01*
X0019815Y0372558D01*
X0019957Y0372482D01*
X0020096Y0372402D01*
X0020234Y0372319D01*
X0020369Y0372232D01*
X0020503Y0372142D01*
X0020634Y0372049D01*
X0020762Y0371953D01*
X0020888Y0371853D01*
X0021012Y0371750D01*
X0021133Y0371645D01*
X0021252Y0371536D01*
X0021368Y0371425D01*
X0021481Y0371310D01*
X0021591Y0371193D01*
X0021698Y0371073D01*
X0021802Y0370951D01*
X0021903Y0370826D01*
X0022001Y0370698D01*
X0022096Y0370568D01*
X0022188Y0370436D01*
X0022276Y0370302D01*
X0022361Y0370165D01*
X0022443Y0370027D01*
X0022521Y0369886D01*
X0022595Y0369744D01*
X0022666Y0369600D01*
X0022734Y0369454D01*
X0022797Y0369306D01*
X0022858Y0369157D01*
X0022914Y0369006D01*
X0022967Y0368854D01*
X0023016Y0368701D01*
X0023061Y0368547D01*
X0023102Y0368392D01*
X0023140Y0368235D01*
X0023173Y0368078D01*
X0023203Y0367920D01*
X0023229Y0367761D01*
X0023250Y0367602D01*
X0023268Y0367442D01*
X0023282Y0367282D01*
X0023292Y0367121D01*
X0023298Y0366961D01*
X0023300Y0366800D01*
X0023298Y0366639D01*
X0023292Y0366479D01*
X0023282Y0366318D01*
X0023268Y0366158D01*
X0023250Y0365998D01*
X0023229Y0365839D01*
X0023203Y0365680D01*
X0023173Y0365522D01*
X0023140Y0365365D01*
X0023102Y0365208D01*
X0023061Y0365053D01*
X0023016Y0364899D01*
X0022967Y0364746D01*
X0022914Y0364594D01*
X0022858Y0364443D01*
X0022797Y0364294D01*
X0022734Y0364146D01*
X0022666Y0364000D01*
X0022595Y0363856D01*
X0022521Y0363714D01*
X0022443Y0363573D01*
X0022361Y0363435D01*
X0022276Y0363298D01*
X0022188Y0363164D01*
X0022096Y0363032D01*
X0022001Y0362902D01*
X0021903Y0362774D01*
X0021802Y0362649D01*
X0021698Y0362527D01*
X0021591Y0362407D01*
X0021481Y0362290D01*
X0021368Y0362175D01*
X0021252Y0362064D01*
X0021133Y0361955D01*
X0021012Y0361850D01*
X0020888Y0361747D01*
X0020762Y0361647D01*
X0020634Y0361551D01*
X0020503Y0361458D01*
X0020369Y0361368D01*
X0020234Y0361281D01*
X0020096Y0361198D01*
X0019957Y0361118D01*
X0019815Y0361042D01*
X0019672Y0360969D01*
X0019527Y0360900D01*
X0019380Y0360834D01*
X0019232Y0360772D01*
X0019082Y0360714D01*
X0018931Y0360659D01*
X0018778Y0360608D01*
X0018624Y0360561D01*
X0018469Y0360518D01*
X0018313Y0360479D01*
X0018157Y0360443D01*
X0017999Y0360412D01*
X0017841Y0360384D01*
X0017682Y0360360D01*
X0017522Y0360340D01*
X0017362Y0360324D01*
X0017202Y0360312D01*
X0017041Y0360304D01*
X0016880Y0360300D01*
X0016720Y0360300D01*
X0016559Y0360304D01*
X0016398Y0360312D01*
X0016238Y0360324D01*
X0016078Y0360340D01*
X0015918Y0360360D01*
X0015759Y0360384D01*
X0015601Y0360412D01*
X0015443Y0360443D01*
X0015287Y0360479D01*
X0015131Y0360518D01*
X0014976Y0360561D01*
X0014822Y0360608D01*
X0014669Y0360659D01*
X0014518Y0360714D01*
X0014368Y0360772D01*
X0014220Y0360834D01*
X0014073Y0360900D01*
X0013928Y0360969D01*
X0013785Y0361042D01*
X0013643Y0361118D01*
X0013504Y0361198D01*
X0013366Y0361281D01*
X0013231Y0361368D01*
X0013097Y0361458D01*
X0012966Y0361551D01*
X0012838Y0361647D01*
X0012712Y0361747D01*
X0012588Y0361850D01*
X0012467Y0361955D01*
X0012348Y0362064D01*
X0012232Y0362175D01*
X0012119Y0362290D01*
X0012009Y0362407D01*
X0011902Y0362527D01*
X0011798Y0362649D01*
X0011697Y0362774D01*
X0011599Y0362902D01*
X0011504Y0363032D01*
X0011412Y0363164D01*
X0011324Y0363298D01*
X0011239Y0363435D01*
X0011157Y0363573D01*
X0011079Y0363714D01*
X0011005Y0363856D01*
X0010934Y0364000D01*
X0010866Y0364146D01*
X0010803Y0364294D01*
X0010742Y0364443D01*
X0010686Y0364594D01*
X0010633Y0364746D01*
X0010584Y0364899D01*
X0010539Y0365053D01*
X0010498Y0365208D01*
X0010460Y0365365D01*
X0010427Y0365522D01*
X0010397Y0365680D01*
X0010371Y0365839D01*
X0010350Y0365998D01*
X0010332Y0366158D01*
X0010318Y0366318D01*
X0010308Y0366479D01*
X0010302Y0366639D01*
X0010300Y0366800D01*
X0001800Y0366800D02*
X0001804Y0367162D01*
X0001818Y0367525D01*
X0001839Y0367887D01*
X0001870Y0368248D01*
X0001909Y0368608D01*
X0001957Y0368967D01*
X0002014Y0369325D01*
X0002079Y0369682D01*
X0002153Y0370037D01*
X0002236Y0370390D01*
X0002327Y0370741D01*
X0002426Y0371089D01*
X0002534Y0371435D01*
X0002650Y0371779D01*
X0002775Y0372119D01*
X0002907Y0372456D01*
X0003048Y0372790D01*
X0003197Y0373121D01*
X0003354Y0373448D01*
X0003518Y0373771D01*
X0003690Y0374090D01*
X0003870Y0374404D01*
X0004058Y0374715D01*
X0004253Y0375020D01*
X0004455Y0375321D01*
X0004665Y0375617D01*
X0004881Y0375907D01*
X0005105Y0376193D01*
X0005335Y0376473D01*
X0005572Y0376747D01*
X0005816Y0377015D01*
X0006066Y0377278D01*
X0006322Y0377534D01*
X0006585Y0377784D01*
X0006853Y0378028D01*
X0007127Y0378265D01*
X0007407Y0378495D01*
X0007693Y0378719D01*
X0007983Y0378935D01*
X0008279Y0379145D01*
X0008580Y0379347D01*
X0008885Y0379542D01*
X0009196Y0379730D01*
X0009510Y0379910D01*
X0009829Y0380082D01*
X0010152Y0380246D01*
X0010479Y0380403D01*
X0010810Y0380552D01*
X0011144Y0380693D01*
X0011481Y0380825D01*
X0011821Y0380950D01*
X0012165Y0381066D01*
X0012511Y0381174D01*
X0012859Y0381273D01*
X0013210Y0381364D01*
X0013563Y0381447D01*
X0013918Y0381521D01*
X0014275Y0381586D01*
X0014633Y0381643D01*
X0014992Y0381691D01*
X0015352Y0381730D01*
X0015713Y0381761D01*
X0016075Y0381782D01*
X0016438Y0381796D01*
X0016800Y0381800D01*
X0001800Y0366800D02*
X0001800Y0016800D01*
X0010300Y0016800D02*
X0010302Y0016961D01*
X0010308Y0017121D01*
X0010318Y0017282D01*
X0010332Y0017442D01*
X0010350Y0017602D01*
X0010371Y0017761D01*
X0010397Y0017920D01*
X0010427Y0018078D01*
X0010460Y0018235D01*
X0010498Y0018392D01*
X0010539Y0018547D01*
X0010584Y0018701D01*
X0010633Y0018854D01*
X0010686Y0019006D01*
X0010742Y0019157D01*
X0010803Y0019306D01*
X0010866Y0019454D01*
X0010934Y0019600D01*
X0011005Y0019744D01*
X0011079Y0019886D01*
X0011157Y0020027D01*
X0011239Y0020165D01*
X0011324Y0020302D01*
X0011412Y0020436D01*
X0011504Y0020568D01*
X0011599Y0020698D01*
X0011697Y0020826D01*
X0011798Y0020951D01*
X0011902Y0021073D01*
X0012009Y0021193D01*
X0012119Y0021310D01*
X0012232Y0021425D01*
X0012348Y0021536D01*
X0012467Y0021645D01*
X0012588Y0021750D01*
X0012712Y0021853D01*
X0012838Y0021953D01*
X0012966Y0022049D01*
X0013097Y0022142D01*
X0013231Y0022232D01*
X0013366Y0022319D01*
X0013504Y0022402D01*
X0013643Y0022482D01*
X0013785Y0022558D01*
X0013928Y0022631D01*
X0014073Y0022700D01*
X0014220Y0022766D01*
X0014368Y0022828D01*
X0014518Y0022886D01*
X0014669Y0022941D01*
X0014822Y0022992D01*
X0014976Y0023039D01*
X0015131Y0023082D01*
X0015287Y0023121D01*
X0015443Y0023157D01*
X0015601Y0023188D01*
X0015759Y0023216D01*
X0015918Y0023240D01*
X0016078Y0023260D01*
X0016238Y0023276D01*
X0016398Y0023288D01*
X0016559Y0023296D01*
X0016720Y0023300D01*
X0016880Y0023300D01*
X0017041Y0023296D01*
X0017202Y0023288D01*
X0017362Y0023276D01*
X0017522Y0023260D01*
X0017682Y0023240D01*
X0017841Y0023216D01*
X0017999Y0023188D01*
X0018157Y0023157D01*
X0018313Y0023121D01*
X0018469Y0023082D01*
X0018624Y0023039D01*
X0018778Y0022992D01*
X0018931Y0022941D01*
X0019082Y0022886D01*
X0019232Y0022828D01*
X0019380Y0022766D01*
X0019527Y0022700D01*
X0019672Y0022631D01*
X0019815Y0022558D01*
X0019957Y0022482D01*
X0020096Y0022402D01*
X0020234Y0022319D01*
X0020369Y0022232D01*
X0020503Y0022142D01*
X0020634Y0022049D01*
X0020762Y0021953D01*
X0020888Y0021853D01*
X0021012Y0021750D01*
X0021133Y0021645D01*
X0021252Y0021536D01*
X0021368Y0021425D01*
X0021481Y0021310D01*
X0021591Y0021193D01*
X0021698Y0021073D01*
X0021802Y0020951D01*
X0021903Y0020826D01*
X0022001Y0020698D01*
X0022096Y0020568D01*
X0022188Y0020436D01*
X0022276Y0020302D01*
X0022361Y0020165D01*
X0022443Y0020027D01*
X0022521Y0019886D01*
X0022595Y0019744D01*
X0022666Y0019600D01*
X0022734Y0019454D01*
X0022797Y0019306D01*
X0022858Y0019157D01*
X0022914Y0019006D01*
X0022967Y0018854D01*
X0023016Y0018701D01*
X0023061Y0018547D01*
X0023102Y0018392D01*
X0023140Y0018235D01*
X0023173Y0018078D01*
X0023203Y0017920D01*
X0023229Y0017761D01*
X0023250Y0017602D01*
X0023268Y0017442D01*
X0023282Y0017282D01*
X0023292Y0017121D01*
X0023298Y0016961D01*
X0023300Y0016800D01*
X0023298Y0016639D01*
X0023292Y0016479D01*
X0023282Y0016318D01*
X0023268Y0016158D01*
X0023250Y0015998D01*
X0023229Y0015839D01*
X0023203Y0015680D01*
X0023173Y0015522D01*
X0023140Y0015365D01*
X0023102Y0015208D01*
X0023061Y0015053D01*
X0023016Y0014899D01*
X0022967Y0014746D01*
X0022914Y0014594D01*
X0022858Y0014443D01*
X0022797Y0014294D01*
X0022734Y0014146D01*
X0022666Y0014000D01*
X0022595Y0013856D01*
X0022521Y0013714D01*
X0022443Y0013573D01*
X0022361Y0013435D01*
X0022276Y0013298D01*
X0022188Y0013164D01*
X0022096Y0013032D01*
X0022001Y0012902D01*
X0021903Y0012774D01*
X0021802Y0012649D01*
X0021698Y0012527D01*
X0021591Y0012407D01*
X0021481Y0012290D01*
X0021368Y0012175D01*
X0021252Y0012064D01*
X0021133Y0011955D01*
X0021012Y0011850D01*
X0020888Y0011747D01*
X0020762Y0011647D01*
X0020634Y0011551D01*
X0020503Y0011458D01*
X0020369Y0011368D01*
X0020234Y0011281D01*
X0020096Y0011198D01*
X0019957Y0011118D01*
X0019815Y0011042D01*
X0019672Y0010969D01*
X0019527Y0010900D01*
X0019380Y0010834D01*
X0019232Y0010772D01*
X0019082Y0010714D01*
X0018931Y0010659D01*
X0018778Y0010608D01*
X0018624Y0010561D01*
X0018469Y0010518D01*
X0018313Y0010479D01*
X0018157Y0010443D01*
X0017999Y0010412D01*
X0017841Y0010384D01*
X0017682Y0010360D01*
X0017522Y0010340D01*
X0017362Y0010324D01*
X0017202Y0010312D01*
X0017041Y0010304D01*
X0016880Y0010300D01*
X0016720Y0010300D01*
X0016559Y0010304D01*
X0016398Y0010312D01*
X0016238Y0010324D01*
X0016078Y0010340D01*
X0015918Y0010360D01*
X0015759Y0010384D01*
X0015601Y0010412D01*
X0015443Y0010443D01*
X0015287Y0010479D01*
X0015131Y0010518D01*
X0014976Y0010561D01*
X0014822Y0010608D01*
X0014669Y0010659D01*
X0014518Y0010714D01*
X0014368Y0010772D01*
X0014220Y0010834D01*
X0014073Y0010900D01*
X0013928Y0010969D01*
X0013785Y0011042D01*
X0013643Y0011118D01*
X0013504Y0011198D01*
X0013366Y0011281D01*
X0013231Y0011368D01*
X0013097Y0011458D01*
X0012966Y0011551D01*
X0012838Y0011647D01*
X0012712Y0011747D01*
X0012588Y0011850D01*
X0012467Y0011955D01*
X0012348Y0012064D01*
X0012232Y0012175D01*
X0012119Y0012290D01*
X0012009Y0012407D01*
X0011902Y0012527D01*
X0011798Y0012649D01*
X0011697Y0012774D01*
X0011599Y0012902D01*
X0011504Y0013032D01*
X0011412Y0013164D01*
X0011324Y0013298D01*
X0011239Y0013435D01*
X0011157Y0013573D01*
X0011079Y0013714D01*
X0011005Y0013856D01*
X0010934Y0014000D01*
X0010866Y0014146D01*
X0010803Y0014294D01*
X0010742Y0014443D01*
X0010686Y0014594D01*
X0010633Y0014746D01*
X0010584Y0014899D01*
X0010539Y0015053D01*
X0010498Y0015208D01*
X0010460Y0015365D01*
X0010427Y0015522D01*
X0010397Y0015680D01*
X0010371Y0015839D01*
X0010350Y0015998D01*
X0010332Y0016158D01*
X0010318Y0016318D01*
X0010308Y0016479D01*
X0010302Y0016639D01*
X0010300Y0016800D01*
X0001800Y0016800D02*
X0001804Y0016438D01*
X0001818Y0016075D01*
X0001839Y0015713D01*
X0001870Y0015352D01*
X0001909Y0014992D01*
X0001957Y0014633D01*
X0002014Y0014275D01*
X0002079Y0013918D01*
X0002153Y0013563D01*
X0002236Y0013210D01*
X0002327Y0012859D01*
X0002426Y0012511D01*
X0002534Y0012165D01*
X0002650Y0011821D01*
X0002775Y0011481D01*
X0002907Y0011144D01*
X0003048Y0010810D01*
X0003197Y0010479D01*
X0003354Y0010152D01*
X0003518Y0009829D01*
X0003690Y0009510D01*
X0003870Y0009196D01*
X0004058Y0008885D01*
X0004253Y0008580D01*
X0004455Y0008279D01*
X0004665Y0007983D01*
X0004881Y0007693D01*
X0005105Y0007407D01*
X0005335Y0007127D01*
X0005572Y0006853D01*
X0005816Y0006585D01*
X0006066Y0006322D01*
X0006322Y0006066D01*
X0006585Y0005816D01*
X0006853Y0005572D01*
X0007127Y0005335D01*
X0007407Y0005105D01*
X0007693Y0004881D01*
X0007983Y0004665D01*
X0008279Y0004455D01*
X0008580Y0004253D01*
X0008885Y0004058D01*
X0009196Y0003870D01*
X0009510Y0003690D01*
X0009829Y0003518D01*
X0010152Y0003354D01*
X0010479Y0003197D01*
X0010810Y0003048D01*
X0011144Y0002907D01*
X0011481Y0002775D01*
X0011821Y0002650D01*
X0012165Y0002534D01*
X0012511Y0002426D01*
X0012859Y0002327D01*
X0013210Y0002236D01*
X0013563Y0002153D01*
X0013918Y0002079D01*
X0014275Y0002014D01*
X0014633Y0001957D01*
X0014992Y0001909D01*
X0015352Y0001870D01*
X0015713Y0001839D01*
X0016075Y0001818D01*
X0016438Y0001804D01*
X0016800Y0001800D01*
X0021643Y0141800D02*
X0021645Y0141925D01*
X0021651Y0142050D01*
X0021661Y0142174D01*
X0021675Y0142298D01*
X0021692Y0142422D01*
X0021714Y0142545D01*
X0021740Y0142667D01*
X0021769Y0142789D01*
X0021802Y0142909D01*
X0021840Y0143028D01*
X0021880Y0143147D01*
X0021925Y0143263D01*
X0021973Y0143378D01*
X0022025Y0143492D01*
X0022081Y0143604D01*
X0022140Y0143714D01*
X0022202Y0143822D01*
X0022268Y0143929D01*
X0022337Y0144033D01*
X0022410Y0144134D01*
X0022485Y0144234D01*
X0022564Y0144331D01*
X0022646Y0144425D01*
X0022731Y0144517D01*
X0022818Y0144606D01*
X0022909Y0144692D01*
X0023002Y0144775D01*
X0023098Y0144856D01*
X0023196Y0144933D01*
X0023296Y0145007D01*
X0023399Y0145078D01*
X0023504Y0145145D01*
X0023612Y0145210D01*
X0023721Y0145270D01*
X0023832Y0145328D01*
X0023945Y0145381D01*
X0024059Y0145431D01*
X0024175Y0145478D01*
X0024292Y0145520D01*
X0024411Y0145559D01*
X0024531Y0145595D01*
X0024652Y0145626D01*
X0024774Y0145654D01*
X0024896Y0145677D01*
X0025020Y0145697D01*
X0025144Y0145713D01*
X0025268Y0145725D01*
X0025393Y0145733D01*
X0025518Y0145737D01*
X0025642Y0145737D01*
X0025767Y0145733D01*
X0025892Y0145725D01*
X0026016Y0145713D01*
X0026140Y0145697D01*
X0026264Y0145677D01*
X0026386Y0145654D01*
X0026508Y0145626D01*
X0026629Y0145595D01*
X0026749Y0145559D01*
X0026868Y0145520D01*
X0026985Y0145478D01*
X0027101Y0145431D01*
X0027215Y0145381D01*
X0027328Y0145328D01*
X0027439Y0145270D01*
X0027549Y0145210D01*
X0027656Y0145145D01*
X0027761Y0145078D01*
X0027864Y0145007D01*
X0027964Y0144933D01*
X0028062Y0144856D01*
X0028158Y0144775D01*
X0028251Y0144692D01*
X0028342Y0144606D01*
X0028429Y0144517D01*
X0028514Y0144425D01*
X0028596Y0144331D01*
X0028675Y0144234D01*
X0028750Y0144134D01*
X0028823Y0144033D01*
X0028892Y0143929D01*
X0028958Y0143822D01*
X0029020Y0143714D01*
X0029079Y0143604D01*
X0029135Y0143492D01*
X0029187Y0143378D01*
X0029235Y0143263D01*
X0029280Y0143147D01*
X0029320Y0143028D01*
X0029358Y0142909D01*
X0029391Y0142789D01*
X0029420Y0142667D01*
X0029446Y0142545D01*
X0029468Y0142422D01*
X0029485Y0142298D01*
X0029499Y0142174D01*
X0029509Y0142050D01*
X0029515Y0141925D01*
X0029517Y0141800D01*
X0029515Y0141675D01*
X0029509Y0141550D01*
X0029499Y0141426D01*
X0029485Y0141302D01*
X0029468Y0141178D01*
X0029446Y0141055D01*
X0029420Y0140933D01*
X0029391Y0140811D01*
X0029358Y0140691D01*
X0029320Y0140572D01*
X0029280Y0140453D01*
X0029235Y0140337D01*
X0029187Y0140222D01*
X0029135Y0140108D01*
X0029079Y0139996D01*
X0029020Y0139886D01*
X0028958Y0139778D01*
X0028892Y0139671D01*
X0028823Y0139567D01*
X0028750Y0139466D01*
X0028675Y0139366D01*
X0028596Y0139269D01*
X0028514Y0139175D01*
X0028429Y0139083D01*
X0028342Y0138994D01*
X0028251Y0138908D01*
X0028158Y0138825D01*
X0028062Y0138744D01*
X0027964Y0138667D01*
X0027864Y0138593D01*
X0027761Y0138522D01*
X0027656Y0138455D01*
X0027548Y0138390D01*
X0027439Y0138330D01*
X0027328Y0138272D01*
X0027215Y0138219D01*
X0027101Y0138169D01*
X0026985Y0138122D01*
X0026868Y0138080D01*
X0026749Y0138041D01*
X0026629Y0138005D01*
X0026508Y0137974D01*
X0026386Y0137946D01*
X0026264Y0137923D01*
X0026140Y0137903D01*
X0026016Y0137887D01*
X0025892Y0137875D01*
X0025767Y0137867D01*
X0025642Y0137863D01*
X0025518Y0137863D01*
X0025393Y0137867D01*
X0025268Y0137875D01*
X0025144Y0137887D01*
X0025020Y0137903D01*
X0024896Y0137923D01*
X0024774Y0137946D01*
X0024652Y0137974D01*
X0024531Y0138005D01*
X0024411Y0138041D01*
X0024292Y0138080D01*
X0024175Y0138122D01*
X0024059Y0138169D01*
X0023945Y0138219D01*
X0023832Y0138272D01*
X0023721Y0138330D01*
X0023611Y0138390D01*
X0023504Y0138455D01*
X0023399Y0138522D01*
X0023296Y0138593D01*
X0023196Y0138667D01*
X0023098Y0138744D01*
X0023002Y0138825D01*
X0022909Y0138908D01*
X0022818Y0138994D01*
X0022731Y0139083D01*
X0022646Y0139175D01*
X0022564Y0139269D01*
X0022485Y0139366D01*
X0022410Y0139466D01*
X0022337Y0139567D01*
X0022268Y0139671D01*
X0022202Y0139778D01*
X0022140Y0139886D01*
X0022081Y0139996D01*
X0022025Y0140108D01*
X0021973Y0140222D01*
X0021925Y0140337D01*
X0021880Y0140453D01*
X0021840Y0140572D01*
X0021802Y0140691D01*
X0021769Y0140811D01*
X0021740Y0140933D01*
X0021714Y0141055D01*
X0021692Y0141178D01*
X0021675Y0141302D01*
X0021661Y0141426D01*
X0021651Y0141550D01*
X0021645Y0141675D01*
X0021643Y0141800D01*
X0049202Y0141800D02*
X0049204Y0141925D01*
X0049210Y0142050D01*
X0049220Y0142174D01*
X0049234Y0142298D01*
X0049251Y0142422D01*
X0049273Y0142545D01*
X0049299Y0142667D01*
X0049328Y0142789D01*
X0049361Y0142909D01*
X0049399Y0143028D01*
X0049439Y0143147D01*
X0049484Y0143263D01*
X0049532Y0143378D01*
X0049584Y0143492D01*
X0049640Y0143604D01*
X0049699Y0143714D01*
X0049761Y0143822D01*
X0049827Y0143929D01*
X0049896Y0144033D01*
X0049969Y0144134D01*
X0050044Y0144234D01*
X0050123Y0144331D01*
X0050205Y0144425D01*
X0050290Y0144517D01*
X0050377Y0144606D01*
X0050468Y0144692D01*
X0050561Y0144775D01*
X0050657Y0144856D01*
X0050755Y0144933D01*
X0050855Y0145007D01*
X0050958Y0145078D01*
X0051063Y0145145D01*
X0051171Y0145210D01*
X0051280Y0145270D01*
X0051391Y0145328D01*
X0051504Y0145381D01*
X0051618Y0145431D01*
X0051734Y0145478D01*
X0051851Y0145520D01*
X0051970Y0145559D01*
X0052090Y0145595D01*
X0052211Y0145626D01*
X0052333Y0145654D01*
X0052455Y0145677D01*
X0052579Y0145697D01*
X0052703Y0145713D01*
X0052827Y0145725D01*
X0052952Y0145733D01*
X0053077Y0145737D01*
X0053201Y0145737D01*
X0053326Y0145733D01*
X0053451Y0145725D01*
X0053575Y0145713D01*
X0053699Y0145697D01*
X0053823Y0145677D01*
X0053945Y0145654D01*
X0054067Y0145626D01*
X0054188Y0145595D01*
X0054308Y0145559D01*
X0054427Y0145520D01*
X0054544Y0145478D01*
X0054660Y0145431D01*
X0054774Y0145381D01*
X0054887Y0145328D01*
X0054998Y0145270D01*
X0055108Y0145210D01*
X0055215Y0145145D01*
X0055320Y0145078D01*
X0055423Y0145007D01*
X0055523Y0144933D01*
X0055621Y0144856D01*
X0055717Y0144775D01*
X0055810Y0144692D01*
X0055901Y0144606D01*
X0055988Y0144517D01*
X0056073Y0144425D01*
X0056155Y0144331D01*
X0056234Y0144234D01*
X0056309Y0144134D01*
X0056382Y0144033D01*
X0056451Y0143929D01*
X0056517Y0143822D01*
X0056579Y0143714D01*
X0056638Y0143604D01*
X0056694Y0143492D01*
X0056746Y0143378D01*
X0056794Y0143263D01*
X0056839Y0143147D01*
X0056879Y0143028D01*
X0056917Y0142909D01*
X0056950Y0142789D01*
X0056979Y0142667D01*
X0057005Y0142545D01*
X0057027Y0142422D01*
X0057044Y0142298D01*
X0057058Y0142174D01*
X0057068Y0142050D01*
X0057074Y0141925D01*
X0057076Y0141800D01*
X0057074Y0141675D01*
X0057068Y0141550D01*
X0057058Y0141426D01*
X0057044Y0141302D01*
X0057027Y0141178D01*
X0057005Y0141055D01*
X0056979Y0140933D01*
X0056950Y0140811D01*
X0056917Y0140691D01*
X0056879Y0140572D01*
X0056839Y0140453D01*
X0056794Y0140337D01*
X0056746Y0140222D01*
X0056694Y0140108D01*
X0056638Y0139996D01*
X0056579Y0139886D01*
X0056517Y0139778D01*
X0056451Y0139671D01*
X0056382Y0139567D01*
X0056309Y0139466D01*
X0056234Y0139366D01*
X0056155Y0139269D01*
X0056073Y0139175D01*
X0055988Y0139083D01*
X0055901Y0138994D01*
X0055810Y0138908D01*
X0055717Y0138825D01*
X0055621Y0138744D01*
X0055523Y0138667D01*
X0055423Y0138593D01*
X0055320Y0138522D01*
X0055215Y0138455D01*
X0055107Y0138390D01*
X0054998Y0138330D01*
X0054887Y0138272D01*
X0054774Y0138219D01*
X0054660Y0138169D01*
X0054544Y0138122D01*
X0054427Y0138080D01*
X0054308Y0138041D01*
X0054188Y0138005D01*
X0054067Y0137974D01*
X0053945Y0137946D01*
X0053823Y0137923D01*
X0053699Y0137903D01*
X0053575Y0137887D01*
X0053451Y0137875D01*
X0053326Y0137867D01*
X0053201Y0137863D01*
X0053077Y0137863D01*
X0052952Y0137867D01*
X0052827Y0137875D01*
X0052703Y0137887D01*
X0052579Y0137903D01*
X0052455Y0137923D01*
X0052333Y0137946D01*
X0052211Y0137974D01*
X0052090Y0138005D01*
X0051970Y0138041D01*
X0051851Y0138080D01*
X0051734Y0138122D01*
X0051618Y0138169D01*
X0051504Y0138219D01*
X0051391Y0138272D01*
X0051280Y0138330D01*
X0051170Y0138390D01*
X0051063Y0138455D01*
X0050958Y0138522D01*
X0050855Y0138593D01*
X0050755Y0138667D01*
X0050657Y0138744D01*
X0050561Y0138825D01*
X0050468Y0138908D01*
X0050377Y0138994D01*
X0050290Y0139083D01*
X0050205Y0139175D01*
X0050123Y0139269D01*
X0050044Y0139366D01*
X0049969Y0139466D01*
X0049896Y0139567D01*
X0049827Y0139671D01*
X0049761Y0139778D01*
X0049699Y0139886D01*
X0049640Y0139996D01*
X0049584Y0140108D01*
X0049532Y0140222D01*
X0049484Y0140337D01*
X0049439Y0140453D01*
X0049399Y0140572D01*
X0049361Y0140691D01*
X0049328Y0140811D01*
X0049299Y0140933D01*
X0049273Y0141055D01*
X0049251Y0141178D01*
X0049234Y0141302D01*
X0049220Y0141426D01*
X0049210Y0141550D01*
X0049204Y0141675D01*
X0049202Y0141800D01*
X0417863Y0330461D02*
X0417865Y0330586D01*
X0417871Y0330711D01*
X0417881Y0330835D01*
X0417895Y0330959D01*
X0417912Y0331083D01*
X0417934Y0331206D01*
X0417960Y0331328D01*
X0417989Y0331450D01*
X0418022Y0331570D01*
X0418060Y0331689D01*
X0418100Y0331808D01*
X0418145Y0331924D01*
X0418193Y0332039D01*
X0418245Y0332153D01*
X0418301Y0332265D01*
X0418360Y0332375D01*
X0418422Y0332483D01*
X0418488Y0332590D01*
X0418557Y0332694D01*
X0418630Y0332795D01*
X0418705Y0332895D01*
X0418784Y0332992D01*
X0418866Y0333086D01*
X0418951Y0333178D01*
X0419038Y0333267D01*
X0419129Y0333353D01*
X0419222Y0333436D01*
X0419318Y0333517D01*
X0419416Y0333594D01*
X0419516Y0333668D01*
X0419619Y0333739D01*
X0419724Y0333806D01*
X0419832Y0333871D01*
X0419941Y0333931D01*
X0420052Y0333989D01*
X0420165Y0334042D01*
X0420279Y0334092D01*
X0420395Y0334139D01*
X0420512Y0334181D01*
X0420631Y0334220D01*
X0420751Y0334256D01*
X0420872Y0334287D01*
X0420994Y0334315D01*
X0421116Y0334338D01*
X0421240Y0334358D01*
X0421364Y0334374D01*
X0421488Y0334386D01*
X0421613Y0334394D01*
X0421738Y0334398D01*
X0421862Y0334398D01*
X0421987Y0334394D01*
X0422112Y0334386D01*
X0422236Y0334374D01*
X0422360Y0334358D01*
X0422484Y0334338D01*
X0422606Y0334315D01*
X0422728Y0334287D01*
X0422849Y0334256D01*
X0422969Y0334220D01*
X0423088Y0334181D01*
X0423205Y0334139D01*
X0423321Y0334092D01*
X0423435Y0334042D01*
X0423548Y0333989D01*
X0423659Y0333931D01*
X0423769Y0333871D01*
X0423876Y0333806D01*
X0423981Y0333739D01*
X0424084Y0333668D01*
X0424184Y0333594D01*
X0424282Y0333517D01*
X0424378Y0333436D01*
X0424471Y0333353D01*
X0424562Y0333267D01*
X0424649Y0333178D01*
X0424734Y0333086D01*
X0424816Y0332992D01*
X0424895Y0332895D01*
X0424970Y0332795D01*
X0425043Y0332694D01*
X0425112Y0332590D01*
X0425178Y0332483D01*
X0425240Y0332375D01*
X0425299Y0332265D01*
X0425355Y0332153D01*
X0425407Y0332039D01*
X0425455Y0331924D01*
X0425500Y0331808D01*
X0425540Y0331689D01*
X0425578Y0331570D01*
X0425611Y0331450D01*
X0425640Y0331328D01*
X0425666Y0331206D01*
X0425688Y0331083D01*
X0425705Y0330959D01*
X0425719Y0330835D01*
X0425729Y0330711D01*
X0425735Y0330586D01*
X0425737Y0330461D01*
X0425735Y0330336D01*
X0425729Y0330211D01*
X0425719Y0330087D01*
X0425705Y0329963D01*
X0425688Y0329839D01*
X0425666Y0329716D01*
X0425640Y0329594D01*
X0425611Y0329472D01*
X0425578Y0329352D01*
X0425540Y0329233D01*
X0425500Y0329114D01*
X0425455Y0328998D01*
X0425407Y0328883D01*
X0425355Y0328769D01*
X0425299Y0328657D01*
X0425240Y0328547D01*
X0425178Y0328439D01*
X0425112Y0328332D01*
X0425043Y0328228D01*
X0424970Y0328127D01*
X0424895Y0328027D01*
X0424816Y0327930D01*
X0424734Y0327836D01*
X0424649Y0327744D01*
X0424562Y0327655D01*
X0424471Y0327569D01*
X0424378Y0327486D01*
X0424282Y0327405D01*
X0424184Y0327328D01*
X0424084Y0327254D01*
X0423981Y0327183D01*
X0423876Y0327116D01*
X0423768Y0327051D01*
X0423659Y0326991D01*
X0423548Y0326933D01*
X0423435Y0326880D01*
X0423321Y0326830D01*
X0423205Y0326783D01*
X0423088Y0326741D01*
X0422969Y0326702D01*
X0422849Y0326666D01*
X0422728Y0326635D01*
X0422606Y0326607D01*
X0422484Y0326584D01*
X0422360Y0326564D01*
X0422236Y0326548D01*
X0422112Y0326536D01*
X0421987Y0326528D01*
X0421862Y0326524D01*
X0421738Y0326524D01*
X0421613Y0326528D01*
X0421488Y0326536D01*
X0421364Y0326548D01*
X0421240Y0326564D01*
X0421116Y0326584D01*
X0420994Y0326607D01*
X0420872Y0326635D01*
X0420751Y0326666D01*
X0420631Y0326702D01*
X0420512Y0326741D01*
X0420395Y0326783D01*
X0420279Y0326830D01*
X0420165Y0326880D01*
X0420052Y0326933D01*
X0419941Y0326991D01*
X0419831Y0327051D01*
X0419724Y0327116D01*
X0419619Y0327183D01*
X0419516Y0327254D01*
X0419416Y0327328D01*
X0419318Y0327405D01*
X0419222Y0327486D01*
X0419129Y0327569D01*
X0419038Y0327655D01*
X0418951Y0327744D01*
X0418866Y0327836D01*
X0418784Y0327930D01*
X0418705Y0328027D01*
X0418630Y0328127D01*
X0418557Y0328228D01*
X0418488Y0328332D01*
X0418422Y0328439D01*
X0418360Y0328547D01*
X0418301Y0328657D01*
X0418245Y0328769D01*
X0418193Y0328883D01*
X0418145Y0328998D01*
X0418100Y0329114D01*
X0418060Y0329233D01*
X0418022Y0329352D01*
X0417989Y0329472D01*
X0417960Y0329594D01*
X0417934Y0329716D01*
X0417912Y0329839D01*
X0417895Y0329963D01*
X0417881Y0330087D01*
X0417871Y0330211D01*
X0417865Y0330336D01*
X0417863Y0330461D01*
X0417863Y0358020D02*
X0417865Y0358145D01*
X0417871Y0358270D01*
X0417881Y0358394D01*
X0417895Y0358518D01*
X0417912Y0358642D01*
X0417934Y0358765D01*
X0417960Y0358887D01*
X0417989Y0359009D01*
X0418022Y0359129D01*
X0418060Y0359248D01*
X0418100Y0359367D01*
X0418145Y0359483D01*
X0418193Y0359598D01*
X0418245Y0359712D01*
X0418301Y0359824D01*
X0418360Y0359934D01*
X0418422Y0360042D01*
X0418488Y0360149D01*
X0418557Y0360253D01*
X0418630Y0360354D01*
X0418705Y0360454D01*
X0418784Y0360551D01*
X0418866Y0360645D01*
X0418951Y0360737D01*
X0419038Y0360826D01*
X0419129Y0360912D01*
X0419222Y0360995D01*
X0419318Y0361076D01*
X0419416Y0361153D01*
X0419516Y0361227D01*
X0419619Y0361298D01*
X0419724Y0361365D01*
X0419832Y0361430D01*
X0419941Y0361490D01*
X0420052Y0361548D01*
X0420165Y0361601D01*
X0420279Y0361651D01*
X0420395Y0361698D01*
X0420512Y0361740D01*
X0420631Y0361779D01*
X0420751Y0361815D01*
X0420872Y0361846D01*
X0420994Y0361874D01*
X0421116Y0361897D01*
X0421240Y0361917D01*
X0421364Y0361933D01*
X0421488Y0361945D01*
X0421613Y0361953D01*
X0421738Y0361957D01*
X0421862Y0361957D01*
X0421987Y0361953D01*
X0422112Y0361945D01*
X0422236Y0361933D01*
X0422360Y0361917D01*
X0422484Y0361897D01*
X0422606Y0361874D01*
X0422728Y0361846D01*
X0422849Y0361815D01*
X0422969Y0361779D01*
X0423088Y0361740D01*
X0423205Y0361698D01*
X0423321Y0361651D01*
X0423435Y0361601D01*
X0423548Y0361548D01*
X0423659Y0361490D01*
X0423769Y0361430D01*
X0423876Y0361365D01*
X0423981Y0361298D01*
X0424084Y0361227D01*
X0424184Y0361153D01*
X0424282Y0361076D01*
X0424378Y0360995D01*
X0424471Y0360912D01*
X0424562Y0360826D01*
X0424649Y0360737D01*
X0424734Y0360645D01*
X0424816Y0360551D01*
X0424895Y0360454D01*
X0424970Y0360354D01*
X0425043Y0360253D01*
X0425112Y0360149D01*
X0425178Y0360042D01*
X0425240Y0359934D01*
X0425299Y0359824D01*
X0425355Y0359712D01*
X0425407Y0359598D01*
X0425455Y0359483D01*
X0425500Y0359367D01*
X0425540Y0359248D01*
X0425578Y0359129D01*
X0425611Y0359009D01*
X0425640Y0358887D01*
X0425666Y0358765D01*
X0425688Y0358642D01*
X0425705Y0358518D01*
X0425719Y0358394D01*
X0425729Y0358270D01*
X0425735Y0358145D01*
X0425737Y0358020D01*
X0425735Y0357895D01*
X0425729Y0357770D01*
X0425719Y0357646D01*
X0425705Y0357522D01*
X0425688Y0357398D01*
X0425666Y0357275D01*
X0425640Y0357153D01*
X0425611Y0357031D01*
X0425578Y0356911D01*
X0425540Y0356792D01*
X0425500Y0356673D01*
X0425455Y0356557D01*
X0425407Y0356442D01*
X0425355Y0356328D01*
X0425299Y0356216D01*
X0425240Y0356106D01*
X0425178Y0355998D01*
X0425112Y0355891D01*
X0425043Y0355787D01*
X0424970Y0355686D01*
X0424895Y0355586D01*
X0424816Y0355489D01*
X0424734Y0355395D01*
X0424649Y0355303D01*
X0424562Y0355214D01*
X0424471Y0355128D01*
X0424378Y0355045D01*
X0424282Y0354964D01*
X0424184Y0354887D01*
X0424084Y0354813D01*
X0423981Y0354742D01*
X0423876Y0354675D01*
X0423768Y0354610D01*
X0423659Y0354550D01*
X0423548Y0354492D01*
X0423435Y0354439D01*
X0423321Y0354389D01*
X0423205Y0354342D01*
X0423088Y0354300D01*
X0422969Y0354261D01*
X0422849Y0354225D01*
X0422728Y0354194D01*
X0422606Y0354166D01*
X0422484Y0354143D01*
X0422360Y0354123D01*
X0422236Y0354107D01*
X0422112Y0354095D01*
X0421987Y0354087D01*
X0421862Y0354083D01*
X0421738Y0354083D01*
X0421613Y0354087D01*
X0421488Y0354095D01*
X0421364Y0354107D01*
X0421240Y0354123D01*
X0421116Y0354143D01*
X0420994Y0354166D01*
X0420872Y0354194D01*
X0420751Y0354225D01*
X0420631Y0354261D01*
X0420512Y0354300D01*
X0420395Y0354342D01*
X0420279Y0354389D01*
X0420165Y0354439D01*
X0420052Y0354492D01*
X0419941Y0354550D01*
X0419831Y0354610D01*
X0419724Y0354675D01*
X0419619Y0354742D01*
X0419516Y0354813D01*
X0419416Y0354887D01*
X0419318Y0354964D01*
X0419222Y0355045D01*
X0419129Y0355128D01*
X0419038Y0355214D01*
X0418951Y0355303D01*
X0418866Y0355395D01*
X0418784Y0355489D01*
X0418705Y0355586D01*
X0418630Y0355686D01*
X0418557Y0355787D01*
X0418488Y0355891D01*
X0418422Y0355998D01*
X0418360Y0356106D01*
X0418301Y0356216D01*
X0418245Y0356328D01*
X0418193Y0356442D01*
X0418145Y0356557D01*
X0418100Y0356673D01*
X0418060Y0356792D01*
X0418022Y0356911D01*
X0417989Y0357031D01*
X0417960Y0357153D01*
X0417934Y0357275D01*
X0417912Y0357398D01*
X0417895Y0357522D01*
X0417881Y0357646D01*
X0417871Y0357770D01*
X0417865Y0357895D01*
X0417863Y0358020D01*
X0579800Y0145550D02*
X0579802Y0145676D01*
X0579808Y0145802D01*
X0579818Y0145928D01*
X0579832Y0146054D01*
X0579850Y0146179D01*
X0579872Y0146303D01*
X0579897Y0146427D01*
X0579927Y0146550D01*
X0579960Y0146671D01*
X0579998Y0146792D01*
X0580039Y0146911D01*
X0580084Y0147030D01*
X0580132Y0147146D01*
X0580184Y0147261D01*
X0580240Y0147374D01*
X0580300Y0147486D01*
X0580363Y0147595D01*
X0580429Y0147703D01*
X0580498Y0147808D01*
X0580571Y0147911D01*
X0580648Y0148012D01*
X0580727Y0148110D01*
X0580809Y0148206D01*
X0580895Y0148299D01*
X0580983Y0148390D01*
X0581074Y0148477D01*
X0581168Y0148562D01*
X0581264Y0148643D01*
X0581363Y0148722D01*
X0581464Y0148797D01*
X0581568Y0148869D01*
X0581674Y0148938D01*
X0581782Y0149004D01*
X0581892Y0149066D01*
X0582004Y0149124D01*
X0582117Y0149179D01*
X0582233Y0149230D01*
X0582350Y0149278D01*
X0582468Y0149322D01*
X0582588Y0149362D01*
X0582709Y0149398D01*
X0582831Y0149431D01*
X0582954Y0149460D01*
X0583078Y0149484D01*
X0583202Y0149505D01*
X0583327Y0149522D01*
X0583453Y0149535D01*
X0583579Y0149544D01*
X0583705Y0149549D01*
X0583832Y0149550D01*
X0583958Y0149547D01*
X0584084Y0149540D01*
X0584210Y0149529D01*
X0584335Y0149514D01*
X0584460Y0149495D01*
X0584584Y0149472D01*
X0584708Y0149446D01*
X0584830Y0149415D01*
X0584952Y0149381D01*
X0585072Y0149342D01*
X0585191Y0149300D01*
X0585309Y0149255D01*
X0585425Y0149205D01*
X0585540Y0149152D01*
X0585652Y0149095D01*
X0585763Y0149035D01*
X0585872Y0148971D01*
X0585979Y0148904D01*
X0586084Y0148834D01*
X0586187Y0148760D01*
X0586287Y0148683D01*
X0586385Y0148603D01*
X0586480Y0148520D01*
X0586572Y0148434D01*
X0586662Y0148345D01*
X0586749Y0148253D01*
X0586832Y0148159D01*
X0586913Y0148062D01*
X0586991Y0147962D01*
X0587066Y0147860D01*
X0587137Y0147756D01*
X0587205Y0147649D01*
X0587269Y0147541D01*
X0587330Y0147430D01*
X0587388Y0147318D01*
X0587442Y0147204D01*
X0587492Y0147088D01*
X0587539Y0146971D01*
X0587582Y0146852D01*
X0587621Y0146732D01*
X0587657Y0146611D01*
X0587688Y0146488D01*
X0587716Y0146365D01*
X0587740Y0146241D01*
X0587760Y0146116D01*
X0587776Y0145991D01*
X0587788Y0145865D01*
X0587796Y0145739D01*
X0587800Y0145613D01*
X0587800Y0145487D01*
X0587796Y0145361D01*
X0587788Y0145235D01*
X0587776Y0145109D01*
X0587760Y0144984D01*
X0587740Y0144859D01*
X0587716Y0144735D01*
X0587688Y0144612D01*
X0587657Y0144489D01*
X0587621Y0144368D01*
X0587582Y0144248D01*
X0587539Y0144129D01*
X0587492Y0144012D01*
X0587442Y0143896D01*
X0587388Y0143782D01*
X0587330Y0143670D01*
X0587269Y0143559D01*
X0587205Y0143451D01*
X0587137Y0143344D01*
X0587066Y0143240D01*
X0586991Y0143138D01*
X0586913Y0143038D01*
X0586832Y0142941D01*
X0586749Y0142847D01*
X0586662Y0142755D01*
X0586572Y0142666D01*
X0586480Y0142580D01*
X0586385Y0142497D01*
X0586287Y0142417D01*
X0586187Y0142340D01*
X0586084Y0142266D01*
X0585979Y0142196D01*
X0585872Y0142129D01*
X0585763Y0142065D01*
X0585652Y0142005D01*
X0585540Y0141948D01*
X0585425Y0141895D01*
X0585309Y0141845D01*
X0585191Y0141800D01*
X0585072Y0141758D01*
X0584952Y0141719D01*
X0584830Y0141685D01*
X0584708Y0141654D01*
X0584584Y0141628D01*
X0584460Y0141605D01*
X0584335Y0141586D01*
X0584210Y0141571D01*
X0584084Y0141560D01*
X0583958Y0141553D01*
X0583832Y0141550D01*
X0583705Y0141551D01*
X0583579Y0141556D01*
X0583453Y0141565D01*
X0583327Y0141578D01*
X0583202Y0141595D01*
X0583078Y0141616D01*
X0582954Y0141640D01*
X0582831Y0141669D01*
X0582709Y0141702D01*
X0582588Y0141738D01*
X0582468Y0141778D01*
X0582350Y0141822D01*
X0582233Y0141870D01*
X0582117Y0141921D01*
X0582004Y0141976D01*
X0581892Y0142034D01*
X0581782Y0142096D01*
X0581674Y0142162D01*
X0581568Y0142231D01*
X0581464Y0142303D01*
X0581363Y0142378D01*
X0581264Y0142457D01*
X0581168Y0142538D01*
X0581074Y0142623D01*
X0580983Y0142710D01*
X0580895Y0142801D01*
X0580809Y0142894D01*
X0580727Y0142990D01*
X0580648Y0143088D01*
X0580571Y0143189D01*
X0580498Y0143292D01*
X0580429Y0143397D01*
X0580363Y0143505D01*
X0580300Y0143614D01*
X0580240Y0143726D01*
X0580184Y0143839D01*
X0580132Y0143954D01*
X0580084Y0144070D01*
X0580039Y0144189D01*
X0579998Y0144308D01*
X0579960Y0144429D01*
X0579927Y0144550D01*
X0579897Y0144673D01*
X0579872Y0144797D01*
X0579850Y0144921D01*
X0579832Y0145046D01*
X0579818Y0145172D01*
X0579808Y0145298D01*
X0579802Y0145424D01*
X0579800Y0145550D01*
X0597800Y0145550D02*
X0597802Y0145676D01*
X0597808Y0145802D01*
X0597818Y0145928D01*
X0597832Y0146054D01*
X0597850Y0146179D01*
X0597872Y0146303D01*
X0597897Y0146427D01*
X0597927Y0146550D01*
X0597960Y0146671D01*
X0597998Y0146792D01*
X0598039Y0146911D01*
X0598084Y0147030D01*
X0598132Y0147146D01*
X0598184Y0147261D01*
X0598240Y0147374D01*
X0598300Y0147486D01*
X0598363Y0147595D01*
X0598429Y0147703D01*
X0598498Y0147808D01*
X0598571Y0147911D01*
X0598648Y0148012D01*
X0598727Y0148110D01*
X0598809Y0148206D01*
X0598895Y0148299D01*
X0598983Y0148390D01*
X0599074Y0148477D01*
X0599168Y0148562D01*
X0599264Y0148643D01*
X0599363Y0148722D01*
X0599464Y0148797D01*
X0599568Y0148869D01*
X0599674Y0148938D01*
X0599782Y0149004D01*
X0599892Y0149066D01*
X0600004Y0149124D01*
X0600117Y0149179D01*
X0600233Y0149230D01*
X0600350Y0149278D01*
X0600468Y0149322D01*
X0600588Y0149362D01*
X0600709Y0149398D01*
X0600831Y0149431D01*
X0600954Y0149460D01*
X0601078Y0149484D01*
X0601202Y0149505D01*
X0601327Y0149522D01*
X0601453Y0149535D01*
X0601579Y0149544D01*
X0601705Y0149549D01*
X0601832Y0149550D01*
X0601958Y0149547D01*
X0602084Y0149540D01*
X0602210Y0149529D01*
X0602335Y0149514D01*
X0602460Y0149495D01*
X0602584Y0149472D01*
X0602708Y0149446D01*
X0602830Y0149415D01*
X0602952Y0149381D01*
X0603072Y0149342D01*
X0603191Y0149300D01*
X0603309Y0149255D01*
X0603425Y0149205D01*
X0603540Y0149152D01*
X0603652Y0149095D01*
X0603763Y0149035D01*
X0603872Y0148971D01*
X0603979Y0148904D01*
X0604084Y0148834D01*
X0604187Y0148760D01*
X0604287Y0148683D01*
X0604385Y0148603D01*
X0604480Y0148520D01*
X0604572Y0148434D01*
X0604662Y0148345D01*
X0604749Y0148253D01*
X0604832Y0148159D01*
X0604913Y0148062D01*
X0604991Y0147962D01*
X0605066Y0147860D01*
X0605137Y0147756D01*
X0605205Y0147649D01*
X0605269Y0147541D01*
X0605330Y0147430D01*
X0605388Y0147318D01*
X0605442Y0147204D01*
X0605492Y0147088D01*
X0605539Y0146971D01*
X0605582Y0146852D01*
X0605621Y0146732D01*
X0605657Y0146611D01*
X0605688Y0146488D01*
X0605716Y0146365D01*
X0605740Y0146241D01*
X0605760Y0146116D01*
X0605776Y0145991D01*
X0605788Y0145865D01*
X0605796Y0145739D01*
X0605800Y0145613D01*
X0605800Y0145487D01*
X0605796Y0145361D01*
X0605788Y0145235D01*
X0605776Y0145109D01*
X0605760Y0144984D01*
X0605740Y0144859D01*
X0605716Y0144735D01*
X0605688Y0144612D01*
X0605657Y0144489D01*
X0605621Y0144368D01*
X0605582Y0144248D01*
X0605539Y0144129D01*
X0605492Y0144012D01*
X0605442Y0143896D01*
X0605388Y0143782D01*
X0605330Y0143670D01*
X0605269Y0143559D01*
X0605205Y0143451D01*
X0605137Y0143344D01*
X0605066Y0143240D01*
X0604991Y0143138D01*
X0604913Y0143038D01*
X0604832Y0142941D01*
X0604749Y0142847D01*
X0604662Y0142755D01*
X0604572Y0142666D01*
X0604480Y0142580D01*
X0604385Y0142497D01*
X0604287Y0142417D01*
X0604187Y0142340D01*
X0604084Y0142266D01*
X0603979Y0142196D01*
X0603872Y0142129D01*
X0603763Y0142065D01*
X0603652Y0142005D01*
X0603540Y0141948D01*
X0603425Y0141895D01*
X0603309Y0141845D01*
X0603191Y0141800D01*
X0603072Y0141758D01*
X0602952Y0141719D01*
X0602830Y0141685D01*
X0602708Y0141654D01*
X0602584Y0141628D01*
X0602460Y0141605D01*
X0602335Y0141586D01*
X0602210Y0141571D01*
X0602084Y0141560D01*
X0601958Y0141553D01*
X0601832Y0141550D01*
X0601705Y0141551D01*
X0601579Y0141556D01*
X0601453Y0141565D01*
X0601327Y0141578D01*
X0601202Y0141595D01*
X0601078Y0141616D01*
X0600954Y0141640D01*
X0600831Y0141669D01*
X0600709Y0141702D01*
X0600588Y0141738D01*
X0600468Y0141778D01*
X0600350Y0141822D01*
X0600233Y0141870D01*
X0600117Y0141921D01*
X0600004Y0141976D01*
X0599892Y0142034D01*
X0599782Y0142096D01*
X0599674Y0142162D01*
X0599568Y0142231D01*
X0599464Y0142303D01*
X0599363Y0142378D01*
X0599264Y0142457D01*
X0599168Y0142538D01*
X0599074Y0142623D01*
X0598983Y0142710D01*
X0598895Y0142801D01*
X0598809Y0142894D01*
X0598727Y0142990D01*
X0598648Y0143088D01*
X0598571Y0143189D01*
X0598498Y0143292D01*
X0598429Y0143397D01*
X0598363Y0143505D01*
X0598300Y0143614D01*
X0598240Y0143726D01*
X0598184Y0143839D01*
X0598132Y0143954D01*
X0598084Y0144070D01*
X0598039Y0144189D01*
X0597998Y0144308D01*
X0597960Y0144429D01*
X0597927Y0144550D01*
X0597897Y0144673D01*
X0597872Y0144797D01*
X0597850Y0144921D01*
X0597832Y0145046D01*
X0597818Y0145172D01*
X0597808Y0145298D01*
X0597802Y0145424D01*
X0597800Y0145550D01*
X0577272Y0101800D02*
X0577274Y0101934D01*
X0577280Y0102068D01*
X0577290Y0102202D01*
X0577304Y0102336D01*
X0577322Y0102469D01*
X0577343Y0102601D01*
X0577369Y0102733D01*
X0577399Y0102864D01*
X0577432Y0102994D01*
X0577469Y0103122D01*
X0577511Y0103250D01*
X0577555Y0103377D01*
X0577604Y0103502D01*
X0577656Y0103625D01*
X0577712Y0103747D01*
X0577772Y0103868D01*
X0577835Y0103986D01*
X0577901Y0104103D01*
X0577971Y0104217D01*
X0578044Y0104330D01*
X0578121Y0104440D01*
X0578201Y0104548D01*
X0578284Y0104653D01*
X0578370Y0104756D01*
X0578459Y0104856D01*
X0578551Y0104954D01*
X0578646Y0105049D01*
X0578744Y0105141D01*
X0578844Y0105230D01*
X0578947Y0105316D01*
X0579052Y0105399D01*
X0579160Y0105479D01*
X0579270Y0105556D01*
X0579383Y0105629D01*
X0579497Y0105699D01*
X0579614Y0105765D01*
X0579732Y0105828D01*
X0579853Y0105888D01*
X0579975Y0105944D01*
X0580098Y0105996D01*
X0580223Y0106045D01*
X0580350Y0106089D01*
X0580478Y0106131D01*
X0580606Y0106168D01*
X0580736Y0106201D01*
X0580867Y0106231D01*
X0580999Y0106257D01*
X0581131Y0106278D01*
X0581264Y0106296D01*
X0581398Y0106310D01*
X0581532Y0106320D01*
X0581666Y0106326D01*
X0581800Y0106328D01*
X0581934Y0106326D01*
X0582068Y0106320D01*
X0582202Y0106310D01*
X0582336Y0106296D01*
X0582469Y0106278D01*
X0582601Y0106257D01*
X0582733Y0106231D01*
X0582864Y0106201D01*
X0582994Y0106168D01*
X0583122Y0106131D01*
X0583250Y0106089D01*
X0583377Y0106045D01*
X0583502Y0105996D01*
X0583625Y0105944D01*
X0583747Y0105888D01*
X0583868Y0105828D01*
X0583986Y0105765D01*
X0584103Y0105699D01*
X0584217Y0105629D01*
X0584330Y0105556D01*
X0584440Y0105479D01*
X0584548Y0105399D01*
X0584653Y0105316D01*
X0584756Y0105230D01*
X0584856Y0105141D01*
X0584954Y0105049D01*
X0585049Y0104954D01*
X0585141Y0104856D01*
X0585230Y0104756D01*
X0585316Y0104653D01*
X0585399Y0104548D01*
X0585479Y0104440D01*
X0585556Y0104330D01*
X0585629Y0104217D01*
X0585699Y0104103D01*
X0585765Y0103986D01*
X0585828Y0103868D01*
X0585888Y0103747D01*
X0585944Y0103625D01*
X0585996Y0103502D01*
X0586045Y0103377D01*
X0586089Y0103250D01*
X0586131Y0103122D01*
X0586168Y0102994D01*
X0586201Y0102864D01*
X0586231Y0102733D01*
X0586257Y0102601D01*
X0586278Y0102469D01*
X0586296Y0102336D01*
X0586310Y0102202D01*
X0586320Y0102068D01*
X0586326Y0101934D01*
X0586328Y0101800D01*
X0586326Y0101666D01*
X0586320Y0101532D01*
X0586310Y0101398D01*
X0586296Y0101264D01*
X0586278Y0101131D01*
X0586257Y0100999D01*
X0586231Y0100867D01*
X0586201Y0100736D01*
X0586168Y0100606D01*
X0586131Y0100478D01*
X0586089Y0100350D01*
X0586045Y0100223D01*
X0585996Y0100098D01*
X0585944Y0099975D01*
X0585888Y0099853D01*
X0585828Y0099732D01*
X0585765Y0099614D01*
X0585699Y0099497D01*
X0585629Y0099383D01*
X0585556Y0099270D01*
X0585479Y0099160D01*
X0585399Y0099052D01*
X0585316Y0098947D01*
X0585230Y0098844D01*
X0585141Y0098744D01*
X0585049Y0098646D01*
X0584954Y0098551D01*
X0584856Y0098459D01*
X0584756Y0098370D01*
X0584653Y0098284D01*
X0584548Y0098201D01*
X0584440Y0098121D01*
X0584330Y0098044D01*
X0584217Y0097971D01*
X0584103Y0097901D01*
X0583986Y0097835D01*
X0583868Y0097772D01*
X0583747Y0097712D01*
X0583625Y0097656D01*
X0583502Y0097604D01*
X0583377Y0097555D01*
X0583250Y0097511D01*
X0583122Y0097469D01*
X0582994Y0097432D01*
X0582864Y0097399D01*
X0582733Y0097369D01*
X0582601Y0097343D01*
X0582469Y0097322D01*
X0582336Y0097304D01*
X0582202Y0097290D01*
X0582068Y0097280D01*
X0581934Y0097274D01*
X0581800Y0097272D01*
X0581666Y0097274D01*
X0581532Y0097280D01*
X0581398Y0097290D01*
X0581264Y0097304D01*
X0581131Y0097322D01*
X0580999Y0097343D01*
X0580867Y0097369D01*
X0580736Y0097399D01*
X0580606Y0097432D01*
X0580478Y0097469D01*
X0580350Y0097511D01*
X0580223Y0097555D01*
X0580098Y0097604D01*
X0579975Y0097656D01*
X0579853Y0097712D01*
X0579732Y0097772D01*
X0579614Y0097835D01*
X0579497Y0097901D01*
X0579383Y0097971D01*
X0579270Y0098044D01*
X0579160Y0098121D01*
X0579052Y0098201D01*
X0578947Y0098284D01*
X0578844Y0098370D01*
X0578744Y0098459D01*
X0578646Y0098551D01*
X0578551Y0098646D01*
X0578459Y0098744D01*
X0578370Y0098844D01*
X0578284Y0098947D01*
X0578201Y0099052D01*
X0578121Y0099160D01*
X0578044Y0099270D01*
X0577971Y0099383D01*
X0577901Y0099497D01*
X0577835Y0099614D01*
X0577772Y0099732D01*
X0577712Y0099853D01*
X0577656Y0099975D01*
X0577604Y0100098D01*
X0577555Y0100223D01*
X0577511Y0100350D01*
X0577469Y0100478D01*
X0577432Y0100606D01*
X0577399Y0100736D01*
X0577369Y0100867D01*
X0577343Y0100999D01*
X0577322Y0101131D01*
X0577304Y0101264D01*
X0577290Y0101398D01*
X0577280Y0101532D01*
X0577274Y0101666D01*
X0577272Y0101800D01*
D11*
X0252800Y0189300D02*
X0252818Y0190748D01*
X0252871Y0192195D01*
X0252960Y0193640D01*
X0253084Y0195083D01*
X0253244Y0196522D01*
X0253439Y0197957D01*
X0253669Y0199387D01*
X0253934Y0200810D01*
X0254234Y0202227D01*
X0254568Y0203636D01*
X0254937Y0205036D01*
X0255341Y0206427D01*
X0255778Y0207807D01*
X0256249Y0209177D01*
X0256753Y0210534D01*
X0257291Y0211878D01*
X0257862Y0213209D01*
X0258465Y0214526D01*
X0259100Y0215827D01*
X0259767Y0217112D01*
X0260465Y0218381D01*
X0261194Y0219632D01*
X0261954Y0220865D01*
X0262743Y0222079D01*
X0263562Y0223273D01*
X0264411Y0224446D01*
X0265288Y0225599D01*
X0266192Y0226729D01*
X0267125Y0227837D01*
X0268084Y0228922D01*
X0269069Y0229983D01*
X0270081Y0231019D01*
X0271117Y0232031D01*
X0272178Y0233016D01*
X0273263Y0233975D01*
X0274371Y0234908D01*
X0275501Y0235812D01*
X0276654Y0236689D01*
X0277827Y0237538D01*
X0279021Y0238357D01*
X0280235Y0239146D01*
X0281468Y0239906D01*
X0282719Y0240635D01*
X0283988Y0241333D01*
X0285273Y0242000D01*
X0286574Y0242635D01*
X0287891Y0243238D01*
X0289222Y0243809D01*
X0290566Y0244347D01*
X0291923Y0244851D01*
X0293293Y0245322D01*
X0294673Y0245759D01*
X0296064Y0246163D01*
X0297464Y0246532D01*
X0298873Y0246866D01*
X0300290Y0247166D01*
X0301713Y0247431D01*
X0303143Y0247661D01*
X0304578Y0247856D01*
X0306017Y0248016D01*
X0307460Y0248140D01*
X0308905Y0248229D01*
X0310352Y0248282D01*
X0311800Y0248300D01*
X0313248Y0248282D01*
X0314695Y0248229D01*
X0316140Y0248140D01*
X0317583Y0248016D01*
X0319022Y0247856D01*
X0320457Y0247661D01*
X0321887Y0247431D01*
X0323310Y0247166D01*
X0324727Y0246866D01*
X0326136Y0246532D01*
X0327536Y0246163D01*
X0328927Y0245759D01*
X0330307Y0245322D01*
X0331677Y0244851D01*
X0333034Y0244347D01*
X0334378Y0243809D01*
X0335709Y0243238D01*
X0337026Y0242635D01*
X0338327Y0242000D01*
X0339612Y0241333D01*
X0340881Y0240635D01*
X0342132Y0239906D01*
X0343365Y0239146D01*
X0344579Y0238357D01*
X0345773Y0237538D01*
X0346946Y0236689D01*
X0348099Y0235812D01*
X0349229Y0234908D01*
X0350337Y0233975D01*
X0351422Y0233016D01*
X0352483Y0232031D01*
X0353519Y0231019D01*
X0354531Y0229983D01*
X0355516Y0228922D01*
X0356475Y0227837D01*
X0357408Y0226729D01*
X0358312Y0225599D01*
X0359189Y0224446D01*
X0360038Y0223273D01*
X0360857Y0222079D01*
X0361646Y0220865D01*
X0362406Y0219632D01*
X0363135Y0218381D01*
X0363833Y0217112D01*
X0364500Y0215827D01*
X0365135Y0214526D01*
X0365738Y0213209D01*
X0366309Y0211878D01*
X0366847Y0210534D01*
X0367351Y0209177D01*
X0367822Y0207807D01*
X0368259Y0206427D01*
X0368663Y0205036D01*
X0369032Y0203636D01*
X0369366Y0202227D01*
X0369666Y0200810D01*
X0369931Y0199387D01*
X0370161Y0197957D01*
X0370356Y0196522D01*
X0370516Y0195083D01*
X0370640Y0193640D01*
X0370729Y0192195D01*
X0370782Y0190748D01*
X0370800Y0189300D01*
X0370782Y0187852D01*
X0370729Y0186405D01*
X0370640Y0184960D01*
X0370516Y0183517D01*
X0370356Y0182078D01*
X0370161Y0180643D01*
X0369931Y0179213D01*
X0369666Y0177790D01*
X0369366Y0176373D01*
X0369032Y0174964D01*
X0368663Y0173564D01*
X0368259Y0172173D01*
X0367822Y0170793D01*
X0367351Y0169423D01*
X0366847Y0168066D01*
X0366309Y0166722D01*
X0365738Y0165391D01*
X0365135Y0164074D01*
X0364500Y0162773D01*
X0363833Y0161488D01*
X0363135Y0160219D01*
X0362406Y0158968D01*
X0361646Y0157735D01*
X0360857Y0156521D01*
X0360038Y0155327D01*
X0359189Y0154154D01*
X0358312Y0153001D01*
X0357408Y0151871D01*
X0356475Y0150763D01*
X0355516Y0149678D01*
X0354531Y0148617D01*
X0353519Y0147581D01*
X0352483Y0146569D01*
X0351422Y0145584D01*
X0350337Y0144625D01*
X0349229Y0143692D01*
X0348099Y0142788D01*
X0346946Y0141911D01*
X0345773Y0141062D01*
X0344579Y0140243D01*
X0343365Y0139454D01*
X0342132Y0138694D01*
X0340881Y0137965D01*
X0339612Y0137267D01*
X0338327Y0136600D01*
X0337026Y0135965D01*
X0335709Y0135362D01*
X0334378Y0134791D01*
X0333034Y0134253D01*
X0331677Y0133749D01*
X0330307Y0133278D01*
X0328927Y0132841D01*
X0327536Y0132437D01*
X0326136Y0132068D01*
X0324727Y0131734D01*
X0323310Y0131434D01*
X0321887Y0131169D01*
X0320457Y0130939D01*
X0319022Y0130744D01*
X0317583Y0130584D01*
X0316140Y0130460D01*
X0314695Y0130371D01*
X0313248Y0130318D01*
X0311800Y0130300D01*
X0310352Y0130318D01*
X0308905Y0130371D01*
X0307460Y0130460D01*
X0306017Y0130584D01*
X0304578Y0130744D01*
X0303143Y0130939D01*
X0301713Y0131169D01*
X0300290Y0131434D01*
X0298873Y0131734D01*
X0297464Y0132068D01*
X0296064Y0132437D01*
X0294673Y0132841D01*
X0293293Y0133278D01*
X0291923Y0133749D01*
X0290566Y0134253D01*
X0289222Y0134791D01*
X0287891Y0135362D01*
X0286574Y0135965D01*
X0285273Y0136600D01*
X0283988Y0137267D01*
X0282719Y0137965D01*
X0281468Y0138694D01*
X0280235Y0139454D01*
X0279021Y0140243D01*
X0277827Y0141062D01*
X0276654Y0141911D01*
X0275501Y0142788D01*
X0274371Y0143692D01*
X0273263Y0144625D01*
X0272178Y0145584D01*
X0271117Y0146569D01*
X0270081Y0147581D01*
X0269069Y0148617D01*
X0268084Y0149678D01*
X0267125Y0150763D01*
X0266192Y0151871D01*
X0265288Y0153001D01*
X0264411Y0154154D01*
X0263562Y0155327D01*
X0262743Y0156521D01*
X0261954Y0157735D01*
X0261194Y0158968D01*
X0260465Y0160219D01*
X0259767Y0161488D01*
X0259100Y0162773D01*
X0258465Y0164074D01*
X0257862Y0165391D01*
X0257291Y0166722D01*
X0256753Y0168066D01*
X0256249Y0169423D01*
X0255778Y0170793D01*
X0255341Y0172173D01*
X0254937Y0173564D01*
X0254568Y0174964D01*
X0254234Y0176373D01*
X0253934Y0177790D01*
X0253669Y0179213D01*
X0253439Y0180643D01*
X0253244Y0182078D01*
X0253084Y0183517D01*
X0252960Y0184960D01*
X0252871Y0186405D01*
X0252818Y0187852D01*
X0252800Y0189300D01*
M02*
