%
M48
M72
T01C0.0197
T02C0.0394
T03C0.0400
T04C0.0472
T05C0.0787
T06C0.0800
T07C0.0866
T08C0.0906
T09C0.1300
%
T01
X7180Y6180
X9180Y6680
X8680Y8555
X11305Y9180
X12555Y9055
X8930Y10930
X10680Y12180
X11930Y12305
X9180Y15180
X7430Y12430
X4555Y8555
X17180Y10180
X20180Y9180
X20180Y17180
X8930Y23805
X6305Y27180
X4305Y28430
X6430Y28930
X9430Y28930
X7430Y33180
X17180Y26430
X3305Y23180
X2180Y23180
X37930Y30180
X44930Y29430
X45430Y30180
X47680Y28680
X47180Y28180
X51180Y26305
X53305Y27180
X51680Y28180
X52805Y30305
X53680Y32180
X55305Y27055
X53305Y24930
X52430Y23555
X48430Y23930
X44930Y23430
X44180Y23180
X51680Y20180
X54180Y19680
X55180Y19680
X55555Y16055
X57805Y16055
X60174Y16055
X56680Y10180
X53305Y6180
X53805Y4930
X47680Y5180
X43555Y7555
X42555Y6555
X40180Y6555
X40805Y10680
X38180Y12180
X44180Y12430
X47180Y10680
X60305Y27180
T02
X59164Y21686
X58180Y21686
X57196Y21686
X49164Y21686
X48180Y21686
X47196Y21686
X47164Y34186
X46180Y34186
X45196Y34186
X57196Y34186
X58180Y34186
X59164Y34186
X31164Y34186
X30180Y34186
X29196Y34186
X15164Y34186
X14180Y34186
X13196Y34186
X5164Y34186
X4180Y34186
X3196Y34186
X3196Y21686
X4180Y21686
X5164Y21686
X19196Y21686
X20180Y21686
X21164Y21686
X24196Y9186
X25180Y9186
X26164Y9186
X16164Y9186
X15180Y9186
X14196Y9186
X46696Y9186
X47680Y9186
X48664Y9186
T03
X58180Y7430
X58180Y6430
X58180Y5430
X41180Y15180
X40180Y15180
X39180Y15180
X39180Y18930
X40180Y18930
X41180Y18930
X39180Y31430
X38180Y31430
X37180Y31430
X23180Y31430
X22180Y31430
X21180Y31430
X13180Y22930
X12180Y22930
X11180Y22930
X11180Y18930
X12180Y18930
X13180Y18930
X13180Y15180
X12180Y15180
X11180Y15180
X7180Y8305
X6180Y8305
X5180Y8305
X5180Y4180
X6180Y4180
X7180Y4180
T04
X33219Y5446
X33219Y7414
X38141Y7414
X38141Y5446
T05
X45948Y6430
X49412Y6430
X49912Y18930
X46448Y18930
X56448Y18930
X59912Y18930
X59912Y31430
X56448Y31430
X47912Y31430
X44448Y31430
X42180Y33046
X42180Y35802
X31912Y31430
X28448Y31430
X15912Y31430
X12448Y31430
X5912Y31430
X2448Y31430
X2448Y18930
X5912Y18930
X5314Y14180
X2558Y14180
X13448Y6430
X16912Y6430
X23448Y6430
X26912Y6430
X21912Y18930
X18448Y18930
T06
X58380Y14555
X60180Y14555
T07
X36430Y13680
X25930Y13680
X25930Y24180
X36430Y24180
T08
X58180Y10180
T09
X1680Y1680
X1680Y36680
X60680Y36680
X60680Y1680
M30
