G75*
%MOIN*%
%OFA0B0*%
%FSLAX25Y25*%
%IPPOS*%
%LPD*%
%AMOC8*
5,1,8,0,0,1.08239X$1,22.5*
%
%ADD10C,0.01200*%
%ADD11C,0.00800*%
%ADD12C,0.01600*%
%ADD13C,0.00000*%
%ADD14C,0.02756*%
D10*
X0064578Y0109464D02*
X0064578Y0118272D01*
X0068982Y0118272D01*
X0070450Y0116804D01*
X0070450Y0113868D01*
X0068982Y0112400D01*
X0064578Y0112400D01*
X0061242Y0113868D02*
X0061242Y0116804D01*
X0059774Y0118272D01*
X0056838Y0118272D01*
X0055370Y0116804D01*
X0055370Y0113868D01*
X0056838Y0112400D01*
X0059774Y0112400D01*
X0061242Y0113868D01*
X0052167Y0112400D02*
X0049231Y0112400D01*
X0050699Y0112400D02*
X0050699Y0121208D01*
X0049231Y0121208D01*
X0045895Y0116804D02*
X0045895Y0115336D01*
X0040024Y0115336D01*
X0040024Y0116804D02*
X0041491Y0118272D01*
X0044427Y0118272D01*
X0045895Y0116804D01*
X0044427Y0112400D02*
X0041491Y0112400D01*
X0040024Y0113868D01*
X0040024Y0116804D01*
X0036687Y0118272D02*
X0033752Y0112400D01*
X0030816Y0118272D01*
X0027480Y0116804D02*
X0027480Y0112400D01*
X0027480Y0116804D02*
X0026012Y0118272D01*
X0021608Y0118272D01*
X0021608Y0112400D01*
X0018272Y0112400D02*
X0012400Y0112400D01*
X0012400Y0121208D01*
X0018272Y0121208D01*
X0015336Y0116804D02*
X0012400Y0116804D01*
X0073786Y0116804D02*
X0073786Y0113868D01*
X0075254Y0112400D01*
X0078189Y0112400D01*
X0079657Y0115336D02*
X0073786Y0115336D01*
X0073786Y0116804D02*
X0075254Y0118272D01*
X0078189Y0118272D01*
X0079657Y0116804D01*
X0079657Y0115336D01*
X0092201Y0113868D02*
X0093669Y0112400D01*
X0096605Y0112400D01*
X0098073Y0113868D01*
X0098073Y0116804D01*
X0095137Y0116804D01*
X0092201Y0119740D02*
X0092201Y0113868D01*
X0092201Y0119740D02*
X0093669Y0121208D01*
X0096605Y0121208D01*
X0098073Y0119740D01*
X0101409Y0116804D02*
X0102877Y0118272D01*
X0105813Y0118272D01*
X0107281Y0116804D01*
X0107281Y0115336D01*
X0101409Y0115336D01*
X0101409Y0113868D02*
X0101409Y0116804D01*
X0101409Y0113868D02*
X0102877Y0112400D01*
X0105813Y0112400D01*
X0110617Y0112400D02*
X0110617Y0118272D01*
X0115021Y0118272D01*
X0116489Y0116804D01*
X0116489Y0112400D01*
X0119825Y0113868D02*
X0119825Y0116804D01*
X0121293Y0118272D01*
X0124229Y0118272D01*
X0125697Y0116804D01*
X0125697Y0115336D01*
X0119825Y0115336D01*
X0119825Y0113868D02*
X0121293Y0112400D01*
X0124229Y0112400D01*
X0129033Y0112400D02*
X0129033Y0118272D01*
X0129033Y0115336D02*
X0131969Y0118272D01*
X0133437Y0118272D01*
X0138174Y0118272D02*
X0141110Y0118272D01*
X0142578Y0116804D01*
X0142578Y0112400D01*
X0138174Y0112400D01*
X0136706Y0113868D01*
X0138174Y0115336D01*
X0142578Y0115336D01*
X0145914Y0118272D02*
X0148850Y0118272D01*
X0147382Y0119740D02*
X0147382Y0113868D01*
X0148850Y0112400D01*
X0152053Y0113868D02*
X0152053Y0116804D01*
X0153520Y0118272D01*
X0156456Y0118272D01*
X0157924Y0116804D01*
X0157924Y0113868D01*
X0156456Y0112400D01*
X0153520Y0112400D01*
X0152053Y0113868D01*
X0161260Y0115336D02*
X0164196Y0118272D01*
X0165664Y0118272D01*
X0161260Y0118272D02*
X0161260Y0112400D01*
X0049231Y0237400D02*
X0049231Y0243272D01*
X0049231Y0240336D02*
X0052167Y0243272D01*
X0053635Y0243272D01*
X0045895Y0241804D02*
X0045895Y0240336D01*
X0040024Y0240336D01*
X0040024Y0238868D02*
X0040024Y0241804D01*
X0041491Y0243272D01*
X0044427Y0243272D01*
X0045895Y0241804D01*
X0041491Y0237400D02*
X0040024Y0238868D01*
X0041491Y0237400D02*
X0044427Y0237400D01*
X0036821Y0237400D02*
X0035353Y0238868D01*
X0035353Y0244740D01*
X0033885Y0243272D02*
X0036821Y0243272D01*
X0029214Y0246208D02*
X0029214Y0237400D01*
X0027746Y0237400D02*
X0030682Y0237400D01*
X0024544Y0237400D02*
X0021608Y0237400D01*
X0023076Y0237400D02*
X0023076Y0243272D01*
X0021608Y0243272D01*
X0023076Y0246208D02*
X0023076Y0247675D01*
X0027746Y0246208D02*
X0029214Y0246208D01*
X0018272Y0246208D02*
X0012400Y0246208D01*
X0012400Y0237400D01*
X0012400Y0241804D02*
X0015336Y0241804D01*
X0033868Y0362400D02*
X0036804Y0362400D01*
X0038272Y0363868D01*
X0038272Y0369740D01*
X0036804Y0371208D01*
X0033868Y0371208D01*
X0032400Y0369740D01*
X0032400Y0363868D01*
X0033868Y0362400D01*
X0041608Y0362400D02*
X0046012Y0362400D01*
X0047480Y0363868D01*
X0046012Y0365336D01*
X0043076Y0365336D01*
X0041608Y0366804D01*
X0043076Y0368272D01*
X0047480Y0368272D01*
X0050816Y0366804D02*
X0050816Y0363868D01*
X0052284Y0362400D01*
X0056687Y0362400D01*
X0060024Y0362400D02*
X0062959Y0362400D01*
X0061491Y0362400D02*
X0061491Y0368272D01*
X0060024Y0368272D01*
X0061491Y0371208D02*
X0061491Y0372675D01*
X0066162Y0371208D02*
X0067630Y0371208D01*
X0067630Y0362400D01*
X0066162Y0362400D02*
X0069098Y0362400D01*
X0072301Y0362400D02*
X0075237Y0362400D01*
X0073769Y0362400D02*
X0073769Y0371208D01*
X0072301Y0371208D01*
X0079907Y0368272D02*
X0082843Y0368272D01*
X0084311Y0366804D01*
X0084311Y0362400D01*
X0079907Y0362400D01*
X0078439Y0363868D01*
X0079907Y0365336D01*
X0084311Y0365336D01*
X0087647Y0368272D02*
X0090583Y0368272D01*
X0089115Y0369740D02*
X0089115Y0363868D01*
X0090583Y0362400D01*
X0093786Y0363868D02*
X0093786Y0366804D01*
X0095254Y0368272D01*
X0098189Y0368272D01*
X0099657Y0366804D01*
X0099657Y0363868D01*
X0098189Y0362400D01*
X0095254Y0362400D01*
X0093786Y0363868D01*
X0102994Y0365336D02*
X0105929Y0368272D01*
X0107397Y0368272D01*
X0102994Y0368272D02*
X0102994Y0362400D01*
X0056687Y0368272D02*
X0052284Y0368272D01*
X0050816Y0366804D01*
X0275965Y0264740D02*
X0275965Y0263272D01*
X0277433Y0261804D01*
X0280368Y0261804D01*
X0281836Y0260336D01*
X0281836Y0258868D01*
X0280368Y0257400D01*
X0277433Y0257400D01*
X0275965Y0258868D01*
X0285172Y0258868D02*
X0285172Y0261804D01*
X0286640Y0263272D01*
X0289576Y0263272D01*
X0291044Y0261804D01*
X0291044Y0258868D01*
X0289576Y0257400D01*
X0286640Y0257400D01*
X0285172Y0258868D01*
X0281836Y0264740D02*
X0280368Y0266208D01*
X0277433Y0266208D01*
X0275965Y0264740D01*
X0294380Y0263272D02*
X0294380Y0258868D01*
X0295848Y0257400D01*
X0300252Y0257400D01*
X0300252Y0263272D01*
X0303588Y0263272D02*
X0307992Y0263272D01*
X0309460Y0261804D01*
X0309460Y0257400D01*
X0312796Y0258868D02*
X0312796Y0261804D01*
X0314264Y0263272D01*
X0318668Y0263272D01*
X0318668Y0266208D02*
X0318668Y0257400D01*
X0314264Y0257400D01*
X0312796Y0258868D01*
X0303588Y0257400D02*
X0303588Y0263272D01*
X0331212Y0266208D02*
X0331212Y0257400D01*
X0337083Y0257400D01*
X0340420Y0258868D02*
X0341888Y0260336D01*
X0346291Y0260336D01*
X0346291Y0261804D02*
X0346291Y0257400D01*
X0341888Y0257400D01*
X0340420Y0258868D01*
X0341888Y0263272D02*
X0344823Y0263272D01*
X0346291Y0261804D01*
X0349627Y0263272D02*
X0354031Y0263272D01*
X0355499Y0261804D01*
X0355499Y0258868D01*
X0354031Y0257400D01*
X0349627Y0257400D01*
X0349627Y0266208D01*
X0384900Y0243272D02*
X0387836Y0246208D01*
X0390772Y0243272D01*
X0390772Y0237400D01*
X0394108Y0237400D02*
X0394108Y0243272D01*
X0395576Y0243272D01*
X0397044Y0241804D01*
X0398512Y0243272D01*
X0399980Y0241804D01*
X0399980Y0237400D01*
X0397044Y0237400D02*
X0397044Y0241804D01*
X0390772Y0241804D02*
X0384900Y0241804D01*
X0384900Y0243272D02*
X0384900Y0237400D01*
X0403316Y0237400D02*
X0407719Y0237400D01*
X0409187Y0238868D01*
X0409187Y0241804D01*
X0407719Y0243272D01*
X0403316Y0243272D01*
X0403316Y0234464D01*
X0412524Y0237400D02*
X0415459Y0237400D01*
X0413991Y0237400D02*
X0413991Y0246208D01*
X0412524Y0246208D01*
X0418662Y0243272D02*
X0420130Y0243272D01*
X0420130Y0237400D01*
X0418662Y0237400D02*
X0421598Y0237400D01*
X0426269Y0237400D02*
X0426269Y0244740D01*
X0427737Y0246208D01*
X0430939Y0243272D02*
X0432407Y0243272D01*
X0432407Y0237400D01*
X0430939Y0237400D02*
X0433875Y0237400D01*
X0437078Y0238868D02*
X0437078Y0241804D01*
X0438546Y0243272D01*
X0441482Y0243272D01*
X0442950Y0241804D01*
X0442950Y0240336D01*
X0437078Y0240336D01*
X0437078Y0238868D02*
X0438546Y0237400D01*
X0441482Y0237400D01*
X0446286Y0237400D02*
X0446286Y0243272D01*
X0446286Y0240336D02*
X0449222Y0243272D01*
X0450689Y0243272D01*
X0432407Y0246208D02*
X0432407Y0247675D01*
X0427737Y0241804D02*
X0424801Y0241804D01*
X0420130Y0246208D02*
X0420130Y0247675D01*
X0532400Y0362400D02*
X0532400Y0371208D01*
X0538272Y0362400D01*
X0538272Y0371208D01*
X0541608Y0366804D02*
X0541608Y0363868D01*
X0543076Y0362400D01*
X0546012Y0362400D01*
X0547480Y0363868D01*
X0547480Y0366804D01*
X0546012Y0368272D01*
X0543076Y0368272D01*
X0541608Y0366804D01*
X0550816Y0368272D02*
X0552284Y0368272D01*
X0552284Y0362400D01*
X0550816Y0362400D02*
X0553752Y0362400D01*
X0556954Y0362400D02*
X0561358Y0362400D01*
X0562826Y0363868D01*
X0561358Y0365336D01*
X0558422Y0365336D01*
X0556954Y0366804D01*
X0558422Y0368272D01*
X0562826Y0368272D01*
X0566162Y0366804D02*
X0567630Y0368272D01*
X0570566Y0368272D01*
X0572034Y0366804D01*
X0572034Y0365336D01*
X0566162Y0365336D01*
X0566162Y0363868D02*
X0566162Y0366804D01*
X0566162Y0363868D02*
X0567630Y0362400D01*
X0570566Y0362400D01*
X0552284Y0371208D02*
X0552284Y0372675D01*
X0445219Y0121208D02*
X0442284Y0121208D01*
X0440816Y0119740D01*
X0440816Y0113868D01*
X0442284Y0112400D01*
X0445219Y0112400D01*
X0446687Y0113868D01*
X0446687Y0119740D01*
X0445219Y0121208D01*
X0437480Y0121208D02*
X0431608Y0121208D01*
X0431608Y0112400D01*
X0428272Y0112400D02*
X0422400Y0112400D01*
X0422400Y0121208D01*
X0431608Y0116804D02*
X0434544Y0116804D01*
D11*
X0044464Y0024700D02*
X0043430Y0025734D01*
X0043430Y0029871D01*
X0044464Y0030905D01*
X0046533Y0030905D01*
X0047567Y0029871D01*
X0047567Y0025734D01*
X0046533Y0024700D01*
X0044464Y0024700D01*
X0049876Y0027803D02*
X0051944Y0027803D01*
X0054173Y0027803D02*
X0056241Y0027803D01*
X0055207Y0029871D02*
X0055207Y0024700D01*
X0050910Y0024700D02*
X0050910Y0029871D01*
X0051944Y0030905D01*
X0055207Y0029871D02*
X0056241Y0030905D01*
X0043906Y0033237D02*
X0079694Y0033237D01*
X0079694Y0050363D01*
X0043906Y0050363D01*
X0043906Y0033237D01*
X0069505Y0029871D02*
X0069505Y0025734D01*
X0070539Y0024700D01*
X0072607Y0024700D01*
X0073641Y0025734D01*
X0073641Y0029871D01*
X0072607Y0030905D01*
X0070539Y0030905D01*
X0069505Y0029871D01*
X0075950Y0028837D02*
X0075950Y0024700D01*
X0080087Y0024700D02*
X0080087Y0027803D01*
X0079053Y0028837D01*
X0075950Y0028837D01*
X0056829Y0052632D02*
X0056829Y0058837D01*
X0059931Y0058837D01*
X0060966Y0057803D01*
X0060966Y0055734D01*
X0059931Y0054700D01*
X0056829Y0054700D01*
X0054520Y0056768D02*
X0054520Y0057803D01*
X0053486Y0058837D01*
X0051417Y0058837D01*
X0050383Y0057803D01*
X0050383Y0055734D01*
X0051417Y0054700D01*
X0053486Y0054700D01*
X0054520Y0056768D02*
X0050383Y0056768D01*
X0048075Y0057803D02*
X0047040Y0056768D01*
X0043938Y0056768D01*
X0043938Y0054700D02*
X0043938Y0060905D01*
X0047040Y0060905D01*
X0048075Y0059871D01*
X0048075Y0057803D01*
X0046006Y0056768D02*
X0048075Y0054700D01*
X0046533Y0064700D02*
X0047567Y0065734D01*
X0047567Y0069871D01*
X0046533Y0070905D01*
X0044464Y0070905D01*
X0043430Y0069871D01*
X0043430Y0065734D01*
X0044464Y0064700D01*
X0046533Y0064700D01*
X0050910Y0064700D02*
X0050910Y0069871D01*
X0051944Y0070905D01*
X0051944Y0067803D02*
X0049876Y0067803D01*
X0054173Y0067803D02*
X0056241Y0067803D01*
X0055207Y0069871D02*
X0055207Y0064700D01*
X0055207Y0069871D02*
X0056241Y0070905D01*
X0043906Y0074487D02*
X0079694Y0074487D01*
X0079694Y0091613D01*
X0043906Y0091613D01*
X0043906Y0074487D01*
X0063274Y0057803D02*
X0064308Y0058837D01*
X0066377Y0058837D01*
X0067411Y0057803D01*
X0067411Y0056768D01*
X0063274Y0056768D01*
X0063274Y0055734D02*
X0063274Y0057803D01*
X0063274Y0055734D02*
X0064308Y0054700D01*
X0066377Y0054700D01*
X0069720Y0055734D02*
X0070754Y0056768D01*
X0073857Y0056768D01*
X0073857Y0057803D02*
X0073857Y0054700D01*
X0070754Y0054700D01*
X0069720Y0055734D01*
X0070754Y0058837D02*
X0072822Y0058837D01*
X0073857Y0057803D01*
X0076165Y0058837D02*
X0078234Y0058837D01*
X0077199Y0059871D02*
X0077199Y0055734D01*
X0078234Y0054700D01*
X0080087Y0064700D02*
X0080087Y0067803D01*
X0079053Y0068837D01*
X0075950Y0068837D01*
X0075950Y0064700D01*
X0073641Y0065734D02*
X0073641Y0069871D01*
X0072607Y0070905D01*
X0070539Y0070905D01*
X0069505Y0069871D01*
X0069505Y0065734D01*
X0070539Y0064700D01*
X0072607Y0064700D01*
X0073641Y0065734D01*
X0073937Y0094700D02*
X0071868Y0094700D01*
X0072902Y0094700D02*
X0072902Y0098837D01*
X0071868Y0098837D01*
X0072902Y0100905D02*
X0072902Y0101940D01*
X0076165Y0098837D02*
X0079268Y0098837D01*
X0080302Y0097803D01*
X0080302Y0094700D01*
X0076165Y0094700D02*
X0076165Y0098837D01*
X0069560Y0097803D02*
X0069560Y0094700D01*
X0066457Y0094700D01*
X0065423Y0095734D01*
X0066457Y0096768D01*
X0069560Y0096768D01*
X0069560Y0097803D02*
X0068525Y0098837D01*
X0066457Y0098837D01*
X0063194Y0098837D02*
X0061126Y0098837D01*
X0062160Y0099871D02*
X0062160Y0095734D01*
X0063194Y0094700D01*
X0058817Y0095734D02*
X0057783Y0096768D01*
X0055714Y0096768D01*
X0054680Y0097803D01*
X0055714Y0098837D01*
X0058817Y0098837D01*
X0058817Y0095734D02*
X0057783Y0094700D01*
X0054680Y0094700D01*
X0052372Y0094700D02*
X0052372Y0098837D01*
X0052372Y0094700D02*
X0049269Y0094700D01*
X0048235Y0095734D01*
X0048235Y0098837D01*
X0045926Y0099871D02*
X0044892Y0100905D01*
X0042823Y0100905D01*
X0041789Y0099871D01*
X0041789Y0098837D01*
X0042823Y0097803D01*
X0044892Y0097803D01*
X0045926Y0096768D01*
X0045926Y0095734D01*
X0044892Y0094700D01*
X0042823Y0094700D01*
X0041789Y0095734D01*
X0104962Y0133450D02*
X0104962Y0139655D01*
X0107030Y0139655D02*
X0102893Y0139655D01*
X0103906Y0143237D02*
X0139694Y0143237D01*
X0139694Y0160363D01*
X0103906Y0160363D01*
X0103906Y0143237D01*
X0109339Y0137587D02*
X0109339Y0133450D01*
X0109339Y0135518D02*
X0111407Y0137587D01*
X0112441Y0137587D01*
X0114710Y0137587D02*
X0115744Y0137587D01*
X0115744Y0133450D01*
X0114710Y0133450D02*
X0116778Y0133450D01*
X0115744Y0139655D02*
X0115744Y0140690D01*
X0130755Y0138621D02*
X0130755Y0137587D01*
X0131789Y0136553D01*
X0133857Y0136553D01*
X0134891Y0135518D01*
X0134891Y0134484D01*
X0133857Y0133450D01*
X0131789Y0133450D01*
X0130755Y0134484D01*
X0130755Y0138621D02*
X0131789Y0139655D01*
X0133857Y0139655D01*
X0134891Y0138621D01*
X0137200Y0136553D02*
X0137200Y0134484D01*
X0138234Y0133450D01*
X0141337Y0133450D01*
X0141337Y0131382D02*
X0141337Y0137587D01*
X0138234Y0137587D01*
X0137200Y0136553D01*
X0169846Y0152200D02*
X0173983Y0152200D01*
X0176292Y0153234D02*
X0176292Y0155303D01*
X0177326Y0156337D01*
X0179394Y0156337D01*
X0180428Y0155303D01*
X0180428Y0154268D01*
X0176292Y0154268D01*
X0176292Y0153234D02*
X0177326Y0152200D01*
X0179394Y0152200D01*
X0182737Y0152200D02*
X0182737Y0156337D01*
X0184806Y0156337D02*
X0185840Y0156337D01*
X0184806Y0156337D02*
X0182737Y0154268D01*
X0188108Y0153234D02*
X0189143Y0152200D01*
X0191211Y0152200D01*
X0192245Y0153234D01*
X0192245Y0155303D01*
X0191211Y0156337D01*
X0189143Y0156337D01*
X0188108Y0155303D01*
X0188108Y0153234D01*
X0173983Y0157371D02*
X0169846Y0153234D01*
X0169846Y0152200D01*
X0169846Y0158405D02*
X0173983Y0158405D01*
X0173983Y0157371D01*
X0182391Y0168253D02*
X0221209Y0168253D01*
X0221209Y0182902D01*
X0221209Y0195753D02*
X0221209Y0215678D01*
X0221091Y0215678D02*
X0215973Y0215678D01*
X0207312Y0215678D02*
X0206131Y0215678D01*
X0197469Y0215678D02*
X0196288Y0215678D01*
X0187627Y0215678D02*
X0182391Y0215678D01*
X0182391Y0195757D01*
X0182391Y0182902D02*
X0182391Y0168253D01*
X0212532Y0158405D02*
X0212532Y0152200D01*
X0216669Y0152200D02*
X0216669Y0158405D01*
X0214600Y0156337D01*
X0212532Y0158405D01*
X0220011Y0156337D02*
X0222080Y0156337D01*
X0223114Y0155303D01*
X0223114Y0152200D01*
X0220011Y0152200D01*
X0218977Y0153234D01*
X0220011Y0154268D01*
X0223114Y0154268D01*
X0225423Y0152200D02*
X0229560Y0156337D01*
X0225423Y0156337D02*
X0229560Y0152200D01*
X0252410Y0136800D02*
X0252412Y0136969D01*
X0252418Y0137138D01*
X0252429Y0137307D01*
X0252443Y0137475D01*
X0252462Y0137643D01*
X0252485Y0137811D01*
X0252511Y0137978D01*
X0252542Y0138144D01*
X0252577Y0138310D01*
X0252616Y0138474D01*
X0252660Y0138638D01*
X0252707Y0138800D01*
X0252758Y0138961D01*
X0252813Y0139121D01*
X0252872Y0139280D01*
X0252934Y0139437D01*
X0253001Y0139592D01*
X0253072Y0139746D01*
X0253146Y0139898D01*
X0253224Y0140048D01*
X0253305Y0140196D01*
X0253390Y0140342D01*
X0253479Y0140486D01*
X0253571Y0140628D01*
X0253667Y0140767D01*
X0253766Y0140904D01*
X0253868Y0141039D01*
X0253974Y0141171D01*
X0254083Y0141300D01*
X0254195Y0141427D01*
X0254310Y0141551D01*
X0254428Y0141672D01*
X0254549Y0141790D01*
X0254673Y0141905D01*
X0254800Y0142017D01*
X0254929Y0142126D01*
X0255061Y0142232D01*
X0255196Y0142334D01*
X0255333Y0142433D01*
X0255472Y0142529D01*
X0255614Y0142621D01*
X0255758Y0142710D01*
X0255904Y0142795D01*
X0256052Y0142876D01*
X0256202Y0142954D01*
X0256354Y0143028D01*
X0256508Y0143099D01*
X0256663Y0143166D01*
X0256820Y0143228D01*
X0256979Y0143287D01*
X0257139Y0143342D01*
X0257300Y0143393D01*
X0257462Y0143440D01*
X0257626Y0143484D01*
X0257790Y0143523D01*
X0257956Y0143558D01*
X0258122Y0143589D01*
X0258289Y0143615D01*
X0258457Y0143638D01*
X0258625Y0143657D01*
X0258793Y0143671D01*
X0258962Y0143682D01*
X0259131Y0143688D01*
X0259300Y0143690D01*
X0259469Y0143688D01*
X0259638Y0143682D01*
X0259807Y0143671D01*
X0259975Y0143657D01*
X0260143Y0143638D01*
X0260311Y0143615D01*
X0260478Y0143589D01*
X0260644Y0143558D01*
X0260810Y0143523D01*
X0260974Y0143484D01*
X0261138Y0143440D01*
X0261300Y0143393D01*
X0261461Y0143342D01*
X0261621Y0143287D01*
X0261780Y0143228D01*
X0261937Y0143166D01*
X0262092Y0143099D01*
X0262246Y0143028D01*
X0262398Y0142954D01*
X0262548Y0142876D01*
X0262696Y0142795D01*
X0262842Y0142710D01*
X0262986Y0142621D01*
X0263128Y0142529D01*
X0263267Y0142433D01*
X0263404Y0142334D01*
X0263539Y0142232D01*
X0263671Y0142126D01*
X0263800Y0142017D01*
X0263927Y0141905D01*
X0264051Y0141790D01*
X0264172Y0141672D01*
X0264290Y0141551D01*
X0264405Y0141427D01*
X0264517Y0141300D01*
X0264626Y0141171D01*
X0264732Y0141039D01*
X0264834Y0140904D01*
X0264933Y0140767D01*
X0265029Y0140628D01*
X0265121Y0140486D01*
X0265210Y0140342D01*
X0265295Y0140196D01*
X0265376Y0140048D01*
X0265454Y0139898D01*
X0265528Y0139746D01*
X0265599Y0139592D01*
X0265666Y0139437D01*
X0265728Y0139280D01*
X0265787Y0139121D01*
X0265842Y0138961D01*
X0265893Y0138800D01*
X0265940Y0138638D01*
X0265984Y0138474D01*
X0266023Y0138310D01*
X0266058Y0138144D01*
X0266089Y0137978D01*
X0266115Y0137811D01*
X0266138Y0137643D01*
X0266157Y0137475D01*
X0266171Y0137307D01*
X0266182Y0137138D01*
X0266188Y0136969D01*
X0266190Y0136800D01*
X0266188Y0136631D01*
X0266182Y0136462D01*
X0266171Y0136293D01*
X0266157Y0136125D01*
X0266138Y0135957D01*
X0266115Y0135789D01*
X0266089Y0135622D01*
X0266058Y0135456D01*
X0266023Y0135290D01*
X0265984Y0135126D01*
X0265940Y0134962D01*
X0265893Y0134800D01*
X0265842Y0134639D01*
X0265787Y0134479D01*
X0265728Y0134320D01*
X0265666Y0134163D01*
X0265599Y0134008D01*
X0265528Y0133854D01*
X0265454Y0133702D01*
X0265376Y0133552D01*
X0265295Y0133404D01*
X0265210Y0133258D01*
X0265121Y0133114D01*
X0265029Y0132972D01*
X0264933Y0132833D01*
X0264834Y0132696D01*
X0264732Y0132561D01*
X0264626Y0132429D01*
X0264517Y0132300D01*
X0264405Y0132173D01*
X0264290Y0132049D01*
X0264172Y0131928D01*
X0264051Y0131810D01*
X0263927Y0131695D01*
X0263800Y0131583D01*
X0263671Y0131474D01*
X0263539Y0131368D01*
X0263404Y0131266D01*
X0263267Y0131167D01*
X0263128Y0131071D01*
X0262986Y0130979D01*
X0262842Y0130890D01*
X0262696Y0130805D01*
X0262548Y0130724D01*
X0262398Y0130646D01*
X0262246Y0130572D01*
X0262092Y0130501D01*
X0261937Y0130434D01*
X0261780Y0130372D01*
X0261621Y0130313D01*
X0261461Y0130258D01*
X0261300Y0130207D01*
X0261138Y0130160D01*
X0260974Y0130116D01*
X0260810Y0130077D01*
X0260644Y0130042D01*
X0260478Y0130011D01*
X0260311Y0129985D01*
X0260143Y0129962D01*
X0259975Y0129943D01*
X0259807Y0129929D01*
X0259638Y0129918D01*
X0259469Y0129912D01*
X0259300Y0129910D01*
X0259131Y0129912D01*
X0258962Y0129918D01*
X0258793Y0129929D01*
X0258625Y0129943D01*
X0258457Y0129962D01*
X0258289Y0129985D01*
X0258122Y0130011D01*
X0257956Y0130042D01*
X0257790Y0130077D01*
X0257626Y0130116D01*
X0257462Y0130160D01*
X0257300Y0130207D01*
X0257139Y0130258D01*
X0256979Y0130313D01*
X0256820Y0130372D01*
X0256663Y0130434D01*
X0256508Y0130501D01*
X0256354Y0130572D01*
X0256202Y0130646D01*
X0256052Y0130724D01*
X0255904Y0130805D01*
X0255758Y0130890D01*
X0255614Y0130979D01*
X0255472Y0131071D01*
X0255333Y0131167D01*
X0255196Y0131266D01*
X0255061Y0131368D01*
X0254929Y0131474D01*
X0254800Y0131583D01*
X0254673Y0131695D01*
X0254549Y0131810D01*
X0254428Y0131928D01*
X0254310Y0132049D01*
X0254195Y0132173D01*
X0254083Y0132300D01*
X0253974Y0132429D01*
X0253868Y0132561D01*
X0253766Y0132696D01*
X0253667Y0132833D01*
X0253571Y0132972D01*
X0253479Y0133114D01*
X0253390Y0133258D01*
X0253305Y0133404D01*
X0253224Y0133552D01*
X0253146Y0133702D01*
X0253072Y0133854D01*
X0253001Y0134008D01*
X0252934Y0134163D01*
X0252872Y0134320D01*
X0252813Y0134479D01*
X0252758Y0134639D01*
X0252707Y0134800D01*
X0252660Y0134962D01*
X0252616Y0135126D01*
X0252577Y0135290D01*
X0252542Y0135456D01*
X0252511Y0135622D01*
X0252485Y0135789D01*
X0252462Y0135957D01*
X0252443Y0136125D01*
X0252429Y0136293D01*
X0252418Y0136462D01*
X0252412Y0136631D01*
X0252410Y0136800D01*
X0253114Y0103837D02*
X0250011Y0103837D01*
X0248977Y0102803D01*
X0248977Y0100734D01*
X0250011Y0099700D01*
X0253114Y0099700D01*
X0255423Y0100734D02*
X0256457Y0101768D01*
X0259560Y0101768D01*
X0259560Y0102803D02*
X0259560Y0099700D01*
X0256457Y0099700D01*
X0255423Y0100734D01*
X0256457Y0103837D02*
X0258525Y0103837D01*
X0259560Y0102803D01*
X0261868Y0103837D02*
X0261868Y0100734D01*
X0262902Y0099700D01*
X0266005Y0099700D01*
X0266005Y0098666D02*
X0264971Y0097632D01*
X0263937Y0097632D01*
X0266005Y0098666D02*
X0266005Y0103837D01*
X0246669Y0102803D02*
X0246669Y0101768D01*
X0242532Y0101768D01*
X0242532Y0100734D02*
X0242532Y0102803D01*
X0243566Y0103837D01*
X0245634Y0103837D01*
X0246669Y0102803D01*
X0245634Y0099700D02*
X0243566Y0099700D01*
X0242532Y0100734D01*
X0240223Y0100734D02*
X0240223Y0104871D01*
X0239189Y0105905D01*
X0236086Y0105905D01*
X0236086Y0099700D01*
X0239189Y0099700D01*
X0240223Y0100734D01*
X0237627Y0090678D02*
X0232391Y0090678D01*
X0232391Y0070757D01*
X0232391Y0057902D02*
X0232391Y0043253D01*
X0271209Y0043253D01*
X0271209Y0057902D01*
X0271209Y0070753D02*
X0271209Y0090678D01*
X0271091Y0090678D02*
X0265973Y0090678D01*
X0257312Y0090678D02*
X0256131Y0090678D01*
X0247469Y0090678D02*
X0246288Y0090678D01*
X0171209Y0090678D02*
X0171209Y0070753D01*
X0171209Y0057902D02*
X0171209Y0043253D01*
X0132391Y0043253D01*
X0132391Y0057902D01*
X0132391Y0070757D02*
X0132391Y0090678D01*
X0137627Y0090678D01*
X0146288Y0090678D02*
X0147469Y0090678D01*
X0156131Y0090678D02*
X0157312Y0090678D01*
X0165973Y0090678D02*
X0171091Y0090678D01*
X0166582Y0099700D02*
X0163480Y0101768D01*
X0166582Y0103837D01*
X0163480Y0105905D02*
X0163480Y0099700D01*
X0161171Y0099700D02*
X0158068Y0099700D01*
X0157034Y0100734D01*
X0157034Y0102803D01*
X0158068Y0103837D01*
X0161171Y0103837D01*
X0154725Y0102803D02*
X0154725Y0099700D01*
X0151623Y0099700D01*
X0150589Y0100734D01*
X0151623Y0101768D01*
X0154725Y0101768D01*
X0154725Y0102803D02*
X0153691Y0103837D01*
X0151623Y0103837D01*
X0148360Y0103837D02*
X0146292Y0103837D01*
X0147326Y0104871D02*
X0147326Y0100734D01*
X0148360Y0099700D01*
X0144063Y0099700D02*
X0143029Y0100734D01*
X0143029Y0104871D01*
X0141995Y0103837D02*
X0144063Y0103837D01*
X0139686Y0103837D02*
X0139686Y0099700D01*
X0139686Y0102803D02*
X0135549Y0102803D01*
X0135549Y0103837D02*
X0135549Y0099700D01*
X0135549Y0103837D02*
X0137618Y0105905D01*
X0139686Y0103837D01*
X0071708Y0152200D02*
X0071708Y0155303D01*
X0070674Y0156337D01*
X0068605Y0156337D01*
X0067571Y0155303D01*
X0065263Y0156337D02*
X0062160Y0156337D01*
X0061126Y0155303D01*
X0061126Y0153234D01*
X0062160Y0152200D01*
X0065263Y0152200D01*
X0065263Y0151166D02*
X0065263Y0156337D01*
X0067571Y0158405D02*
X0067571Y0152200D01*
X0065263Y0151166D02*
X0064228Y0150132D01*
X0063194Y0150132D01*
X0058897Y0152200D02*
X0056829Y0152200D01*
X0057863Y0152200D02*
X0057863Y0156337D01*
X0056829Y0156337D01*
X0057863Y0158405D02*
X0057863Y0159440D01*
X0054520Y0158405D02*
X0054520Y0152200D01*
X0054520Y0155303D02*
X0050383Y0155303D01*
X0050383Y0158405D02*
X0050383Y0152200D01*
X0061209Y0168253D02*
X0022391Y0168253D01*
X0022391Y0182902D01*
X0022391Y0195757D02*
X0022391Y0215678D01*
X0027627Y0215678D01*
X0036288Y0215678D02*
X0037469Y0215678D01*
X0046131Y0215678D02*
X0047312Y0215678D01*
X0055973Y0215678D02*
X0061091Y0215678D01*
X0061209Y0215678D02*
X0061209Y0195753D01*
X0061209Y0182902D02*
X0061209Y0168253D01*
X0029560Y0156337D02*
X0029560Y0153234D01*
X0028525Y0152200D01*
X0027491Y0153234D01*
X0026457Y0152200D01*
X0025423Y0153234D01*
X0025423Y0156337D01*
X0023114Y0155303D02*
X0023114Y0153234D01*
X0022080Y0152200D01*
X0020011Y0152200D01*
X0018977Y0153234D01*
X0018977Y0155303D01*
X0020011Y0156337D01*
X0022080Y0156337D01*
X0023114Y0155303D01*
X0016669Y0152200D02*
X0012532Y0152200D01*
X0012532Y0158405D01*
X0099670Y0172200D02*
X0103807Y0172200D01*
X0106116Y0172200D02*
X0106116Y0176337D01*
X0109219Y0176337D01*
X0110253Y0175303D01*
X0110253Y0172200D01*
X0114630Y0172200D02*
X0116698Y0176337D01*
X0119007Y0173234D02*
X0119007Y0172200D01*
X0120041Y0172200D01*
X0120041Y0173234D01*
X0119007Y0173234D01*
X0114630Y0172200D02*
X0112561Y0176337D01*
X0103807Y0178405D02*
X0099670Y0178405D01*
X0099670Y0172200D01*
X0099670Y0175303D02*
X0101739Y0175303D01*
X0103906Y0180737D02*
X0139694Y0180737D01*
X0139694Y0197863D01*
X0103906Y0197863D01*
X0103906Y0180737D01*
X0127532Y0178405D02*
X0127532Y0172200D01*
X0131669Y0172200D01*
X0133977Y0172200D02*
X0133977Y0178405D01*
X0138114Y0178405D01*
X0140423Y0177371D02*
X0140423Y0173234D01*
X0141457Y0172200D01*
X0143525Y0172200D01*
X0144560Y0173234D01*
X0144560Y0177371D01*
X0143525Y0178405D01*
X0141457Y0178405D01*
X0140423Y0177371D01*
X0136046Y0175303D02*
X0133977Y0175303D01*
X0135588Y0202200D02*
X0134554Y0203234D01*
X0134554Y0205303D01*
X0135588Y0206337D01*
X0137656Y0206337D01*
X0138691Y0205303D01*
X0138691Y0204268D01*
X0134554Y0204268D01*
X0135588Y0202200D02*
X0137656Y0202200D01*
X0132245Y0202200D02*
X0129143Y0202200D01*
X0128108Y0203234D01*
X0128108Y0205303D01*
X0129143Y0206337D01*
X0132245Y0206337D01*
X0125840Y0206337D02*
X0124806Y0206337D01*
X0122737Y0204268D01*
X0122737Y0202200D02*
X0122737Y0206337D01*
X0120428Y0206337D02*
X0120428Y0202200D01*
X0117326Y0202200D01*
X0116292Y0203234D01*
X0116292Y0206337D01*
X0113983Y0205303D02*
X0112949Y0206337D01*
X0110880Y0206337D01*
X0109846Y0205303D01*
X0109846Y0203234D01*
X0110880Y0202200D01*
X0112949Y0202200D01*
X0113983Y0203234D01*
X0113983Y0205303D01*
X0107537Y0204268D02*
X0107537Y0203234D01*
X0106503Y0202200D01*
X0104435Y0202200D01*
X0103401Y0203234D01*
X0104435Y0205303D02*
X0106503Y0205303D01*
X0107537Y0204268D01*
X0107537Y0207371D02*
X0106503Y0208405D01*
X0104435Y0208405D01*
X0103401Y0207371D01*
X0103401Y0206337D01*
X0104435Y0205303D01*
X0105283Y0212200D02*
X0106317Y0213234D01*
X0106317Y0217371D01*
X0105283Y0218405D01*
X0103214Y0218405D01*
X0102180Y0217371D01*
X0102180Y0213234D01*
X0103214Y0212200D01*
X0105283Y0212200D01*
X0109660Y0212200D02*
X0109660Y0217371D01*
X0110694Y0218405D01*
X0110694Y0215303D02*
X0108626Y0215303D01*
X0112923Y0215303D02*
X0114991Y0215303D01*
X0113957Y0217371D02*
X0114991Y0218405D01*
X0113957Y0217371D02*
X0113957Y0212200D01*
X0103906Y0220737D02*
X0139694Y0220737D01*
X0139694Y0237863D01*
X0103906Y0237863D01*
X0103906Y0220737D01*
X0102743Y0240950D02*
X0100675Y0240950D01*
X0099641Y0241984D01*
X0099641Y0244053D01*
X0100675Y0245087D01*
X0102743Y0245087D01*
X0103778Y0244053D01*
X0103778Y0243018D01*
X0099641Y0243018D01*
X0097332Y0244053D02*
X0096298Y0243018D01*
X0093195Y0243018D01*
X0093195Y0240950D02*
X0093195Y0247155D01*
X0096298Y0247155D01*
X0097332Y0246121D01*
X0097332Y0244053D01*
X0095264Y0243018D02*
X0097332Y0240950D01*
X0106086Y0240950D02*
X0109189Y0240950D01*
X0110223Y0241984D01*
X0109189Y0243018D01*
X0107120Y0243018D01*
X0106086Y0244053D01*
X0107120Y0245087D01*
X0110223Y0245087D01*
X0112532Y0244053D02*
X0112532Y0241984D01*
X0113566Y0240950D01*
X0115634Y0240950D01*
X0116669Y0241984D01*
X0116669Y0244053D01*
X0115634Y0245087D01*
X0113566Y0245087D01*
X0112532Y0244053D01*
X0118977Y0245087D02*
X0118977Y0240950D01*
X0118977Y0245087D02*
X0122080Y0245087D01*
X0123114Y0244053D01*
X0123114Y0240950D01*
X0125423Y0241984D02*
X0126457Y0243018D01*
X0129560Y0243018D01*
X0129560Y0244053D02*
X0129560Y0240950D01*
X0126457Y0240950D01*
X0125423Y0241984D01*
X0126457Y0245087D02*
X0128525Y0245087D01*
X0129560Y0244053D01*
X0131868Y0245087D02*
X0131868Y0240950D01*
X0131868Y0245087D02*
X0134971Y0245087D01*
X0136005Y0244053D01*
X0136005Y0240950D01*
X0138314Y0241984D02*
X0139348Y0240950D01*
X0142451Y0240950D01*
X0144759Y0241984D02*
X0144759Y0244053D01*
X0145793Y0245087D01*
X0147862Y0245087D01*
X0148896Y0244053D01*
X0148896Y0243018D01*
X0144759Y0243018D01*
X0144759Y0241984D02*
X0145793Y0240950D01*
X0147862Y0240950D01*
X0142451Y0245087D02*
X0139348Y0245087D01*
X0138314Y0244053D01*
X0138314Y0241984D01*
X0173195Y0230905D02*
X0173195Y0224700D01*
X0177332Y0224700D02*
X0177332Y0230905D01*
X0175264Y0228837D01*
X0173195Y0230905D01*
X0179641Y0227803D02*
X0179641Y0225734D01*
X0180675Y0224700D01*
X0182743Y0224700D01*
X0183778Y0225734D01*
X0183778Y0227803D01*
X0182743Y0228837D01*
X0180675Y0228837D01*
X0179641Y0227803D01*
X0186086Y0227803D02*
X0186086Y0225734D01*
X0187120Y0224700D01*
X0190223Y0224700D01*
X0190223Y0230905D01*
X0190223Y0228837D02*
X0187120Y0228837D01*
X0186086Y0227803D01*
X0192532Y0228837D02*
X0192532Y0225734D01*
X0193566Y0224700D01*
X0196669Y0224700D01*
X0196669Y0228837D01*
X0198977Y0230905D02*
X0200011Y0230905D01*
X0200011Y0224700D01*
X0198977Y0224700D02*
X0201046Y0224700D01*
X0203274Y0225734D02*
X0204308Y0226768D01*
X0207411Y0226768D01*
X0207411Y0227803D02*
X0207411Y0224700D01*
X0204308Y0224700D01*
X0203274Y0225734D01*
X0204308Y0228837D02*
X0206377Y0228837D01*
X0207411Y0227803D01*
X0209720Y0228837D02*
X0211788Y0228837D01*
X0210754Y0229871D02*
X0210754Y0225734D01*
X0211788Y0224700D01*
X0214017Y0224700D02*
X0216085Y0224700D01*
X0215051Y0224700D02*
X0215051Y0228837D01*
X0214017Y0228837D01*
X0215051Y0230905D02*
X0215051Y0231940D01*
X0218314Y0227803D02*
X0218314Y0225734D01*
X0219348Y0224700D01*
X0221416Y0224700D01*
X0222451Y0225734D01*
X0222451Y0227803D01*
X0221416Y0228837D01*
X0219348Y0228837D01*
X0218314Y0227803D01*
X0224759Y0228837D02*
X0224759Y0224700D01*
X0224759Y0228837D02*
X0227862Y0228837D01*
X0228896Y0227803D01*
X0228896Y0224700D01*
X0252410Y0241800D02*
X0252412Y0241969D01*
X0252418Y0242138D01*
X0252429Y0242307D01*
X0252443Y0242475D01*
X0252462Y0242643D01*
X0252485Y0242811D01*
X0252511Y0242978D01*
X0252542Y0243144D01*
X0252577Y0243310D01*
X0252616Y0243474D01*
X0252660Y0243638D01*
X0252707Y0243800D01*
X0252758Y0243961D01*
X0252813Y0244121D01*
X0252872Y0244280D01*
X0252934Y0244437D01*
X0253001Y0244592D01*
X0253072Y0244746D01*
X0253146Y0244898D01*
X0253224Y0245048D01*
X0253305Y0245196D01*
X0253390Y0245342D01*
X0253479Y0245486D01*
X0253571Y0245628D01*
X0253667Y0245767D01*
X0253766Y0245904D01*
X0253868Y0246039D01*
X0253974Y0246171D01*
X0254083Y0246300D01*
X0254195Y0246427D01*
X0254310Y0246551D01*
X0254428Y0246672D01*
X0254549Y0246790D01*
X0254673Y0246905D01*
X0254800Y0247017D01*
X0254929Y0247126D01*
X0255061Y0247232D01*
X0255196Y0247334D01*
X0255333Y0247433D01*
X0255472Y0247529D01*
X0255614Y0247621D01*
X0255758Y0247710D01*
X0255904Y0247795D01*
X0256052Y0247876D01*
X0256202Y0247954D01*
X0256354Y0248028D01*
X0256508Y0248099D01*
X0256663Y0248166D01*
X0256820Y0248228D01*
X0256979Y0248287D01*
X0257139Y0248342D01*
X0257300Y0248393D01*
X0257462Y0248440D01*
X0257626Y0248484D01*
X0257790Y0248523D01*
X0257956Y0248558D01*
X0258122Y0248589D01*
X0258289Y0248615D01*
X0258457Y0248638D01*
X0258625Y0248657D01*
X0258793Y0248671D01*
X0258962Y0248682D01*
X0259131Y0248688D01*
X0259300Y0248690D01*
X0259469Y0248688D01*
X0259638Y0248682D01*
X0259807Y0248671D01*
X0259975Y0248657D01*
X0260143Y0248638D01*
X0260311Y0248615D01*
X0260478Y0248589D01*
X0260644Y0248558D01*
X0260810Y0248523D01*
X0260974Y0248484D01*
X0261138Y0248440D01*
X0261300Y0248393D01*
X0261461Y0248342D01*
X0261621Y0248287D01*
X0261780Y0248228D01*
X0261937Y0248166D01*
X0262092Y0248099D01*
X0262246Y0248028D01*
X0262398Y0247954D01*
X0262548Y0247876D01*
X0262696Y0247795D01*
X0262842Y0247710D01*
X0262986Y0247621D01*
X0263128Y0247529D01*
X0263267Y0247433D01*
X0263404Y0247334D01*
X0263539Y0247232D01*
X0263671Y0247126D01*
X0263800Y0247017D01*
X0263927Y0246905D01*
X0264051Y0246790D01*
X0264172Y0246672D01*
X0264290Y0246551D01*
X0264405Y0246427D01*
X0264517Y0246300D01*
X0264626Y0246171D01*
X0264732Y0246039D01*
X0264834Y0245904D01*
X0264933Y0245767D01*
X0265029Y0245628D01*
X0265121Y0245486D01*
X0265210Y0245342D01*
X0265295Y0245196D01*
X0265376Y0245048D01*
X0265454Y0244898D01*
X0265528Y0244746D01*
X0265599Y0244592D01*
X0265666Y0244437D01*
X0265728Y0244280D01*
X0265787Y0244121D01*
X0265842Y0243961D01*
X0265893Y0243800D01*
X0265940Y0243638D01*
X0265984Y0243474D01*
X0266023Y0243310D01*
X0266058Y0243144D01*
X0266089Y0242978D01*
X0266115Y0242811D01*
X0266138Y0242643D01*
X0266157Y0242475D01*
X0266171Y0242307D01*
X0266182Y0242138D01*
X0266188Y0241969D01*
X0266190Y0241800D01*
X0266188Y0241631D01*
X0266182Y0241462D01*
X0266171Y0241293D01*
X0266157Y0241125D01*
X0266138Y0240957D01*
X0266115Y0240789D01*
X0266089Y0240622D01*
X0266058Y0240456D01*
X0266023Y0240290D01*
X0265984Y0240126D01*
X0265940Y0239962D01*
X0265893Y0239800D01*
X0265842Y0239639D01*
X0265787Y0239479D01*
X0265728Y0239320D01*
X0265666Y0239163D01*
X0265599Y0239008D01*
X0265528Y0238854D01*
X0265454Y0238702D01*
X0265376Y0238552D01*
X0265295Y0238404D01*
X0265210Y0238258D01*
X0265121Y0238114D01*
X0265029Y0237972D01*
X0264933Y0237833D01*
X0264834Y0237696D01*
X0264732Y0237561D01*
X0264626Y0237429D01*
X0264517Y0237300D01*
X0264405Y0237173D01*
X0264290Y0237049D01*
X0264172Y0236928D01*
X0264051Y0236810D01*
X0263927Y0236695D01*
X0263800Y0236583D01*
X0263671Y0236474D01*
X0263539Y0236368D01*
X0263404Y0236266D01*
X0263267Y0236167D01*
X0263128Y0236071D01*
X0262986Y0235979D01*
X0262842Y0235890D01*
X0262696Y0235805D01*
X0262548Y0235724D01*
X0262398Y0235646D01*
X0262246Y0235572D01*
X0262092Y0235501D01*
X0261937Y0235434D01*
X0261780Y0235372D01*
X0261621Y0235313D01*
X0261461Y0235258D01*
X0261300Y0235207D01*
X0261138Y0235160D01*
X0260974Y0235116D01*
X0260810Y0235077D01*
X0260644Y0235042D01*
X0260478Y0235011D01*
X0260311Y0234985D01*
X0260143Y0234962D01*
X0259975Y0234943D01*
X0259807Y0234929D01*
X0259638Y0234918D01*
X0259469Y0234912D01*
X0259300Y0234910D01*
X0259131Y0234912D01*
X0258962Y0234918D01*
X0258793Y0234929D01*
X0258625Y0234943D01*
X0258457Y0234962D01*
X0258289Y0234985D01*
X0258122Y0235011D01*
X0257956Y0235042D01*
X0257790Y0235077D01*
X0257626Y0235116D01*
X0257462Y0235160D01*
X0257300Y0235207D01*
X0257139Y0235258D01*
X0256979Y0235313D01*
X0256820Y0235372D01*
X0256663Y0235434D01*
X0256508Y0235501D01*
X0256354Y0235572D01*
X0256202Y0235646D01*
X0256052Y0235724D01*
X0255904Y0235805D01*
X0255758Y0235890D01*
X0255614Y0235979D01*
X0255472Y0236071D01*
X0255333Y0236167D01*
X0255196Y0236266D01*
X0255061Y0236368D01*
X0254929Y0236474D01*
X0254800Y0236583D01*
X0254673Y0236695D01*
X0254549Y0236810D01*
X0254428Y0236928D01*
X0254310Y0237049D01*
X0254195Y0237173D01*
X0254083Y0237300D01*
X0253974Y0237429D01*
X0253868Y0237561D01*
X0253766Y0237696D01*
X0253667Y0237833D01*
X0253571Y0237972D01*
X0253479Y0238114D01*
X0253390Y0238258D01*
X0253305Y0238404D01*
X0253224Y0238552D01*
X0253146Y0238702D01*
X0253072Y0238854D01*
X0253001Y0239008D01*
X0252934Y0239163D01*
X0252872Y0239320D01*
X0252813Y0239479D01*
X0252758Y0239639D01*
X0252707Y0239800D01*
X0252660Y0239962D01*
X0252616Y0240126D01*
X0252577Y0240290D01*
X0252542Y0240456D01*
X0252511Y0240622D01*
X0252485Y0240789D01*
X0252462Y0240957D01*
X0252443Y0241125D01*
X0252429Y0241293D01*
X0252418Y0241462D01*
X0252412Y0241631D01*
X0252410Y0241800D01*
X0269846Y0277200D02*
X0273983Y0277200D01*
X0276292Y0278234D02*
X0276292Y0280303D01*
X0277326Y0281337D01*
X0279394Y0281337D01*
X0280428Y0280303D01*
X0280428Y0279268D01*
X0276292Y0279268D01*
X0276292Y0278234D02*
X0277326Y0277200D01*
X0279394Y0277200D01*
X0282737Y0277200D02*
X0282737Y0281337D01*
X0284806Y0281337D02*
X0285840Y0281337D01*
X0284806Y0281337D02*
X0282737Y0279268D01*
X0288108Y0280303D02*
X0288108Y0278234D01*
X0289143Y0277200D01*
X0291211Y0277200D01*
X0292245Y0278234D01*
X0292245Y0280303D01*
X0291211Y0281337D01*
X0289143Y0281337D01*
X0288108Y0280303D01*
X0282391Y0293253D02*
X0321209Y0293253D01*
X0321209Y0307902D01*
X0321209Y0320753D02*
X0321209Y0340678D01*
X0321091Y0340678D02*
X0315973Y0340678D01*
X0307312Y0340678D02*
X0306131Y0340678D01*
X0297469Y0340678D02*
X0296288Y0340678D01*
X0287627Y0340678D02*
X0282391Y0340678D01*
X0282391Y0320757D01*
X0282391Y0307902D02*
X0282391Y0293253D01*
X0273983Y0283405D02*
X0273983Y0282371D01*
X0269846Y0278234D01*
X0269846Y0277200D01*
X0269846Y0283405D02*
X0273983Y0283405D01*
X0240087Y0293882D02*
X0240087Y0300087D01*
X0236984Y0300087D01*
X0235950Y0299053D01*
X0235950Y0296984D01*
X0236984Y0295950D01*
X0240087Y0295950D01*
X0233641Y0296984D02*
X0232607Y0295950D01*
X0230539Y0295950D01*
X0229505Y0296984D01*
X0230539Y0299053D02*
X0232607Y0299053D01*
X0233641Y0298018D01*
X0233641Y0296984D01*
X0230539Y0299053D02*
X0229505Y0300087D01*
X0229505Y0301121D01*
X0230539Y0302155D01*
X0232607Y0302155D01*
X0233641Y0301121D01*
X0239694Y0305737D02*
X0239694Y0322863D01*
X0203906Y0322863D01*
X0203906Y0305737D01*
X0239694Y0305737D01*
X0215744Y0303190D02*
X0215744Y0302155D01*
X0215744Y0300087D02*
X0215744Y0295950D01*
X0214710Y0295950D02*
X0216778Y0295950D01*
X0215744Y0300087D02*
X0214710Y0300087D01*
X0212441Y0300087D02*
X0211407Y0300087D01*
X0209339Y0298018D01*
X0209339Y0295950D02*
X0209339Y0300087D01*
X0207030Y0302155D02*
X0202893Y0302155D01*
X0204962Y0302155D02*
X0204962Y0295950D01*
X0169560Y0281337D02*
X0165423Y0277200D01*
X0163114Y0277200D02*
X0160011Y0277200D01*
X0158977Y0278234D01*
X0160011Y0279268D01*
X0163114Y0279268D01*
X0163114Y0280303D02*
X0163114Y0277200D01*
X0163114Y0280303D02*
X0162080Y0281337D01*
X0160011Y0281337D01*
X0156669Y0283405D02*
X0156669Y0277200D01*
X0152532Y0277200D02*
X0152532Y0283405D01*
X0154600Y0281337D01*
X0156669Y0283405D01*
X0165423Y0281337D02*
X0169560Y0277200D01*
X0161209Y0293253D02*
X0122391Y0293253D01*
X0122391Y0307902D01*
X0122391Y0320757D02*
X0122391Y0340678D01*
X0127627Y0340678D01*
X0136288Y0340678D02*
X0137469Y0340678D01*
X0146131Y0340678D02*
X0147312Y0340678D01*
X0155973Y0340678D02*
X0161091Y0340678D01*
X0161209Y0340678D02*
X0161209Y0320753D01*
X0161209Y0307902D02*
X0161209Y0293253D01*
X0132245Y0280303D02*
X0132245Y0278234D01*
X0131211Y0277200D01*
X0129143Y0277200D01*
X0128108Y0278234D01*
X0128108Y0280303D01*
X0129143Y0281337D01*
X0131211Y0281337D01*
X0132245Y0280303D01*
X0125840Y0281337D02*
X0124806Y0281337D01*
X0122737Y0279268D01*
X0122737Y0277200D02*
X0122737Y0281337D01*
X0120428Y0280303D02*
X0120428Y0279268D01*
X0116292Y0279268D01*
X0116292Y0278234D02*
X0116292Y0280303D01*
X0117326Y0281337D01*
X0119394Y0281337D01*
X0120428Y0280303D01*
X0119394Y0277200D02*
X0117326Y0277200D01*
X0116292Y0278234D01*
X0113983Y0277200D02*
X0109846Y0277200D01*
X0109846Y0278234D01*
X0113983Y0282371D01*
X0113983Y0283405D01*
X0109846Y0283405D01*
X0071708Y0280303D02*
X0071708Y0277200D01*
X0071708Y0280303D02*
X0070674Y0281337D01*
X0068605Y0281337D01*
X0067571Y0280303D01*
X0065263Y0281337D02*
X0062160Y0281337D01*
X0061126Y0280303D01*
X0061126Y0278234D01*
X0062160Y0277200D01*
X0065263Y0277200D01*
X0065263Y0276166D02*
X0065263Y0281337D01*
X0067571Y0283405D02*
X0067571Y0277200D01*
X0065263Y0276166D02*
X0064228Y0275132D01*
X0063194Y0275132D01*
X0058897Y0277200D02*
X0056829Y0277200D01*
X0057863Y0277200D02*
X0057863Y0281337D01*
X0056829Y0281337D01*
X0057863Y0283405D02*
X0057863Y0284440D01*
X0054520Y0283405D02*
X0054520Y0277200D01*
X0054520Y0280303D02*
X0050383Y0280303D01*
X0050383Y0283405D02*
X0050383Y0277200D01*
X0061209Y0293253D02*
X0022391Y0293253D01*
X0022391Y0307902D01*
X0022391Y0320757D02*
X0022391Y0340678D01*
X0027627Y0340678D01*
X0036288Y0340678D02*
X0037469Y0340678D01*
X0046131Y0340678D02*
X0047312Y0340678D01*
X0055973Y0340678D02*
X0061091Y0340678D01*
X0061209Y0340678D02*
X0061209Y0320753D01*
X0061209Y0307902D02*
X0061209Y0293253D01*
X0029560Y0281337D02*
X0029560Y0278234D01*
X0028525Y0277200D01*
X0027491Y0278234D01*
X0026457Y0277200D01*
X0025423Y0278234D01*
X0025423Y0281337D01*
X0023114Y0280303D02*
X0023114Y0278234D01*
X0022080Y0277200D01*
X0020011Y0277200D01*
X0018977Y0278234D01*
X0018977Y0280303D01*
X0020011Y0281337D01*
X0022080Y0281337D01*
X0023114Y0280303D01*
X0016669Y0277200D02*
X0012532Y0277200D01*
X0012532Y0283405D01*
X0013732Y0230905D02*
X0017869Y0230905D01*
X0020178Y0228837D02*
X0020178Y0224700D01*
X0020178Y0226768D02*
X0022246Y0228837D01*
X0023280Y0228837D01*
X0025549Y0227803D02*
X0025549Y0225734D01*
X0026583Y0224700D01*
X0028652Y0224700D01*
X0029686Y0226768D02*
X0025549Y0226768D01*
X0025549Y0227803D02*
X0026583Y0228837D01*
X0028652Y0228837D01*
X0029686Y0227803D01*
X0029686Y0226768D01*
X0031995Y0225734D02*
X0033029Y0224700D01*
X0036131Y0224700D01*
X0036131Y0222632D02*
X0036131Y0228837D01*
X0033029Y0228837D01*
X0031995Y0227803D01*
X0031995Y0225734D01*
X0038440Y0225734D02*
X0038440Y0228837D01*
X0038440Y0225734D02*
X0039474Y0224700D01*
X0042577Y0224700D01*
X0042577Y0228837D01*
X0044886Y0227803D02*
X0044886Y0225734D01*
X0045920Y0224700D01*
X0047988Y0224700D01*
X0049022Y0226768D02*
X0044886Y0226768D01*
X0044886Y0227803D02*
X0045920Y0228837D01*
X0047988Y0228837D01*
X0049022Y0227803D01*
X0049022Y0226768D01*
X0051331Y0224700D02*
X0051331Y0228837D01*
X0054434Y0228837D01*
X0055468Y0227803D01*
X0055468Y0224700D01*
X0057777Y0225734D02*
X0057777Y0227803D01*
X0058811Y0228837D01*
X0061913Y0228837D01*
X0064222Y0228837D02*
X0064222Y0225734D01*
X0065256Y0224700D01*
X0068359Y0224700D01*
X0068359Y0223666D02*
X0067325Y0222632D01*
X0066291Y0222632D01*
X0068359Y0223666D02*
X0068359Y0228837D01*
X0061913Y0224700D02*
X0058811Y0224700D01*
X0057777Y0225734D01*
X0015801Y0227803D02*
X0013732Y0227803D01*
X0013732Y0230905D02*
X0013732Y0224700D01*
X0131380Y0217371D02*
X0131380Y0213234D01*
X0132414Y0212200D01*
X0134482Y0212200D01*
X0135516Y0213234D01*
X0135516Y0217371D01*
X0134482Y0218405D01*
X0132414Y0218405D01*
X0131380Y0217371D01*
X0137825Y0216337D02*
X0137825Y0212200D01*
X0141962Y0212200D02*
X0141962Y0215303D01*
X0140928Y0216337D01*
X0137825Y0216337D01*
X0312532Y0277200D02*
X0312532Y0283405D01*
X0314600Y0281337D01*
X0316669Y0283405D01*
X0316669Y0277200D01*
X0318977Y0278234D02*
X0320011Y0279268D01*
X0323114Y0279268D01*
X0323114Y0280303D02*
X0323114Y0277200D01*
X0320011Y0277200D01*
X0318977Y0278234D01*
X0320011Y0281337D02*
X0322080Y0281337D01*
X0323114Y0280303D01*
X0325423Y0281337D02*
X0329560Y0277200D01*
X0325423Y0277200D02*
X0329560Y0281337D01*
X0364962Y0295950D02*
X0364962Y0302155D01*
X0367030Y0302155D02*
X0362893Y0302155D01*
X0363906Y0305737D02*
X0399694Y0305737D01*
X0399694Y0322863D01*
X0363906Y0322863D01*
X0363906Y0305737D01*
X0369339Y0300087D02*
X0369339Y0295950D01*
X0369339Y0298018D02*
X0371407Y0300087D01*
X0372441Y0300087D01*
X0374710Y0300087D02*
X0375744Y0300087D01*
X0375744Y0295950D01*
X0374710Y0295950D02*
X0376778Y0295950D01*
X0375744Y0302155D02*
X0375744Y0303190D01*
X0390755Y0301121D02*
X0390755Y0300087D01*
X0391789Y0299053D01*
X0393857Y0299053D01*
X0394891Y0298018D01*
X0394891Y0296984D01*
X0393857Y0295950D01*
X0391789Y0295950D01*
X0390755Y0296984D01*
X0390755Y0301121D02*
X0391789Y0302155D01*
X0393857Y0302155D01*
X0394891Y0301121D01*
X0397200Y0299053D02*
X0398234Y0300087D01*
X0401337Y0300087D01*
X0401337Y0293882D01*
X0401337Y0295950D02*
X0398234Y0295950D01*
X0397200Y0296984D01*
X0397200Y0299053D01*
X0429846Y0283405D02*
X0433983Y0283405D01*
X0433983Y0282371D01*
X0429846Y0278234D01*
X0429846Y0277200D01*
X0433983Y0277200D01*
X0436292Y0278234D02*
X0436292Y0280303D01*
X0437326Y0281337D01*
X0439394Y0281337D01*
X0440428Y0280303D01*
X0440428Y0279268D01*
X0436292Y0279268D01*
X0436292Y0278234D02*
X0437326Y0277200D01*
X0439394Y0277200D01*
X0442737Y0277200D02*
X0442737Y0281337D01*
X0442737Y0279268D02*
X0444806Y0281337D01*
X0445840Y0281337D01*
X0448108Y0280303D02*
X0448108Y0278234D01*
X0449143Y0277200D01*
X0451211Y0277200D01*
X0452245Y0278234D01*
X0452245Y0280303D01*
X0451211Y0281337D01*
X0449143Y0281337D01*
X0448108Y0280303D01*
X0442391Y0293253D02*
X0481209Y0293253D01*
X0481209Y0307902D01*
X0481209Y0320753D02*
X0481209Y0340678D01*
X0481091Y0340678D02*
X0475973Y0340678D01*
X0467312Y0340678D02*
X0466131Y0340678D01*
X0457469Y0340678D02*
X0456288Y0340678D01*
X0447627Y0340678D02*
X0442391Y0340678D01*
X0442391Y0320757D01*
X0442391Y0307902D02*
X0442391Y0293253D01*
X0472532Y0283405D02*
X0472532Y0277200D01*
X0476669Y0277200D02*
X0476669Y0283405D01*
X0474600Y0281337D01*
X0472532Y0283405D01*
X0480011Y0281337D02*
X0482080Y0281337D01*
X0483114Y0280303D01*
X0483114Y0277200D01*
X0480011Y0277200D01*
X0478977Y0278234D01*
X0480011Y0279268D01*
X0483114Y0279268D01*
X0485423Y0277200D02*
X0489560Y0281337D01*
X0485423Y0281337D02*
X0489560Y0277200D01*
X0549846Y0277200D02*
X0553983Y0277200D01*
X0556292Y0278234D02*
X0556292Y0280303D01*
X0557326Y0281337D01*
X0559394Y0281337D01*
X0560428Y0280303D01*
X0560428Y0279268D01*
X0556292Y0279268D01*
X0556292Y0278234D02*
X0557326Y0277200D01*
X0559394Y0277200D01*
X0562737Y0277200D02*
X0562737Y0281337D01*
X0564806Y0281337D02*
X0565840Y0281337D01*
X0564806Y0281337D02*
X0562737Y0279268D01*
X0568108Y0280303D02*
X0568108Y0278234D01*
X0569143Y0277200D01*
X0571211Y0277200D01*
X0572245Y0278234D01*
X0572245Y0280303D01*
X0571211Y0281337D01*
X0569143Y0281337D01*
X0568108Y0280303D01*
X0562391Y0293253D02*
X0601209Y0293253D01*
X0601209Y0307902D01*
X0601209Y0320753D02*
X0601209Y0340678D01*
X0601091Y0340678D02*
X0595973Y0340678D01*
X0587312Y0340678D02*
X0586131Y0340678D01*
X0577469Y0340678D02*
X0576288Y0340678D01*
X0567627Y0340678D02*
X0562391Y0340678D01*
X0562391Y0320757D01*
X0562391Y0307902D02*
X0562391Y0293253D01*
X0553983Y0283405D02*
X0553983Y0282371D01*
X0549846Y0278234D01*
X0549846Y0277200D01*
X0549846Y0283405D02*
X0553983Y0283405D01*
X0592532Y0283405D02*
X0592532Y0277200D01*
X0596669Y0277200D02*
X0596669Y0283405D01*
X0594600Y0281337D01*
X0592532Y0283405D01*
X0600011Y0281337D02*
X0602080Y0281337D01*
X0603114Y0280303D01*
X0603114Y0277200D01*
X0600011Y0277200D01*
X0598977Y0278234D01*
X0600011Y0279268D01*
X0603114Y0279268D01*
X0605423Y0277200D02*
X0609560Y0281337D01*
X0605423Y0281337D02*
X0609560Y0277200D01*
X0593977Y0230905D02*
X0593977Y0224700D01*
X0595011Y0224700D02*
X0592942Y0224700D01*
X0590634Y0226768D02*
X0586497Y0226768D01*
X0586497Y0225734D02*
X0586497Y0227803D01*
X0587531Y0228837D01*
X0589600Y0228837D01*
X0590634Y0227803D01*
X0590634Y0226768D01*
X0589600Y0224700D02*
X0587531Y0224700D01*
X0586497Y0225734D01*
X0584188Y0228837D02*
X0582120Y0224700D01*
X0580051Y0228837D01*
X0577743Y0227803D02*
X0577743Y0226768D01*
X0573606Y0226768D01*
X0573606Y0225734D02*
X0573606Y0227803D01*
X0574640Y0228837D01*
X0576709Y0228837D01*
X0577743Y0227803D01*
X0576709Y0224700D02*
X0574640Y0224700D01*
X0573606Y0225734D01*
X0571297Y0224700D02*
X0567160Y0224700D01*
X0567160Y0230905D01*
X0567627Y0215678D02*
X0562391Y0215678D01*
X0562391Y0195757D01*
X0562391Y0182902D02*
X0562391Y0168253D01*
X0601209Y0168253D01*
X0601209Y0182902D01*
X0601209Y0195753D02*
X0601209Y0215678D01*
X0601091Y0215678D02*
X0595973Y0215678D01*
X0587312Y0215678D02*
X0586131Y0215678D01*
X0577469Y0215678D02*
X0576288Y0215678D01*
X0592942Y0230905D02*
X0593977Y0230905D01*
X0508896Y0227803D02*
X0508896Y0224700D01*
X0508896Y0227803D02*
X0507862Y0228837D01*
X0504759Y0228837D01*
X0504759Y0224700D01*
X0502451Y0225734D02*
X0502451Y0227803D01*
X0501416Y0228837D01*
X0499348Y0228837D01*
X0498314Y0227803D01*
X0498314Y0225734D01*
X0499348Y0224700D01*
X0501416Y0224700D01*
X0502451Y0225734D01*
X0496085Y0224700D02*
X0494017Y0224700D01*
X0495051Y0224700D02*
X0495051Y0228837D01*
X0494017Y0228837D01*
X0491788Y0228837D02*
X0489720Y0228837D01*
X0490754Y0229871D02*
X0490754Y0225734D01*
X0491788Y0224700D01*
X0487411Y0224700D02*
X0484308Y0224700D01*
X0483274Y0225734D01*
X0484308Y0226768D01*
X0487411Y0226768D01*
X0487411Y0227803D02*
X0487411Y0224700D01*
X0487411Y0227803D02*
X0486377Y0228837D01*
X0484308Y0228837D01*
X0480011Y0230905D02*
X0480011Y0224700D01*
X0478977Y0224700D02*
X0481046Y0224700D01*
X0476669Y0224700D02*
X0476669Y0228837D01*
X0478977Y0230905D02*
X0480011Y0230905D01*
X0472532Y0228837D02*
X0472532Y0225734D01*
X0473566Y0224700D01*
X0476669Y0224700D01*
X0470223Y0224700D02*
X0467120Y0224700D01*
X0466086Y0225734D01*
X0466086Y0227803D01*
X0467120Y0228837D01*
X0470223Y0228837D01*
X0470223Y0230905D02*
X0470223Y0224700D01*
X0463778Y0225734D02*
X0463778Y0227803D01*
X0462743Y0228837D01*
X0460675Y0228837D01*
X0459641Y0227803D01*
X0459641Y0225734D01*
X0460675Y0224700D01*
X0462743Y0224700D01*
X0463778Y0225734D01*
X0457332Y0224700D02*
X0457332Y0230905D01*
X0455264Y0228837D01*
X0453195Y0230905D01*
X0453195Y0224700D01*
X0462391Y0215678D02*
X0462391Y0195757D01*
X0462391Y0182902D02*
X0462391Y0168253D01*
X0501209Y0168253D01*
X0501209Y0182902D01*
X0501209Y0195753D02*
X0501209Y0215678D01*
X0501091Y0215678D02*
X0495973Y0215678D01*
X0487312Y0215678D02*
X0486131Y0215678D01*
X0477469Y0215678D02*
X0476288Y0215678D01*
X0467627Y0215678D02*
X0462391Y0215678D01*
X0495051Y0230905D02*
X0495051Y0231940D01*
X0418691Y0205303D02*
X0418691Y0204268D01*
X0414554Y0204268D01*
X0414554Y0203234D02*
X0414554Y0205303D01*
X0415588Y0206337D01*
X0417656Y0206337D01*
X0418691Y0205303D01*
X0417656Y0202200D02*
X0415588Y0202200D01*
X0414554Y0203234D01*
X0412245Y0202200D02*
X0409143Y0202200D01*
X0408108Y0203234D01*
X0408108Y0205303D01*
X0409143Y0206337D01*
X0412245Y0206337D01*
X0405840Y0206337D02*
X0404806Y0206337D01*
X0402737Y0204268D01*
X0402737Y0202200D02*
X0402737Y0206337D01*
X0400428Y0206337D02*
X0400428Y0202200D01*
X0397326Y0202200D01*
X0396292Y0203234D01*
X0396292Y0206337D01*
X0393983Y0205303D02*
X0392949Y0206337D01*
X0390880Y0206337D01*
X0389846Y0205303D01*
X0389846Y0203234D01*
X0390880Y0202200D01*
X0392949Y0202200D01*
X0393983Y0203234D01*
X0393983Y0205303D01*
X0387537Y0204268D02*
X0387537Y0203234D01*
X0386503Y0202200D01*
X0384435Y0202200D01*
X0383401Y0203234D01*
X0384435Y0205303D02*
X0386503Y0205303D01*
X0387537Y0204268D01*
X0387537Y0207371D02*
X0386503Y0208405D01*
X0384435Y0208405D01*
X0383401Y0207371D01*
X0383401Y0206337D01*
X0384435Y0205303D01*
X0383906Y0197863D02*
X0419694Y0197863D01*
X0419694Y0180737D01*
X0383906Y0180737D01*
X0383906Y0197863D01*
X0383807Y0178405D02*
X0379670Y0178405D01*
X0379670Y0172200D01*
X0383807Y0172200D01*
X0386116Y0172200D02*
X0386116Y0176337D01*
X0389219Y0176337D01*
X0390253Y0175303D01*
X0390253Y0172200D01*
X0394630Y0172200D02*
X0392561Y0176337D01*
X0396698Y0176337D02*
X0394630Y0172200D01*
X0399007Y0172200D02*
X0400041Y0172200D01*
X0400041Y0173234D01*
X0399007Y0173234D01*
X0399007Y0172200D01*
X0406532Y0172200D02*
X0406532Y0178405D01*
X0412977Y0178405D02*
X0417114Y0178405D01*
X0419423Y0177371D02*
X0419423Y0173234D01*
X0420457Y0172200D01*
X0422525Y0172200D01*
X0423560Y0173234D01*
X0423560Y0177371D01*
X0422525Y0178405D01*
X0420457Y0178405D01*
X0419423Y0177371D01*
X0415046Y0175303D02*
X0412977Y0175303D01*
X0412977Y0178405D02*
X0412977Y0172200D01*
X0410669Y0172200D02*
X0406532Y0172200D01*
X0419694Y0160363D02*
X0383906Y0160363D01*
X0383906Y0143237D01*
X0419694Y0143237D01*
X0419694Y0160363D01*
X0412607Y0139655D02*
X0410539Y0139655D01*
X0409505Y0138621D01*
X0409505Y0137587D01*
X0410539Y0136553D01*
X0412607Y0136553D01*
X0413641Y0135518D01*
X0413641Y0134484D01*
X0412607Y0133450D01*
X0410539Y0133450D01*
X0409505Y0134484D01*
X0413641Y0138621D02*
X0412607Y0139655D01*
X0415950Y0136553D02*
X0415950Y0134484D01*
X0416984Y0133450D01*
X0420087Y0133450D01*
X0420087Y0131382D02*
X0420087Y0137587D01*
X0416984Y0137587D01*
X0415950Y0136553D01*
X0396778Y0133450D02*
X0394710Y0133450D01*
X0395744Y0133450D02*
X0395744Y0137587D01*
X0394710Y0137587D01*
X0392441Y0137587D02*
X0391407Y0137587D01*
X0389339Y0135518D01*
X0389339Y0133450D02*
X0389339Y0137587D01*
X0387030Y0139655D02*
X0382893Y0139655D01*
X0384962Y0139655D02*
X0384962Y0133450D01*
X0395744Y0139655D02*
X0395744Y0140690D01*
X0357410Y0136800D02*
X0357412Y0136969D01*
X0357418Y0137138D01*
X0357429Y0137307D01*
X0357443Y0137475D01*
X0357462Y0137643D01*
X0357485Y0137811D01*
X0357511Y0137978D01*
X0357542Y0138144D01*
X0357577Y0138310D01*
X0357616Y0138474D01*
X0357660Y0138638D01*
X0357707Y0138800D01*
X0357758Y0138961D01*
X0357813Y0139121D01*
X0357872Y0139280D01*
X0357934Y0139437D01*
X0358001Y0139592D01*
X0358072Y0139746D01*
X0358146Y0139898D01*
X0358224Y0140048D01*
X0358305Y0140196D01*
X0358390Y0140342D01*
X0358479Y0140486D01*
X0358571Y0140628D01*
X0358667Y0140767D01*
X0358766Y0140904D01*
X0358868Y0141039D01*
X0358974Y0141171D01*
X0359083Y0141300D01*
X0359195Y0141427D01*
X0359310Y0141551D01*
X0359428Y0141672D01*
X0359549Y0141790D01*
X0359673Y0141905D01*
X0359800Y0142017D01*
X0359929Y0142126D01*
X0360061Y0142232D01*
X0360196Y0142334D01*
X0360333Y0142433D01*
X0360472Y0142529D01*
X0360614Y0142621D01*
X0360758Y0142710D01*
X0360904Y0142795D01*
X0361052Y0142876D01*
X0361202Y0142954D01*
X0361354Y0143028D01*
X0361508Y0143099D01*
X0361663Y0143166D01*
X0361820Y0143228D01*
X0361979Y0143287D01*
X0362139Y0143342D01*
X0362300Y0143393D01*
X0362462Y0143440D01*
X0362626Y0143484D01*
X0362790Y0143523D01*
X0362956Y0143558D01*
X0363122Y0143589D01*
X0363289Y0143615D01*
X0363457Y0143638D01*
X0363625Y0143657D01*
X0363793Y0143671D01*
X0363962Y0143682D01*
X0364131Y0143688D01*
X0364300Y0143690D01*
X0364469Y0143688D01*
X0364638Y0143682D01*
X0364807Y0143671D01*
X0364975Y0143657D01*
X0365143Y0143638D01*
X0365311Y0143615D01*
X0365478Y0143589D01*
X0365644Y0143558D01*
X0365810Y0143523D01*
X0365974Y0143484D01*
X0366138Y0143440D01*
X0366300Y0143393D01*
X0366461Y0143342D01*
X0366621Y0143287D01*
X0366780Y0143228D01*
X0366937Y0143166D01*
X0367092Y0143099D01*
X0367246Y0143028D01*
X0367398Y0142954D01*
X0367548Y0142876D01*
X0367696Y0142795D01*
X0367842Y0142710D01*
X0367986Y0142621D01*
X0368128Y0142529D01*
X0368267Y0142433D01*
X0368404Y0142334D01*
X0368539Y0142232D01*
X0368671Y0142126D01*
X0368800Y0142017D01*
X0368927Y0141905D01*
X0369051Y0141790D01*
X0369172Y0141672D01*
X0369290Y0141551D01*
X0369405Y0141427D01*
X0369517Y0141300D01*
X0369626Y0141171D01*
X0369732Y0141039D01*
X0369834Y0140904D01*
X0369933Y0140767D01*
X0370029Y0140628D01*
X0370121Y0140486D01*
X0370210Y0140342D01*
X0370295Y0140196D01*
X0370376Y0140048D01*
X0370454Y0139898D01*
X0370528Y0139746D01*
X0370599Y0139592D01*
X0370666Y0139437D01*
X0370728Y0139280D01*
X0370787Y0139121D01*
X0370842Y0138961D01*
X0370893Y0138800D01*
X0370940Y0138638D01*
X0370984Y0138474D01*
X0371023Y0138310D01*
X0371058Y0138144D01*
X0371089Y0137978D01*
X0371115Y0137811D01*
X0371138Y0137643D01*
X0371157Y0137475D01*
X0371171Y0137307D01*
X0371182Y0137138D01*
X0371188Y0136969D01*
X0371190Y0136800D01*
X0371188Y0136631D01*
X0371182Y0136462D01*
X0371171Y0136293D01*
X0371157Y0136125D01*
X0371138Y0135957D01*
X0371115Y0135789D01*
X0371089Y0135622D01*
X0371058Y0135456D01*
X0371023Y0135290D01*
X0370984Y0135126D01*
X0370940Y0134962D01*
X0370893Y0134800D01*
X0370842Y0134639D01*
X0370787Y0134479D01*
X0370728Y0134320D01*
X0370666Y0134163D01*
X0370599Y0134008D01*
X0370528Y0133854D01*
X0370454Y0133702D01*
X0370376Y0133552D01*
X0370295Y0133404D01*
X0370210Y0133258D01*
X0370121Y0133114D01*
X0370029Y0132972D01*
X0369933Y0132833D01*
X0369834Y0132696D01*
X0369732Y0132561D01*
X0369626Y0132429D01*
X0369517Y0132300D01*
X0369405Y0132173D01*
X0369290Y0132049D01*
X0369172Y0131928D01*
X0369051Y0131810D01*
X0368927Y0131695D01*
X0368800Y0131583D01*
X0368671Y0131474D01*
X0368539Y0131368D01*
X0368404Y0131266D01*
X0368267Y0131167D01*
X0368128Y0131071D01*
X0367986Y0130979D01*
X0367842Y0130890D01*
X0367696Y0130805D01*
X0367548Y0130724D01*
X0367398Y0130646D01*
X0367246Y0130572D01*
X0367092Y0130501D01*
X0366937Y0130434D01*
X0366780Y0130372D01*
X0366621Y0130313D01*
X0366461Y0130258D01*
X0366300Y0130207D01*
X0366138Y0130160D01*
X0365974Y0130116D01*
X0365810Y0130077D01*
X0365644Y0130042D01*
X0365478Y0130011D01*
X0365311Y0129985D01*
X0365143Y0129962D01*
X0364975Y0129943D01*
X0364807Y0129929D01*
X0364638Y0129918D01*
X0364469Y0129912D01*
X0364300Y0129910D01*
X0364131Y0129912D01*
X0363962Y0129918D01*
X0363793Y0129929D01*
X0363625Y0129943D01*
X0363457Y0129962D01*
X0363289Y0129985D01*
X0363122Y0130011D01*
X0362956Y0130042D01*
X0362790Y0130077D01*
X0362626Y0130116D01*
X0362462Y0130160D01*
X0362300Y0130207D01*
X0362139Y0130258D01*
X0361979Y0130313D01*
X0361820Y0130372D01*
X0361663Y0130434D01*
X0361508Y0130501D01*
X0361354Y0130572D01*
X0361202Y0130646D01*
X0361052Y0130724D01*
X0360904Y0130805D01*
X0360758Y0130890D01*
X0360614Y0130979D01*
X0360472Y0131071D01*
X0360333Y0131167D01*
X0360196Y0131266D01*
X0360061Y0131368D01*
X0359929Y0131474D01*
X0359800Y0131583D01*
X0359673Y0131695D01*
X0359549Y0131810D01*
X0359428Y0131928D01*
X0359310Y0132049D01*
X0359195Y0132173D01*
X0359083Y0132300D01*
X0358974Y0132429D01*
X0358868Y0132561D01*
X0358766Y0132696D01*
X0358667Y0132833D01*
X0358571Y0132972D01*
X0358479Y0133114D01*
X0358390Y0133258D01*
X0358305Y0133404D01*
X0358224Y0133552D01*
X0358146Y0133702D01*
X0358072Y0133854D01*
X0358001Y0134008D01*
X0357934Y0134163D01*
X0357872Y0134320D01*
X0357813Y0134479D01*
X0357758Y0134639D01*
X0357707Y0134800D01*
X0357660Y0134962D01*
X0357616Y0135126D01*
X0357577Y0135290D01*
X0357542Y0135456D01*
X0357511Y0135622D01*
X0357485Y0135789D01*
X0357462Y0135957D01*
X0357443Y0136125D01*
X0357429Y0136293D01*
X0357418Y0136462D01*
X0357412Y0136631D01*
X0357410Y0136800D01*
X0359308Y0104871D02*
X0359308Y0100734D01*
X0360343Y0099700D01*
X0362571Y0100734D02*
X0362571Y0102803D01*
X0363605Y0103837D01*
X0365674Y0103837D01*
X0366708Y0102803D01*
X0366708Y0101768D01*
X0362571Y0101768D01*
X0362571Y0100734D02*
X0363605Y0099700D01*
X0365674Y0099700D01*
X0355966Y0099700D02*
X0355966Y0102803D01*
X0354931Y0103837D01*
X0352863Y0103837D01*
X0352863Y0101768D02*
X0355966Y0101768D01*
X0355966Y0099700D02*
X0352863Y0099700D01*
X0351829Y0100734D01*
X0352863Y0101768D01*
X0349520Y0100734D02*
X0349520Y0102803D01*
X0347452Y0102803D01*
X0349520Y0104871D02*
X0348486Y0105905D01*
X0346417Y0105905D01*
X0345383Y0104871D01*
X0345383Y0100734D01*
X0346417Y0099700D01*
X0348486Y0099700D01*
X0349520Y0100734D01*
X0358274Y0103837D02*
X0360343Y0103837D01*
X0376485Y0087922D02*
X0337115Y0087922D01*
X0336991Y0087920D01*
X0336868Y0087914D01*
X0336744Y0087905D01*
X0336622Y0087891D01*
X0336499Y0087874D01*
X0336377Y0087852D01*
X0336256Y0087827D01*
X0336136Y0087798D01*
X0336017Y0087766D01*
X0335898Y0087729D01*
X0335781Y0087689D01*
X0335666Y0087646D01*
X0335551Y0087598D01*
X0335439Y0087547D01*
X0335328Y0087493D01*
X0335218Y0087435D01*
X0335111Y0087374D01*
X0335005Y0087309D01*
X0334902Y0087241D01*
X0334801Y0087170D01*
X0334702Y0087096D01*
X0334605Y0087019D01*
X0334511Y0086938D01*
X0334420Y0086855D01*
X0334331Y0086769D01*
X0334245Y0086680D01*
X0334162Y0086589D01*
X0334081Y0086495D01*
X0334004Y0086398D01*
X0333930Y0086299D01*
X0333859Y0086198D01*
X0333791Y0086095D01*
X0333726Y0085989D01*
X0333665Y0085882D01*
X0333607Y0085772D01*
X0333553Y0085661D01*
X0333502Y0085549D01*
X0333454Y0085434D01*
X0333411Y0085319D01*
X0333371Y0085202D01*
X0333334Y0085083D01*
X0333302Y0084964D01*
X0333273Y0084844D01*
X0333248Y0084723D01*
X0333226Y0084601D01*
X0333209Y0084478D01*
X0333195Y0084356D01*
X0333186Y0084232D01*
X0333180Y0084109D01*
X0333178Y0083985D01*
X0333178Y0080048D01*
X0333178Y0068237D02*
X0333178Y0060363D01*
X0333178Y0048552D02*
X0333178Y0044615D01*
X0333180Y0044491D01*
X0333186Y0044368D01*
X0333195Y0044244D01*
X0333209Y0044122D01*
X0333226Y0043999D01*
X0333248Y0043877D01*
X0333273Y0043756D01*
X0333302Y0043636D01*
X0333334Y0043517D01*
X0333371Y0043398D01*
X0333411Y0043281D01*
X0333454Y0043166D01*
X0333502Y0043051D01*
X0333553Y0042939D01*
X0333607Y0042828D01*
X0333665Y0042718D01*
X0333726Y0042611D01*
X0333791Y0042505D01*
X0333859Y0042402D01*
X0333930Y0042301D01*
X0334004Y0042202D01*
X0334081Y0042105D01*
X0334162Y0042011D01*
X0334245Y0041920D01*
X0334331Y0041831D01*
X0334420Y0041745D01*
X0334511Y0041662D01*
X0334605Y0041581D01*
X0334702Y0041504D01*
X0334801Y0041430D01*
X0334902Y0041359D01*
X0335005Y0041291D01*
X0335111Y0041226D01*
X0335218Y0041165D01*
X0335328Y0041107D01*
X0335439Y0041053D01*
X0335551Y0041002D01*
X0335666Y0040954D01*
X0335781Y0040911D01*
X0335898Y0040871D01*
X0336017Y0040834D01*
X0336136Y0040802D01*
X0336256Y0040773D01*
X0336377Y0040748D01*
X0336499Y0040726D01*
X0336622Y0040709D01*
X0336744Y0040695D01*
X0336868Y0040686D01*
X0336991Y0040680D01*
X0337115Y0040678D01*
X0376485Y0040678D01*
X0376609Y0040680D01*
X0376732Y0040686D01*
X0376856Y0040695D01*
X0376978Y0040709D01*
X0377101Y0040726D01*
X0377223Y0040748D01*
X0377344Y0040773D01*
X0377464Y0040802D01*
X0377583Y0040834D01*
X0377702Y0040871D01*
X0377819Y0040911D01*
X0377934Y0040954D01*
X0378049Y0041002D01*
X0378161Y0041053D01*
X0378272Y0041107D01*
X0378382Y0041165D01*
X0378489Y0041226D01*
X0378595Y0041291D01*
X0378698Y0041359D01*
X0378799Y0041430D01*
X0378898Y0041504D01*
X0378995Y0041581D01*
X0379089Y0041662D01*
X0379180Y0041745D01*
X0379269Y0041831D01*
X0379355Y0041920D01*
X0379438Y0042011D01*
X0379519Y0042105D01*
X0379596Y0042202D01*
X0379670Y0042301D01*
X0379741Y0042402D01*
X0379809Y0042505D01*
X0379874Y0042611D01*
X0379935Y0042718D01*
X0379993Y0042828D01*
X0380047Y0042939D01*
X0380098Y0043051D01*
X0380146Y0043166D01*
X0380189Y0043281D01*
X0380229Y0043398D01*
X0380266Y0043517D01*
X0380298Y0043636D01*
X0380327Y0043756D01*
X0380352Y0043877D01*
X0380374Y0043999D01*
X0380391Y0044122D01*
X0380405Y0044244D01*
X0380414Y0044368D01*
X0380420Y0044491D01*
X0380422Y0044615D01*
X0380422Y0048552D01*
X0380422Y0060363D02*
X0380422Y0068237D01*
X0380422Y0080048D02*
X0380422Y0083985D01*
X0380420Y0084109D01*
X0380414Y0084232D01*
X0380405Y0084356D01*
X0380391Y0084478D01*
X0380374Y0084601D01*
X0380352Y0084723D01*
X0380327Y0084844D01*
X0380298Y0084964D01*
X0380266Y0085083D01*
X0380229Y0085202D01*
X0380189Y0085319D01*
X0380146Y0085434D01*
X0380098Y0085549D01*
X0380047Y0085661D01*
X0379993Y0085772D01*
X0379935Y0085882D01*
X0379874Y0085989D01*
X0379809Y0086095D01*
X0379741Y0086198D01*
X0379670Y0086299D01*
X0379596Y0086398D01*
X0379519Y0086495D01*
X0379438Y0086589D01*
X0379355Y0086680D01*
X0379269Y0086769D01*
X0379180Y0086855D01*
X0379089Y0086938D01*
X0378995Y0087019D01*
X0378898Y0087096D01*
X0378799Y0087170D01*
X0378698Y0087241D01*
X0378595Y0087309D01*
X0378489Y0087374D01*
X0378382Y0087435D01*
X0378272Y0087493D01*
X0378161Y0087547D01*
X0378049Y0087598D01*
X0377934Y0087646D01*
X0377819Y0087689D01*
X0377702Y0087729D01*
X0377583Y0087766D01*
X0377464Y0087798D01*
X0377344Y0087827D01*
X0377223Y0087852D01*
X0377101Y0087874D01*
X0376978Y0087891D01*
X0376856Y0087905D01*
X0376732Y0087914D01*
X0376609Y0087920D01*
X0376485Y0087922D01*
X0343020Y0064300D02*
X0343024Y0064638D01*
X0343037Y0064976D01*
X0343057Y0065314D01*
X0343086Y0065651D01*
X0343124Y0065987D01*
X0343169Y0066322D01*
X0343223Y0066656D01*
X0343285Y0066988D01*
X0343355Y0067319D01*
X0343433Y0067648D01*
X0343519Y0067975D01*
X0343613Y0068300D01*
X0343716Y0068623D01*
X0343826Y0068942D01*
X0343943Y0069259D01*
X0344069Y0069573D01*
X0344202Y0069884D01*
X0344343Y0070192D01*
X0344491Y0070496D01*
X0344647Y0070796D01*
X0344810Y0071092D01*
X0344980Y0071384D01*
X0345158Y0071672D01*
X0345342Y0071956D01*
X0345534Y0072235D01*
X0345732Y0072509D01*
X0345937Y0072778D01*
X0346148Y0073042D01*
X0346366Y0073301D01*
X0346590Y0073554D01*
X0346820Y0073802D01*
X0347056Y0074044D01*
X0347298Y0074280D01*
X0347546Y0074510D01*
X0347799Y0074734D01*
X0348058Y0074952D01*
X0348322Y0075163D01*
X0348591Y0075368D01*
X0348865Y0075566D01*
X0349144Y0075758D01*
X0349428Y0075942D01*
X0349716Y0076120D01*
X0350008Y0076290D01*
X0350304Y0076453D01*
X0350604Y0076609D01*
X0350908Y0076757D01*
X0351216Y0076898D01*
X0351527Y0077031D01*
X0351841Y0077157D01*
X0352158Y0077274D01*
X0352477Y0077384D01*
X0352800Y0077487D01*
X0353125Y0077581D01*
X0353452Y0077667D01*
X0353781Y0077745D01*
X0354112Y0077815D01*
X0354444Y0077877D01*
X0354778Y0077931D01*
X0355113Y0077976D01*
X0355449Y0078014D01*
X0355786Y0078043D01*
X0356124Y0078063D01*
X0356462Y0078076D01*
X0356800Y0078080D01*
X0357138Y0078076D01*
X0357476Y0078063D01*
X0357814Y0078043D01*
X0358151Y0078014D01*
X0358487Y0077976D01*
X0358822Y0077931D01*
X0359156Y0077877D01*
X0359488Y0077815D01*
X0359819Y0077745D01*
X0360148Y0077667D01*
X0360475Y0077581D01*
X0360800Y0077487D01*
X0361123Y0077384D01*
X0361442Y0077274D01*
X0361759Y0077157D01*
X0362073Y0077031D01*
X0362384Y0076898D01*
X0362692Y0076757D01*
X0362996Y0076609D01*
X0363296Y0076453D01*
X0363592Y0076290D01*
X0363884Y0076120D01*
X0364172Y0075942D01*
X0364456Y0075758D01*
X0364735Y0075566D01*
X0365009Y0075368D01*
X0365278Y0075163D01*
X0365542Y0074952D01*
X0365801Y0074734D01*
X0366054Y0074510D01*
X0366302Y0074280D01*
X0366544Y0074044D01*
X0366780Y0073802D01*
X0367010Y0073554D01*
X0367234Y0073301D01*
X0367452Y0073042D01*
X0367663Y0072778D01*
X0367868Y0072509D01*
X0368066Y0072235D01*
X0368258Y0071956D01*
X0368442Y0071672D01*
X0368620Y0071384D01*
X0368790Y0071092D01*
X0368953Y0070796D01*
X0369109Y0070496D01*
X0369257Y0070192D01*
X0369398Y0069884D01*
X0369531Y0069573D01*
X0369657Y0069259D01*
X0369774Y0068942D01*
X0369884Y0068623D01*
X0369987Y0068300D01*
X0370081Y0067975D01*
X0370167Y0067648D01*
X0370245Y0067319D01*
X0370315Y0066988D01*
X0370377Y0066656D01*
X0370431Y0066322D01*
X0370476Y0065987D01*
X0370514Y0065651D01*
X0370543Y0065314D01*
X0370563Y0064976D01*
X0370576Y0064638D01*
X0370580Y0064300D01*
X0370576Y0063962D01*
X0370563Y0063624D01*
X0370543Y0063286D01*
X0370514Y0062949D01*
X0370476Y0062613D01*
X0370431Y0062278D01*
X0370377Y0061944D01*
X0370315Y0061612D01*
X0370245Y0061281D01*
X0370167Y0060952D01*
X0370081Y0060625D01*
X0369987Y0060300D01*
X0369884Y0059977D01*
X0369774Y0059658D01*
X0369657Y0059341D01*
X0369531Y0059027D01*
X0369398Y0058716D01*
X0369257Y0058408D01*
X0369109Y0058104D01*
X0368953Y0057804D01*
X0368790Y0057508D01*
X0368620Y0057216D01*
X0368442Y0056928D01*
X0368258Y0056644D01*
X0368066Y0056365D01*
X0367868Y0056091D01*
X0367663Y0055822D01*
X0367452Y0055558D01*
X0367234Y0055299D01*
X0367010Y0055046D01*
X0366780Y0054798D01*
X0366544Y0054556D01*
X0366302Y0054320D01*
X0366054Y0054090D01*
X0365801Y0053866D01*
X0365542Y0053648D01*
X0365278Y0053437D01*
X0365009Y0053232D01*
X0364735Y0053034D01*
X0364456Y0052842D01*
X0364172Y0052658D01*
X0363884Y0052480D01*
X0363592Y0052310D01*
X0363296Y0052147D01*
X0362996Y0051991D01*
X0362692Y0051843D01*
X0362384Y0051702D01*
X0362073Y0051569D01*
X0361759Y0051443D01*
X0361442Y0051326D01*
X0361123Y0051216D01*
X0360800Y0051113D01*
X0360475Y0051019D01*
X0360148Y0050933D01*
X0359819Y0050855D01*
X0359488Y0050785D01*
X0359156Y0050723D01*
X0358822Y0050669D01*
X0358487Y0050624D01*
X0358151Y0050586D01*
X0357814Y0050557D01*
X0357476Y0050537D01*
X0357138Y0050524D01*
X0356800Y0050520D01*
X0356462Y0050524D01*
X0356124Y0050537D01*
X0355786Y0050557D01*
X0355449Y0050586D01*
X0355113Y0050624D01*
X0354778Y0050669D01*
X0354444Y0050723D01*
X0354112Y0050785D01*
X0353781Y0050855D01*
X0353452Y0050933D01*
X0353125Y0051019D01*
X0352800Y0051113D01*
X0352477Y0051216D01*
X0352158Y0051326D01*
X0351841Y0051443D01*
X0351527Y0051569D01*
X0351216Y0051702D01*
X0350908Y0051843D01*
X0350604Y0051991D01*
X0350304Y0052147D01*
X0350008Y0052310D01*
X0349716Y0052480D01*
X0349428Y0052658D01*
X0349144Y0052842D01*
X0348865Y0053034D01*
X0348591Y0053232D01*
X0348322Y0053437D01*
X0348058Y0053648D01*
X0347799Y0053866D01*
X0347546Y0054090D01*
X0347298Y0054320D01*
X0347056Y0054556D01*
X0346820Y0054798D01*
X0346590Y0055046D01*
X0346366Y0055299D01*
X0346148Y0055558D01*
X0345937Y0055822D01*
X0345732Y0056091D01*
X0345534Y0056365D01*
X0345342Y0056644D01*
X0345158Y0056928D01*
X0344980Y0057216D01*
X0344810Y0057508D01*
X0344647Y0057804D01*
X0344491Y0058104D01*
X0344343Y0058408D01*
X0344202Y0058716D01*
X0344069Y0059027D01*
X0343943Y0059341D01*
X0343826Y0059658D01*
X0343716Y0059977D01*
X0343613Y0060300D01*
X0343519Y0060625D01*
X0343433Y0060952D01*
X0343355Y0061281D01*
X0343285Y0061612D01*
X0343223Y0061944D01*
X0343169Y0062278D01*
X0343124Y0062613D01*
X0343086Y0062949D01*
X0343057Y0063286D01*
X0343037Y0063624D01*
X0343024Y0063962D01*
X0343020Y0064300D01*
X0282782Y0031337D02*
X0282782Y0026166D01*
X0281748Y0025132D01*
X0280714Y0025132D01*
X0279680Y0027200D02*
X0282782Y0027200D01*
X0279680Y0027200D02*
X0278645Y0028234D01*
X0278645Y0030303D01*
X0279680Y0031337D01*
X0282782Y0031337D01*
X0276337Y0030303D02*
X0276337Y0027200D01*
X0276337Y0030303D02*
X0275303Y0031337D01*
X0272200Y0031337D01*
X0272200Y0027200D01*
X0269891Y0028234D02*
X0269891Y0030303D01*
X0268857Y0031337D01*
X0266789Y0031337D01*
X0265754Y0030303D01*
X0265754Y0028234D01*
X0266789Y0027200D01*
X0268857Y0027200D01*
X0269891Y0028234D01*
X0263446Y0027200D02*
X0259309Y0027200D01*
X0259309Y0033405D01*
X0244474Y0031337D02*
X0242405Y0031337D01*
X0243440Y0032371D02*
X0243440Y0028234D01*
X0244474Y0027200D01*
X0240137Y0031337D02*
X0239103Y0031337D01*
X0237034Y0029268D01*
X0237034Y0027200D02*
X0237034Y0031337D01*
X0234725Y0030303D02*
X0233691Y0031337D01*
X0231623Y0031337D01*
X0230589Y0030303D01*
X0230589Y0028234D01*
X0231623Y0027200D01*
X0233691Y0027200D01*
X0234725Y0028234D01*
X0234725Y0030303D01*
X0228280Y0030303D02*
X0227246Y0031337D01*
X0225177Y0031337D01*
X0224143Y0030303D01*
X0221834Y0029268D02*
X0221834Y0028234D01*
X0220800Y0027200D01*
X0218732Y0027200D01*
X0217698Y0028234D01*
X0218732Y0030303D02*
X0217698Y0031337D01*
X0217698Y0032371D01*
X0218732Y0033405D01*
X0220800Y0033405D01*
X0221834Y0032371D01*
X0220800Y0030303D02*
X0221834Y0029268D01*
X0220800Y0030303D02*
X0218732Y0030303D01*
X0224143Y0033405D02*
X0224143Y0027200D01*
X0228280Y0027200D02*
X0228280Y0030303D01*
X0182782Y0031337D02*
X0182782Y0026166D01*
X0181748Y0025132D01*
X0180714Y0025132D01*
X0179680Y0027200D02*
X0182782Y0027200D01*
X0179680Y0027200D02*
X0178645Y0028234D01*
X0178645Y0030303D01*
X0179680Y0031337D01*
X0182782Y0031337D01*
X0176337Y0030303D02*
X0176337Y0027200D01*
X0176337Y0030303D02*
X0175303Y0031337D01*
X0172200Y0031337D01*
X0172200Y0027200D01*
X0169891Y0028234D02*
X0169891Y0030303D01*
X0168857Y0031337D01*
X0166789Y0031337D01*
X0165754Y0030303D01*
X0165754Y0028234D01*
X0166789Y0027200D01*
X0168857Y0027200D01*
X0169891Y0028234D01*
X0163446Y0027200D02*
X0159309Y0027200D01*
X0159309Y0033405D01*
X0144474Y0031337D02*
X0142405Y0031337D01*
X0143440Y0032371D02*
X0143440Y0028234D01*
X0144474Y0027200D01*
X0140137Y0031337D02*
X0139103Y0031337D01*
X0137034Y0029268D01*
X0137034Y0027200D02*
X0137034Y0031337D01*
X0134725Y0030303D02*
X0133691Y0031337D01*
X0131623Y0031337D01*
X0130589Y0030303D01*
X0130589Y0028234D01*
X0131623Y0027200D01*
X0133691Y0027200D01*
X0134725Y0028234D01*
X0134725Y0030303D01*
X0128280Y0030303D02*
X0127246Y0031337D01*
X0125177Y0031337D01*
X0124143Y0030303D01*
X0121834Y0029268D02*
X0121834Y0028234D01*
X0120800Y0027200D01*
X0118732Y0027200D01*
X0117698Y0028234D01*
X0118732Y0030303D02*
X0117698Y0031337D01*
X0117698Y0032371D01*
X0118732Y0033405D01*
X0120800Y0033405D01*
X0121834Y0032371D01*
X0120800Y0030303D02*
X0121834Y0029268D01*
X0120800Y0030303D02*
X0118732Y0030303D01*
X0124143Y0033405D02*
X0124143Y0027200D01*
X0128280Y0027200D02*
X0128280Y0030303D01*
X0379670Y0175303D02*
X0381739Y0175303D01*
X0449846Y0158405D02*
X0453983Y0158405D01*
X0453983Y0157371D01*
X0449846Y0153234D01*
X0449846Y0152200D01*
X0453983Y0152200D01*
X0456292Y0153234D02*
X0456292Y0155303D01*
X0457326Y0156337D01*
X0459394Y0156337D01*
X0460428Y0155303D01*
X0460428Y0154268D01*
X0456292Y0154268D01*
X0456292Y0153234D02*
X0457326Y0152200D01*
X0459394Y0152200D01*
X0462737Y0152200D02*
X0462737Y0156337D01*
X0464806Y0156337D02*
X0465840Y0156337D01*
X0464806Y0156337D02*
X0462737Y0154268D01*
X0468108Y0153234D02*
X0469143Y0152200D01*
X0471211Y0152200D01*
X0472245Y0153234D01*
X0472245Y0155303D01*
X0471211Y0156337D01*
X0469143Y0156337D01*
X0468108Y0155303D01*
X0468108Y0153234D01*
X0492532Y0152200D02*
X0492532Y0158405D01*
X0494600Y0156337D01*
X0496669Y0158405D01*
X0496669Y0152200D01*
X0498977Y0153234D02*
X0500011Y0154268D01*
X0503114Y0154268D01*
X0503114Y0155303D02*
X0503114Y0152200D01*
X0500011Y0152200D01*
X0498977Y0153234D01*
X0500011Y0156337D02*
X0502080Y0156337D01*
X0503114Y0155303D01*
X0505423Y0156337D02*
X0509560Y0152200D01*
X0505423Y0152200D02*
X0509560Y0156337D01*
X0549846Y0158405D02*
X0553983Y0158405D01*
X0553983Y0157371D01*
X0549846Y0153234D01*
X0549846Y0152200D01*
X0553983Y0152200D01*
X0556292Y0153234D02*
X0556292Y0155303D01*
X0557326Y0156337D01*
X0559394Y0156337D01*
X0560428Y0155303D01*
X0560428Y0154268D01*
X0556292Y0154268D01*
X0556292Y0153234D02*
X0557326Y0152200D01*
X0559394Y0152200D01*
X0562737Y0152200D02*
X0562737Y0156337D01*
X0564806Y0156337D02*
X0565840Y0156337D01*
X0564806Y0156337D02*
X0562737Y0154268D01*
X0568108Y0153234D02*
X0569143Y0152200D01*
X0571211Y0152200D01*
X0572245Y0153234D01*
X0572245Y0155303D01*
X0571211Y0156337D01*
X0569143Y0156337D01*
X0568108Y0155303D01*
X0568108Y0153234D01*
X0592532Y0152200D02*
X0592532Y0158405D01*
X0594600Y0156337D01*
X0596669Y0158405D01*
X0596669Y0152200D01*
X0598977Y0153234D02*
X0600011Y0154268D01*
X0603114Y0154268D01*
X0603114Y0155303D02*
X0603114Y0152200D01*
X0600011Y0152200D01*
X0598977Y0153234D01*
X0600011Y0156337D02*
X0602080Y0156337D01*
X0603114Y0155303D01*
X0605423Y0156337D02*
X0609560Y0152200D01*
X0605423Y0152200D02*
X0609560Y0156337D01*
X0569726Y0115905D02*
X0566623Y0115905D01*
X0566623Y0109700D01*
X0566623Y0111768D02*
X0569726Y0111768D01*
X0570760Y0112803D01*
X0570760Y0114871D01*
X0569726Y0115905D01*
X0573069Y0112803D02*
X0573069Y0110734D01*
X0574103Y0109700D01*
X0576172Y0109700D01*
X0577206Y0110734D01*
X0577206Y0112803D01*
X0576172Y0113837D01*
X0574103Y0113837D01*
X0573069Y0112803D01*
X0579514Y0113837D02*
X0579514Y0110734D01*
X0580549Y0109700D01*
X0581583Y0110734D01*
X0582617Y0109700D01*
X0583651Y0110734D01*
X0583651Y0113837D01*
X0585960Y0112803D02*
X0586994Y0113837D01*
X0589063Y0113837D01*
X0590097Y0112803D01*
X0590097Y0111768D01*
X0585960Y0111768D01*
X0585960Y0110734D02*
X0585960Y0112803D01*
X0585960Y0110734D02*
X0586994Y0109700D01*
X0589063Y0109700D01*
X0592405Y0109700D02*
X0592405Y0113837D01*
X0592405Y0111768D02*
X0594474Y0113837D01*
X0595508Y0113837D01*
X0587491Y0092155D02*
X0586457Y0091121D01*
X0586457Y0085950D01*
X0585423Y0089053D02*
X0587491Y0089053D01*
X0583194Y0089053D02*
X0581126Y0089053D01*
X0582160Y0091121D02*
X0583194Y0092155D01*
X0582160Y0091121D02*
X0582160Y0085950D01*
X0578817Y0086984D02*
X0578817Y0091121D01*
X0577783Y0092155D01*
X0575714Y0092155D01*
X0574680Y0091121D01*
X0574680Y0086984D01*
X0575714Y0085950D01*
X0577783Y0085950D01*
X0578817Y0086984D01*
X0573237Y0082194D02*
X0573237Y0046406D01*
X0590363Y0046406D01*
X0590363Y0082194D01*
X0573237Y0082194D01*
X0576789Y0043405D02*
X0575755Y0042371D01*
X0575755Y0038234D01*
X0576789Y0037200D01*
X0578857Y0037200D01*
X0579891Y0038234D01*
X0579891Y0042371D01*
X0578857Y0043405D01*
X0576789Y0043405D01*
X0582200Y0041337D02*
X0585303Y0041337D01*
X0586337Y0040303D01*
X0586337Y0037200D01*
X0582200Y0037200D02*
X0582200Y0041337D01*
X0506708Y0030303D02*
X0506708Y0027200D01*
X0506708Y0030303D02*
X0505674Y0031337D01*
X0503605Y0031337D01*
X0502571Y0030303D01*
X0500263Y0031337D02*
X0497160Y0031337D01*
X0496126Y0030303D01*
X0496126Y0028234D01*
X0497160Y0027200D01*
X0500263Y0027200D01*
X0500263Y0026166D02*
X0500263Y0031337D01*
X0502571Y0033405D02*
X0502571Y0027200D01*
X0500263Y0026166D02*
X0499228Y0025132D01*
X0498194Y0025132D01*
X0493897Y0027200D02*
X0491829Y0027200D01*
X0492863Y0027200D02*
X0492863Y0031337D01*
X0491829Y0031337D01*
X0492863Y0033405D02*
X0492863Y0034440D01*
X0489520Y0033405D02*
X0489520Y0027200D01*
X0489520Y0030303D02*
X0485383Y0030303D01*
X0485383Y0033405D02*
X0485383Y0027200D01*
X0464560Y0028234D02*
X0464560Y0031337D01*
X0464560Y0028234D02*
X0463525Y0027200D01*
X0462491Y0028234D01*
X0461457Y0027200D01*
X0460423Y0028234D01*
X0460423Y0031337D01*
X0458114Y0030303D02*
X0457080Y0031337D01*
X0455011Y0031337D01*
X0453977Y0030303D01*
X0453977Y0028234D01*
X0455011Y0027200D01*
X0457080Y0027200D01*
X0458114Y0028234D01*
X0458114Y0030303D01*
X0451669Y0027200D02*
X0447532Y0027200D01*
X0447532Y0033405D01*
X0457391Y0043253D02*
X0496209Y0043253D01*
X0496209Y0057902D01*
X0496209Y0070753D02*
X0496209Y0090678D01*
X0496091Y0090678D02*
X0490973Y0090678D01*
X0482312Y0090678D02*
X0481131Y0090678D01*
X0472469Y0090678D02*
X0471288Y0090678D01*
X0462627Y0090678D02*
X0457391Y0090678D01*
X0457391Y0070757D01*
X0457391Y0057902D02*
X0457391Y0043253D01*
X0471131Y0097632D02*
X0471131Y0103837D01*
X0468029Y0103837D01*
X0466995Y0102803D01*
X0466995Y0100734D01*
X0468029Y0099700D01*
X0471131Y0099700D01*
X0473440Y0100734D02*
X0474474Y0099700D01*
X0477577Y0099700D01*
X0477577Y0103837D01*
X0479886Y0102803D02*
X0480920Y0103837D01*
X0482988Y0103837D01*
X0484022Y0102803D01*
X0484022Y0101768D01*
X0479886Y0101768D01*
X0479886Y0100734D02*
X0479886Y0102803D01*
X0479886Y0100734D02*
X0480920Y0099700D01*
X0482988Y0099700D01*
X0486331Y0099700D02*
X0486331Y0103837D01*
X0489434Y0103837D01*
X0490468Y0102803D01*
X0490468Y0099700D01*
X0492777Y0100734D02*
X0493811Y0099700D01*
X0496913Y0099700D01*
X0499222Y0100734D02*
X0500256Y0099700D01*
X0503359Y0099700D01*
X0503359Y0098666D02*
X0502325Y0097632D01*
X0501291Y0097632D01*
X0503359Y0098666D02*
X0503359Y0103837D01*
X0499222Y0103837D02*
X0499222Y0100734D01*
X0496913Y0103837D02*
X0493811Y0103837D01*
X0492777Y0102803D01*
X0492777Y0100734D01*
X0473440Y0100734D02*
X0473440Y0103837D01*
X0464686Y0102803D02*
X0464686Y0101768D01*
X0460549Y0101768D01*
X0460549Y0100734D02*
X0460549Y0102803D01*
X0461583Y0103837D01*
X0463652Y0103837D01*
X0464686Y0102803D01*
X0463652Y0099700D02*
X0461583Y0099700D01*
X0460549Y0100734D01*
X0458280Y0103837D02*
X0457246Y0103837D01*
X0455178Y0101768D01*
X0455178Y0099700D02*
X0455178Y0103837D01*
X0452869Y0105905D02*
X0448732Y0105905D01*
X0448732Y0099700D01*
X0448732Y0102803D02*
X0450801Y0102803D01*
X0357410Y0241800D02*
X0357412Y0241969D01*
X0357418Y0242138D01*
X0357429Y0242307D01*
X0357443Y0242475D01*
X0357462Y0242643D01*
X0357485Y0242811D01*
X0357511Y0242978D01*
X0357542Y0243144D01*
X0357577Y0243310D01*
X0357616Y0243474D01*
X0357660Y0243638D01*
X0357707Y0243800D01*
X0357758Y0243961D01*
X0357813Y0244121D01*
X0357872Y0244280D01*
X0357934Y0244437D01*
X0358001Y0244592D01*
X0358072Y0244746D01*
X0358146Y0244898D01*
X0358224Y0245048D01*
X0358305Y0245196D01*
X0358390Y0245342D01*
X0358479Y0245486D01*
X0358571Y0245628D01*
X0358667Y0245767D01*
X0358766Y0245904D01*
X0358868Y0246039D01*
X0358974Y0246171D01*
X0359083Y0246300D01*
X0359195Y0246427D01*
X0359310Y0246551D01*
X0359428Y0246672D01*
X0359549Y0246790D01*
X0359673Y0246905D01*
X0359800Y0247017D01*
X0359929Y0247126D01*
X0360061Y0247232D01*
X0360196Y0247334D01*
X0360333Y0247433D01*
X0360472Y0247529D01*
X0360614Y0247621D01*
X0360758Y0247710D01*
X0360904Y0247795D01*
X0361052Y0247876D01*
X0361202Y0247954D01*
X0361354Y0248028D01*
X0361508Y0248099D01*
X0361663Y0248166D01*
X0361820Y0248228D01*
X0361979Y0248287D01*
X0362139Y0248342D01*
X0362300Y0248393D01*
X0362462Y0248440D01*
X0362626Y0248484D01*
X0362790Y0248523D01*
X0362956Y0248558D01*
X0363122Y0248589D01*
X0363289Y0248615D01*
X0363457Y0248638D01*
X0363625Y0248657D01*
X0363793Y0248671D01*
X0363962Y0248682D01*
X0364131Y0248688D01*
X0364300Y0248690D01*
X0364469Y0248688D01*
X0364638Y0248682D01*
X0364807Y0248671D01*
X0364975Y0248657D01*
X0365143Y0248638D01*
X0365311Y0248615D01*
X0365478Y0248589D01*
X0365644Y0248558D01*
X0365810Y0248523D01*
X0365974Y0248484D01*
X0366138Y0248440D01*
X0366300Y0248393D01*
X0366461Y0248342D01*
X0366621Y0248287D01*
X0366780Y0248228D01*
X0366937Y0248166D01*
X0367092Y0248099D01*
X0367246Y0248028D01*
X0367398Y0247954D01*
X0367548Y0247876D01*
X0367696Y0247795D01*
X0367842Y0247710D01*
X0367986Y0247621D01*
X0368128Y0247529D01*
X0368267Y0247433D01*
X0368404Y0247334D01*
X0368539Y0247232D01*
X0368671Y0247126D01*
X0368800Y0247017D01*
X0368927Y0246905D01*
X0369051Y0246790D01*
X0369172Y0246672D01*
X0369290Y0246551D01*
X0369405Y0246427D01*
X0369517Y0246300D01*
X0369626Y0246171D01*
X0369732Y0246039D01*
X0369834Y0245904D01*
X0369933Y0245767D01*
X0370029Y0245628D01*
X0370121Y0245486D01*
X0370210Y0245342D01*
X0370295Y0245196D01*
X0370376Y0245048D01*
X0370454Y0244898D01*
X0370528Y0244746D01*
X0370599Y0244592D01*
X0370666Y0244437D01*
X0370728Y0244280D01*
X0370787Y0244121D01*
X0370842Y0243961D01*
X0370893Y0243800D01*
X0370940Y0243638D01*
X0370984Y0243474D01*
X0371023Y0243310D01*
X0371058Y0243144D01*
X0371089Y0242978D01*
X0371115Y0242811D01*
X0371138Y0242643D01*
X0371157Y0242475D01*
X0371171Y0242307D01*
X0371182Y0242138D01*
X0371188Y0241969D01*
X0371190Y0241800D01*
X0371188Y0241631D01*
X0371182Y0241462D01*
X0371171Y0241293D01*
X0371157Y0241125D01*
X0371138Y0240957D01*
X0371115Y0240789D01*
X0371089Y0240622D01*
X0371058Y0240456D01*
X0371023Y0240290D01*
X0370984Y0240126D01*
X0370940Y0239962D01*
X0370893Y0239800D01*
X0370842Y0239639D01*
X0370787Y0239479D01*
X0370728Y0239320D01*
X0370666Y0239163D01*
X0370599Y0239008D01*
X0370528Y0238854D01*
X0370454Y0238702D01*
X0370376Y0238552D01*
X0370295Y0238404D01*
X0370210Y0238258D01*
X0370121Y0238114D01*
X0370029Y0237972D01*
X0369933Y0237833D01*
X0369834Y0237696D01*
X0369732Y0237561D01*
X0369626Y0237429D01*
X0369517Y0237300D01*
X0369405Y0237173D01*
X0369290Y0237049D01*
X0369172Y0236928D01*
X0369051Y0236810D01*
X0368927Y0236695D01*
X0368800Y0236583D01*
X0368671Y0236474D01*
X0368539Y0236368D01*
X0368404Y0236266D01*
X0368267Y0236167D01*
X0368128Y0236071D01*
X0367986Y0235979D01*
X0367842Y0235890D01*
X0367696Y0235805D01*
X0367548Y0235724D01*
X0367398Y0235646D01*
X0367246Y0235572D01*
X0367092Y0235501D01*
X0366937Y0235434D01*
X0366780Y0235372D01*
X0366621Y0235313D01*
X0366461Y0235258D01*
X0366300Y0235207D01*
X0366138Y0235160D01*
X0365974Y0235116D01*
X0365810Y0235077D01*
X0365644Y0235042D01*
X0365478Y0235011D01*
X0365311Y0234985D01*
X0365143Y0234962D01*
X0364975Y0234943D01*
X0364807Y0234929D01*
X0364638Y0234918D01*
X0364469Y0234912D01*
X0364300Y0234910D01*
X0364131Y0234912D01*
X0363962Y0234918D01*
X0363793Y0234929D01*
X0363625Y0234943D01*
X0363457Y0234962D01*
X0363289Y0234985D01*
X0363122Y0235011D01*
X0362956Y0235042D01*
X0362790Y0235077D01*
X0362626Y0235116D01*
X0362462Y0235160D01*
X0362300Y0235207D01*
X0362139Y0235258D01*
X0361979Y0235313D01*
X0361820Y0235372D01*
X0361663Y0235434D01*
X0361508Y0235501D01*
X0361354Y0235572D01*
X0361202Y0235646D01*
X0361052Y0235724D01*
X0360904Y0235805D01*
X0360758Y0235890D01*
X0360614Y0235979D01*
X0360472Y0236071D01*
X0360333Y0236167D01*
X0360196Y0236266D01*
X0360061Y0236368D01*
X0359929Y0236474D01*
X0359800Y0236583D01*
X0359673Y0236695D01*
X0359549Y0236810D01*
X0359428Y0236928D01*
X0359310Y0237049D01*
X0359195Y0237173D01*
X0359083Y0237300D01*
X0358974Y0237429D01*
X0358868Y0237561D01*
X0358766Y0237696D01*
X0358667Y0237833D01*
X0358571Y0237972D01*
X0358479Y0238114D01*
X0358390Y0238258D01*
X0358305Y0238404D01*
X0358224Y0238552D01*
X0358146Y0238702D01*
X0358072Y0238854D01*
X0358001Y0239008D01*
X0357934Y0239163D01*
X0357872Y0239320D01*
X0357813Y0239479D01*
X0357758Y0239639D01*
X0357707Y0239800D01*
X0357660Y0239962D01*
X0357616Y0240126D01*
X0357577Y0240290D01*
X0357542Y0240456D01*
X0357511Y0240622D01*
X0357485Y0240789D01*
X0357462Y0240957D01*
X0357443Y0241125D01*
X0357429Y0241293D01*
X0357418Y0241462D01*
X0357412Y0241631D01*
X0357410Y0241800D01*
X0357332Y0325950D02*
X0357332Y0332155D01*
X0360675Y0330087D02*
X0362743Y0330087D01*
X0363778Y0329053D01*
X0363778Y0325950D01*
X0360675Y0325950D01*
X0359641Y0326984D01*
X0360675Y0328018D01*
X0363778Y0328018D01*
X0366086Y0330087D02*
X0368155Y0325950D01*
X0370223Y0330087D01*
X0372532Y0329053D02*
X0373566Y0330087D01*
X0375634Y0330087D01*
X0376669Y0329053D01*
X0376669Y0328018D01*
X0372532Y0328018D01*
X0372532Y0326984D02*
X0372532Y0329053D01*
X0372532Y0326984D02*
X0373566Y0325950D01*
X0375634Y0325950D01*
X0378977Y0325950D02*
X0382080Y0325950D01*
X0383114Y0326984D01*
X0382080Y0328018D01*
X0380011Y0328018D01*
X0378977Y0329053D01*
X0380011Y0330087D01*
X0383114Y0330087D01*
X0385423Y0329053D02*
X0386457Y0330087D01*
X0388525Y0330087D01*
X0389560Y0329053D01*
X0389560Y0325950D01*
X0391868Y0326984D02*
X0392902Y0328018D01*
X0396005Y0328018D01*
X0396005Y0329053D02*
X0396005Y0325950D01*
X0392902Y0325950D01*
X0391868Y0326984D01*
X0392902Y0330087D02*
X0394971Y0330087D01*
X0396005Y0329053D01*
X0398314Y0330087D02*
X0398314Y0323882D01*
X0398314Y0325950D02*
X0401416Y0325950D01*
X0402451Y0326984D01*
X0402451Y0329053D01*
X0401416Y0330087D01*
X0398314Y0330087D01*
X0404759Y0329053D02*
X0405793Y0330087D01*
X0407862Y0330087D01*
X0408896Y0329053D01*
X0408896Y0328018D01*
X0404759Y0328018D01*
X0404759Y0326984D02*
X0404759Y0329053D01*
X0404759Y0326984D02*
X0405793Y0325950D01*
X0407862Y0325950D01*
X0385423Y0325950D02*
X0385423Y0332155D01*
X0357332Y0325950D02*
X0355264Y0328018D01*
X0353195Y0325950D01*
X0353195Y0332155D01*
X0328896Y0349700D02*
X0328896Y0352803D01*
X0327862Y0353837D01*
X0324759Y0353837D01*
X0324759Y0349700D01*
X0322451Y0350734D02*
X0322451Y0352803D01*
X0321416Y0353837D01*
X0319348Y0353837D01*
X0318314Y0352803D01*
X0318314Y0350734D01*
X0319348Y0349700D01*
X0321416Y0349700D01*
X0322451Y0350734D01*
X0316085Y0349700D02*
X0314017Y0349700D01*
X0315051Y0349700D02*
X0315051Y0353837D01*
X0314017Y0353837D01*
X0311788Y0353837D02*
X0309720Y0353837D01*
X0310754Y0354871D02*
X0310754Y0350734D01*
X0311788Y0349700D01*
X0307411Y0349700D02*
X0304308Y0349700D01*
X0303274Y0350734D01*
X0304308Y0351768D01*
X0307411Y0351768D01*
X0307411Y0352803D02*
X0307411Y0349700D01*
X0307411Y0352803D02*
X0306377Y0353837D01*
X0304308Y0353837D01*
X0300011Y0355905D02*
X0300011Y0349700D01*
X0298977Y0349700D02*
X0301046Y0349700D01*
X0296669Y0349700D02*
X0296669Y0353837D01*
X0298977Y0355905D02*
X0300011Y0355905D01*
X0298977Y0360200D02*
X0298977Y0366405D01*
X0303114Y0366405D01*
X0305423Y0365371D02*
X0305423Y0361234D01*
X0306457Y0360200D01*
X0308525Y0360200D01*
X0309560Y0361234D01*
X0309560Y0365371D01*
X0308525Y0366405D01*
X0306457Y0366405D01*
X0305423Y0365371D01*
X0301046Y0363303D02*
X0298977Y0363303D01*
X0296669Y0360200D02*
X0292532Y0360200D01*
X0292532Y0366405D01*
X0290223Y0355905D02*
X0290223Y0349700D01*
X0287120Y0349700D01*
X0286086Y0350734D01*
X0286086Y0352803D01*
X0287120Y0353837D01*
X0290223Y0353837D01*
X0292532Y0353837D02*
X0292532Y0350734D01*
X0293566Y0349700D01*
X0296669Y0349700D01*
X0283778Y0350734D02*
X0283778Y0352803D01*
X0282743Y0353837D01*
X0280675Y0353837D01*
X0279641Y0352803D01*
X0279641Y0350734D01*
X0280675Y0349700D01*
X0282743Y0349700D01*
X0283778Y0350734D01*
X0277332Y0349700D02*
X0277332Y0352803D01*
X0276298Y0353837D01*
X0275264Y0352803D01*
X0275264Y0349700D01*
X0273195Y0349700D02*
X0273195Y0353837D01*
X0274229Y0353837D01*
X0275264Y0352803D01*
X0315051Y0355905D02*
X0315051Y0356940D01*
X0229560Y0331621D02*
X0229560Y0327484D01*
X0228525Y0326450D01*
X0226457Y0326450D01*
X0225423Y0327484D01*
X0225423Y0331621D01*
X0226457Y0332655D01*
X0228525Y0332655D01*
X0229560Y0331621D01*
X0223114Y0332655D02*
X0218977Y0332655D01*
X0218977Y0326450D01*
X0216669Y0326450D02*
X0212532Y0326450D01*
X0212532Y0332655D01*
X0218977Y0329553D02*
X0221046Y0329553D01*
X0168896Y0349700D02*
X0168896Y0352803D01*
X0167862Y0353837D01*
X0164759Y0353837D01*
X0164759Y0349700D01*
X0162451Y0350734D02*
X0162451Y0352803D01*
X0161416Y0353837D01*
X0159348Y0353837D01*
X0158314Y0352803D01*
X0158314Y0350734D01*
X0159348Y0349700D01*
X0161416Y0349700D01*
X0162451Y0350734D01*
X0156085Y0349700D02*
X0154017Y0349700D01*
X0155051Y0349700D02*
X0155051Y0353837D01*
X0154017Y0353837D01*
X0151788Y0353837D02*
X0149720Y0353837D01*
X0150754Y0354871D02*
X0150754Y0350734D01*
X0151788Y0349700D01*
X0147411Y0349700D02*
X0144308Y0349700D01*
X0143274Y0350734D01*
X0144308Y0351768D01*
X0147411Y0351768D01*
X0147411Y0352803D02*
X0147411Y0349700D01*
X0147411Y0352803D02*
X0146377Y0353837D01*
X0144308Y0353837D01*
X0140011Y0355905D02*
X0140011Y0349700D01*
X0138977Y0349700D02*
X0141046Y0349700D01*
X0136669Y0349700D02*
X0136669Y0353837D01*
X0138977Y0355905D02*
X0140011Y0355905D01*
X0139931Y0360200D02*
X0137863Y0360200D01*
X0136829Y0361234D01*
X0136829Y0363303D01*
X0137863Y0364337D01*
X0139931Y0364337D01*
X0140966Y0363303D01*
X0140966Y0362268D01*
X0136829Y0362268D01*
X0134520Y0364337D02*
X0132452Y0360200D01*
X0130383Y0364337D01*
X0128075Y0363303D02*
X0128075Y0360200D01*
X0128075Y0363303D02*
X0127040Y0364337D01*
X0123938Y0364337D01*
X0123938Y0360200D01*
X0121629Y0360200D02*
X0117492Y0360200D01*
X0117492Y0366405D01*
X0121629Y0366405D01*
X0119561Y0363303D02*
X0117492Y0363303D01*
X0116298Y0353837D02*
X0117332Y0352803D01*
X0117332Y0349700D01*
X0115264Y0349700D02*
X0115264Y0352803D01*
X0116298Y0353837D01*
X0115264Y0352803D02*
X0114229Y0353837D01*
X0113195Y0353837D01*
X0113195Y0349700D01*
X0119641Y0350734D02*
X0120675Y0349700D01*
X0122743Y0349700D01*
X0123778Y0350734D01*
X0123778Y0352803D01*
X0122743Y0353837D01*
X0120675Y0353837D01*
X0119641Y0352803D01*
X0119641Y0350734D01*
X0126086Y0350734D02*
X0126086Y0352803D01*
X0127120Y0353837D01*
X0130223Y0353837D01*
X0130223Y0355905D02*
X0130223Y0349700D01*
X0127120Y0349700D01*
X0126086Y0350734D01*
X0132532Y0350734D02*
X0132532Y0353837D01*
X0132532Y0350734D02*
X0133566Y0349700D01*
X0136669Y0349700D01*
X0143274Y0360200D02*
X0145343Y0360200D01*
X0144308Y0360200D02*
X0144308Y0366405D01*
X0143274Y0366405D01*
X0147571Y0363303D02*
X0147571Y0361234D01*
X0148605Y0360200D01*
X0150674Y0360200D01*
X0151708Y0361234D01*
X0151708Y0363303D01*
X0150674Y0364337D01*
X0148605Y0364337D01*
X0147571Y0363303D01*
X0154017Y0364337D02*
X0154017Y0358132D01*
X0155051Y0356940D02*
X0155051Y0355905D01*
X0154017Y0360200D02*
X0157119Y0360200D01*
X0158154Y0361234D01*
X0158154Y0363303D01*
X0157119Y0364337D01*
X0154017Y0364337D01*
X0160462Y0363303D02*
X0161496Y0364337D01*
X0163565Y0364337D01*
X0164599Y0363303D01*
X0164599Y0362268D01*
X0160462Y0362268D01*
X0160462Y0361234D02*
X0160462Y0363303D01*
X0160462Y0361234D02*
X0161496Y0360200D01*
X0163565Y0360200D01*
X0068359Y0353837D02*
X0068359Y0348666D01*
X0067325Y0347632D01*
X0066291Y0347632D01*
X0065256Y0349700D02*
X0068359Y0349700D01*
X0065256Y0349700D02*
X0064222Y0350734D01*
X0064222Y0353837D01*
X0061913Y0353837D02*
X0058811Y0353837D01*
X0057777Y0352803D01*
X0057777Y0350734D01*
X0058811Y0349700D01*
X0061913Y0349700D01*
X0055468Y0349700D02*
X0055468Y0352803D01*
X0054434Y0353837D01*
X0051331Y0353837D01*
X0051331Y0349700D01*
X0049022Y0351768D02*
X0044886Y0351768D01*
X0044886Y0350734D02*
X0044886Y0352803D01*
X0045920Y0353837D01*
X0047988Y0353837D01*
X0049022Y0352803D01*
X0049022Y0351768D01*
X0047988Y0349700D02*
X0045920Y0349700D01*
X0044886Y0350734D01*
X0042577Y0349700D02*
X0042577Y0353837D01*
X0038440Y0353837D02*
X0038440Y0350734D01*
X0039474Y0349700D01*
X0042577Y0349700D01*
X0036131Y0349700D02*
X0033029Y0349700D01*
X0031995Y0350734D01*
X0031995Y0352803D01*
X0033029Y0353837D01*
X0036131Y0353837D01*
X0036131Y0347632D01*
X0029686Y0351768D02*
X0025549Y0351768D01*
X0025549Y0350734D02*
X0025549Y0352803D01*
X0026583Y0353837D01*
X0028652Y0353837D01*
X0029686Y0352803D01*
X0029686Y0351768D01*
X0028652Y0349700D02*
X0026583Y0349700D01*
X0025549Y0350734D01*
X0023280Y0353837D02*
X0022246Y0353837D01*
X0020178Y0351768D01*
X0020178Y0349700D02*
X0020178Y0353837D01*
X0017869Y0355905D02*
X0013732Y0355905D01*
X0013732Y0349700D01*
X0013732Y0352803D02*
X0015801Y0352803D01*
X0447160Y0350200D02*
X0451297Y0350200D01*
X0453606Y0351234D02*
X0453606Y0353303D01*
X0454640Y0354337D01*
X0456709Y0354337D01*
X0457743Y0353303D01*
X0457743Y0352268D01*
X0453606Y0352268D01*
X0453606Y0351234D02*
X0454640Y0350200D01*
X0456709Y0350200D01*
X0460051Y0354337D02*
X0462120Y0350200D01*
X0464188Y0354337D01*
X0466497Y0353303D02*
X0467531Y0354337D01*
X0469600Y0354337D01*
X0470634Y0353303D01*
X0470634Y0352268D01*
X0466497Y0352268D01*
X0466497Y0351234D02*
X0466497Y0353303D01*
X0466497Y0351234D02*
X0467531Y0350200D01*
X0469600Y0350200D01*
X0472942Y0350200D02*
X0475011Y0350200D01*
X0473977Y0350200D02*
X0473977Y0356405D01*
X0472942Y0356405D01*
X0447160Y0356405D02*
X0447160Y0350200D01*
X0567160Y0350200D02*
X0571297Y0350200D01*
X0573606Y0351234D02*
X0573606Y0353303D01*
X0574640Y0354337D01*
X0576709Y0354337D01*
X0577743Y0353303D01*
X0577743Y0352268D01*
X0573606Y0352268D01*
X0573606Y0351234D02*
X0574640Y0350200D01*
X0576709Y0350200D01*
X0580051Y0354337D02*
X0582120Y0350200D01*
X0584188Y0354337D01*
X0586497Y0353303D02*
X0586497Y0351234D01*
X0587531Y0350200D01*
X0589600Y0350200D01*
X0590634Y0352268D02*
X0586497Y0352268D01*
X0586497Y0353303D02*
X0587531Y0354337D01*
X0589600Y0354337D01*
X0590634Y0353303D01*
X0590634Y0352268D01*
X0592942Y0350200D02*
X0595011Y0350200D01*
X0593977Y0350200D02*
X0593977Y0356405D01*
X0592942Y0356405D01*
X0567160Y0356405D02*
X0567160Y0350200D01*
D12*
X0521800Y0381800D02*
X0521800Y0251800D01*
X0621800Y0251800D01*
X0521800Y0251800D02*
X0249300Y0251800D01*
X0249300Y0126800D01*
X0411800Y0126800D01*
X0541800Y0126800D01*
X0541800Y0001800D01*
X0411800Y0001800D02*
X0411800Y0126800D01*
X0374300Y0128050D02*
X0374300Y0250550D01*
X0415550Y0170550D02*
X0415550Y0166800D01*
X0401800Y0166800D01*
X0401800Y0161800D01*
X0541800Y0126800D02*
X0621800Y0126800D01*
X0249300Y0126800D02*
X0001800Y0126800D01*
X0121800Y0161800D02*
X0121800Y0166800D01*
X0136800Y0166800D01*
X0136800Y0170550D01*
X0249300Y0251800D02*
X0001800Y0251800D01*
D13*
X0552010Y0347913D02*
X0553422Y0348665D01*
D14*
X0373336Y0082017D02*
X0373338Y0082086D01*
X0373344Y0082154D01*
X0373354Y0082222D01*
X0373368Y0082289D01*
X0373386Y0082356D01*
X0373407Y0082421D01*
X0373433Y0082485D01*
X0373462Y0082547D01*
X0373494Y0082607D01*
X0373530Y0082666D01*
X0373570Y0082722D01*
X0373612Y0082776D01*
X0373658Y0082827D01*
X0373707Y0082876D01*
X0373758Y0082922D01*
X0373812Y0082964D01*
X0373868Y0083004D01*
X0373926Y0083040D01*
X0373987Y0083072D01*
X0374049Y0083101D01*
X0374113Y0083127D01*
X0374178Y0083148D01*
X0374245Y0083166D01*
X0374312Y0083180D01*
X0374380Y0083190D01*
X0374448Y0083196D01*
X0374517Y0083198D01*
X0374586Y0083196D01*
X0374654Y0083190D01*
X0374722Y0083180D01*
X0374789Y0083166D01*
X0374856Y0083148D01*
X0374921Y0083127D01*
X0374985Y0083101D01*
X0375047Y0083072D01*
X0375107Y0083040D01*
X0375166Y0083004D01*
X0375222Y0082964D01*
X0375276Y0082922D01*
X0375327Y0082876D01*
X0375376Y0082827D01*
X0375422Y0082776D01*
X0375464Y0082722D01*
X0375504Y0082666D01*
X0375540Y0082607D01*
X0375572Y0082547D01*
X0375601Y0082485D01*
X0375627Y0082421D01*
X0375648Y0082356D01*
X0375666Y0082289D01*
X0375680Y0082222D01*
X0375690Y0082154D01*
X0375696Y0082086D01*
X0375698Y0082017D01*
X0375696Y0081948D01*
X0375690Y0081880D01*
X0375680Y0081812D01*
X0375666Y0081745D01*
X0375648Y0081678D01*
X0375627Y0081613D01*
X0375601Y0081549D01*
X0375572Y0081487D01*
X0375540Y0081426D01*
X0375504Y0081368D01*
X0375464Y0081312D01*
X0375422Y0081258D01*
X0375376Y0081207D01*
X0375327Y0081158D01*
X0375276Y0081112D01*
X0375222Y0081070D01*
X0375166Y0081030D01*
X0375108Y0080994D01*
X0375047Y0080962D01*
X0374985Y0080933D01*
X0374921Y0080907D01*
X0374856Y0080886D01*
X0374789Y0080868D01*
X0374722Y0080854D01*
X0374654Y0080844D01*
X0374586Y0080838D01*
X0374517Y0080836D01*
X0374448Y0080838D01*
X0374380Y0080844D01*
X0374312Y0080854D01*
X0374245Y0080868D01*
X0374178Y0080886D01*
X0374113Y0080907D01*
X0374049Y0080933D01*
X0373987Y0080962D01*
X0373926Y0080994D01*
X0373868Y0081030D01*
X0373812Y0081070D01*
X0373758Y0081112D01*
X0373707Y0081158D01*
X0373658Y0081207D01*
X0373612Y0081258D01*
X0373570Y0081312D01*
X0373530Y0081368D01*
X0373494Y0081426D01*
X0373462Y0081487D01*
X0373433Y0081549D01*
X0373407Y0081613D01*
X0373386Y0081678D01*
X0373368Y0081745D01*
X0373354Y0081812D01*
X0373344Y0081880D01*
X0373338Y0081948D01*
X0373336Y0082017D01*
X0337902Y0082017D02*
X0337904Y0082086D01*
X0337910Y0082154D01*
X0337920Y0082222D01*
X0337934Y0082289D01*
X0337952Y0082356D01*
X0337973Y0082421D01*
X0337999Y0082485D01*
X0338028Y0082547D01*
X0338060Y0082607D01*
X0338096Y0082666D01*
X0338136Y0082722D01*
X0338178Y0082776D01*
X0338224Y0082827D01*
X0338273Y0082876D01*
X0338324Y0082922D01*
X0338378Y0082964D01*
X0338434Y0083004D01*
X0338492Y0083040D01*
X0338553Y0083072D01*
X0338615Y0083101D01*
X0338679Y0083127D01*
X0338744Y0083148D01*
X0338811Y0083166D01*
X0338878Y0083180D01*
X0338946Y0083190D01*
X0339014Y0083196D01*
X0339083Y0083198D01*
X0339152Y0083196D01*
X0339220Y0083190D01*
X0339288Y0083180D01*
X0339355Y0083166D01*
X0339422Y0083148D01*
X0339487Y0083127D01*
X0339551Y0083101D01*
X0339613Y0083072D01*
X0339673Y0083040D01*
X0339732Y0083004D01*
X0339788Y0082964D01*
X0339842Y0082922D01*
X0339893Y0082876D01*
X0339942Y0082827D01*
X0339988Y0082776D01*
X0340030Y0082722D01*
X0340070Y0082666D01*
X0340106Y0082607D01*
X0340138Y0082547D01*
X0340167Y0082485D01*
X0340193Y0082421D01*
X0340214Y0082356D01*
X0340232Y0082289D01*
X0340246Y0082222D01*
X0340256Y0082154D01*
X0340262Y0082086D01*
X0340264Y0082017D01*
X0340262Y0081948D01*
X0340256Y0081880D01*
X0340246Y0081812D01*
X0340232Y0081745D01*
X0340214Y0081678D01*
X0340193Y0081613D01*
X0340167Y0081549D01*
X0340138Y0081487D01*
X0340106Y0081426D01*
X0340070Y0081368D01*
X0340030Y0081312D01*
X0339988Y0081258D01*
X0339942Y0081207D01*
X0339893Y0081158D01*
X0339842Y0081112D01*
X0339788Y0081070D01*
X0339732Y0081030D01*
X0339674Y0080994D01*
X0339613Y0080962D01*
X0339551Y0080933D01*
X0339487Y0080907D01*
X0339422Y0080886D01*
X0339355Y0080868D01*
X0339288Y0080854D01*
X0339220Y0080844D01*
X0339152Y0080838D01*
X0339083Y0080836D01*
X0339014Y0080838D01*
X0338946Y0080844D01*
X0338878Y0080854D01*
X0338811Y0080868D01*
X0338744Y0080886D01*
X0338679Y0080907D01*
X0338615Y0080933D01*
X0338553Y0080962D01*
X0338492Y0080994D01*
X0338434Y0081030D01*
X0338378Y0081070D01*
X0338324Y0081112D01*
X0338273Y0081158D01*
X0338224Y0081207D01*
X0338178Y0081258D01*
X0338136Y0081312D01*
X0338096Y0081368D01*
X0338060Y0081426D01*
X0338028Y0081487D01*
X0337999Y0081549D01*
X0337973Y0081613D01*
X0337952Y0081678D01*
X0337934Y0081745D01*
X0337920Y0081812D01*
X0337910Y0081880D01*
X0337904Y0081948D01*
X0337902Y0082017D01*
X0337902Y0046583D02*
X0337904Y0046652D01*
X0337910Y0046720D01*
X0337920Y0046788D01*
X0337934Y0046855D01*
X0337952Y0046922D01*
X0337973Y0046987D01*
X0337999Y0047051D01*
X0338028Y0047113D01*
X0338060Y0047173D01*
X0338096Y0047232D01*
X0338136Y0047288D01*
X0338178Y0047342D01*
X0338224Y0047393D01*
X0338273Y0047442D01*
X0338324Y0047488D01*
X0338378Y0047530D01*
X0338434Y0047570D01*
X0338492Y0047606D01*
X0338553Y0047638D01*
X0338615Y0047667D01*
X0338679Y0047693D01*
X0338744Y0047714D01*
X0338811Y0047732D01*
X0338878Y0047746D01*
X0338946Y0047756D01*
X0339014Y0047762D01*
X0339083Y0047764D01*
X0339152Y0047762D01*
X0339220Y0047756D01*
X0339288Y0047746D01*
X0339355Y0047732D01*
X0339422Y0047714D01*
X0339487Y0047693D01*
X0339551Y0047667D01*
X0339613Y0047638D01*
X0339673Y0047606D01*
X0339732Y0047570D01*
X0339788Y0047530D01*
X0339842Y0047488D01*
X0339893Y0047442D01*
X0339942Y0047393D01*
X0339988Y0047342D01*
X0340030Y0047288D01*
X0340070Y0047232D01*
X0340106Y0047173D01*
X0340138Y0047113D01*
X0340167Y0047051D01*
X0340193Y0046987D01*
X0340214Y0046922D01*
X0340232Y0046855D01*
X0340246Y0046788D01*
X0340256Y0046720D01*
X0340262Y0046652D01*
X0340264Y0046583D01*
X0340262Y0046514D01*
X0340256Y0046446D01*
X0340246Y0046378D01*
X0340232Y0046311D01*
X0340214Y0046244D01*
X0340193Y0046179D01*
X0340167Y0046115D01*
X0340138Y0046053D01*
X0340106Y0045992D01*
X0340070Y0045934D01*
X0340030Y0045878D01*
X0339988Y0045824D01*
X0339942Y0045773D01*
X0339893Y0045724D01*
X0339842Y0045678D01*
X0339788Y0045636D01*
X0339732Y0045596D01*
X0339674Y0045560D01*
X0339613Y0045528D01*
X0339551Y0045499D01*
X0339487Y0045473D01*
X0339422Y0045452D01*
X0339355Y0045434D01*
X0339288Y0045420D01*
X0339220Y0045410D01*
X0339152Y0045404D01*
X0339083Y0045402D01*
X0339014Y0045404D01*
X0338946Y0045410D01*
X0338878Y0045420D01*
X0338811Y0045434D01*
X0338744Y0045452D01*
X0338679Y0045473D01*
X0338615Y0045499D01*
X0338553Y0045528D01*
X0338492Y0045560D01*
X0338434Y0045596D01*
X0338378Y0045636D01*
X0338324Y0045678D01*
X0338273Y0045724D01*
X0338224Y0045773D01*
X0338178Y0045824D01*
X0338136Y0045878D01*
X0338096Y0045934D01*
X0338060Y0045992D01*
X0338028Y0046053D01*
X0337999Y0046115D01*
X0337973Y0046179D01*
X0337952Y0046244D01*
X0337934Y0046311D01*
X0337920Y0046378D01*
X0337910Y0046446D01*
X0337904Y0046514D01*
X0337902Y0046583D01*
X0373336Y0046583D02*
X0373338Y0046652D01*
X0373344Y0046720D01*
X0373354Y0046788D01*
X0373368Y0046855D01*
X0373386Y0046922D01*
X0373407Y0046987D01*
X0373433Y0047051D01*
X0373462Y0047113D01*
X0373494Y0047173D01*
X0373530Y0047232D01*
X0373570Y0047288D01*
X0373612Y0047342D01*
X0373658Y0047393D01*
X0373707Y0047442D01*
X0373758Y0047488D01*
X0373812Y0047530D01*
X0373868Y0047570D01*
X0373926Y0047606D01*
X0373987Y0047638D01*
X0374049Y0047667D01*
X0374113Y0047693D01*
X0374178Y0047714D01*
X0374245Y0047732D01*
X0374312Y0047746D01*
X0374380Y0047756D01*
X0374448Y0047762D01*
X0374517Y0047764D01*
X0374586Y0047762D01*
X0374654Y0047756D01*
X0374722Y0047746D01*
X0374789Y0047732D01*
X0374856Y0047714D01*
X0374921Y0047693D01*
X0374985Y0047667D01*
X0375047Y0047638D01*
X0375107Y0047606D01*
X0375166Y0047570D01*
X0375222Y0047530D01*
X0375276Y0047488D01*
X0375327Y0047442D01*
X0375376Y0047393D01*
X0375422Y0047342D01*
X0375464Y0047288D01*
X0375504Y0047232D01*
X0375540Y0047173D01*
X0375572Y0047113D01*
X0375601Y0047051D01*
X0375627Y0046987D01*
X0375648Y0046922D01*
X0375666Y0046855D01*
X0375680Y0046788D01*
X0375690Y0046720D01*
X0375696Y0046652D01*
X0375698Y0046583D01*
X0375696Y0046514D01*
X0375690Y0046446D01*
X0375680Y0046378D01*
X0375666Y0046311D01*
X0375648Y0046244D01*
X0375627Y0046179D01*
X0375601Y0046115D01*
X0375572Y0046053D01*
X0375540Y0045992D01*
X0375504Y0045934D01*
X0375464Y0045878D01*
X0375422Y0045824D01*
X0375376Y0045773D01*
X0375327Y0045724D01*
X0375276Y0045678D01*
X0375222Y0045636D01*
X0375166Y0045596D01*
X0375108Y0045560D01*
X0375047Y0045528D01*
X0374985Y0045499D01*
X0374921Y0045473D01*
X0374856Y0045452D01*
X0374789Y0045434D01*
X0374722Y0045420D01*
X0374654Y0045410D01*
X0374586Y0045404D01*
X0374517Y0045402D01*
X0374448Y0045404D01*
X0374380Y0045410D01*
X0374312Y0045420D01*
X0374245Y0045434D01*
X0374178Y0045452D01*
X0374113Y0045473D01*
X0374049Y0045499D01*
X0373987Y0045528D01*
X0373926Y0045560D01*
X0373868Y0045596D01*
X0373812Y0045636D01*
X0373758Y0045678D01*
X0373707Y0045724D01*
X0373658Y0045773D01*
X0373612Y0045824D01*
X0373570Y0045878D01*
X0373530Y0045934D01*
X0373494Y0045992D01*
X0373462Y0046053D01*
X0373433Y0046115D01*
X0373407Y0046179D01*
X0373386Y0046244D01*
X0373368Y0046311D01*
X0373354Y0046378D01*
X0373344Y0046446D01*
X0373338Y0046514D01*
X0373336Y0046583D01*
M02*
