  0
SECTION
  2
HEADER
  9
$ACADVER
  1
AC1009
  9
$FILLMODE
 70
0
  9
$EXTMIN
 10
0.0000
 20
0.0000
 30
0.0000
  9
$EXTMAX
 10
157.4800
 20
96.5200
 30
0.0000
  0
ENDSEC
  0
SECTION
  2
TABLES
  0
TABLE
  2
LTYPE
 70
1
  0
LTYPE
  2
CONTINUOUS
 70
64
  3
Solid line
 72
65
 73
0
 40
0
  0
ENDTAB
  0
TABLE
  2
LAYER
 70
255
  0
LAYER
  2
20
 70
64
 62
178
  6
CONTINUOUS
  0
LAYER
  2
48
 70
64
 62
250
  6
CONTINUOUS
  0
LAYER
  2
49
 70
64
 62
250
  6
CONTINUOUS
  0
LAYER
  2
51
 70
64
 62
250
  6
CONTINUOUS
  0
LAYER
  2
52
 70
64
 62
250
  6
CONTINUOUS
  0
LAYER
  2
88
 70
64
 62
250
  6
CONTINUOUS
  0
LAYER
  2
89
 70
64
 62
250
  6
CONTINUOUS
  0
LAYER
  2
101
 70
64
 62
1
  6
CONTINUOUS
  0
LAYER
  2
102
 70
64
 62
250
  6
CONTINUOUS
  0
LAYER
  2
103
 70
64
 62
250
  6
CONTINUOUS
  0
LAYER
  2
104
 70
64
 62
32
  6
CONTINUOUS
  0
LAYER
  2
105
 70
64
 62
250
  6
CONTINUOUS
  0
LAYER
  2
106
 70
64
 62
250
  6
CONTINUOUS
  0
LAYER
  2
107
 70
64
 62
250
  6
CONTINUOUS
  0
LAYER
  2
108
 70
64
 62
3
  6
CONTINUOUS
  0
LAYER
  2
109
 70
64
 62
4
  6
CONTINUOUS
  0
LAYER
  2
110
 70
64
 62
250
  6
CONTINUOUS
  0
LAYER
  2
111
 70
64
 62
250
  6
CONTINUOUS
  0
LAYER
  2
112
 70
64
 62
250
  6
CONTINUOUS
  0
LAYER
  2
113
 70
64
 62
14
  6
CONTINUOUS
  0
LAYER
  2
114
 70
64
 62
250
  6
CONTINUOUS
  0
LAYER
  2
115
 70
64
 62
250
  6
CONTINUOUS
  0
LAYER
  2
116
 70
64
 62
5
  6
CONTINUOUS
  0
LAYER
  2
117
 70
64
 62
250
  6
CONTINUOUS
  0
LAYER
  2
118
 70
64
 62
250
  6
CONTINUOUS
  0
LAYER
  2
119
 70
64
 62
250
  6
CONTINUOUS
  0
LAYER
  2
120
 70
64
 62
250
  6
CONTINUOUS
  0
LAYER
  2
121
 70
64
 62
250
  6
CONTINUOUS
  0
LAYER
  2
122
 70
64
 62
250
  6
CONTINUOUS
  0
LAYER
  2
123
 70
64
 62
250
  6
CONTINUOUS
  0
LAYER
  2
124
 70
64
 62
250
  6
CONTINUOUS
  0
LAYER
  2
125
 70
64
 62
250
  6
CONTINUOUS
  0
LAYER
  2
126
 70
64
 62
250
  6
CONTINUOUS
  0
LAYER
  2
127
 70
64
 62
250
  6
CONTINUOUS
  0
LAYER
  2
128
 70
64
 62
250
  6
CONTINUOUS
  0
LAYER
  2
129
 70
64
 62
250
  6
CONTINUOUS
  0
LAYER
  2
130
 70
64
 62
250
  6
CONTINUOUS
  0
LAYER
  2
131
 70
64
 62
250
  6
CONTINUOUS
  0
LAYER
  2
132
 70
64
 62
250
  6
CONTINUOUS
  0
LAYER
  2
133
 70
64
 62
250
  6
CONTINUOUS
  0
LAYER
  2
134
 70
64
 62
250
  6
CONTINUOUS
  0
LAYER
  2
135
 70
64
 62
250
  6
CONTINUOUS
  0
LAYER
  2
136
 70
64
 62
250
  6
CONTINUOUS
  0
LAYER
  2
137
 70
64
 62
250
  6
CONTINUOUS
  0
LAYER
  2
138
 70
64
 62
250
  6
CONTINUOUS
  0
LAYER
  2
139
 70
64
 62
250
  6
CONTINUOUS
  0
LAYER
  2
140
 70
64
 62
250
  6
CONTINUOUS
  0
LAYER
  2
141
 70
64
 62
250
  6
CONTINUOUS
  0
LAYER
  2
142
 70
64
 62
250
  6
CONTINUOUS
  0
LAYER
  2
143
 70
64
 62
250
  6
CONTINUOUS
  0
LAYER
  2
144
 70
64
 62
250
  6
CONTINUOUS
  0
LAYER
  2
145
 70
64
 62
250
  6
CONTINUOUS
  0
LAYER
  2
146
 70
64
 62
250
  6
CONTINUOUS
  0
LAYER
  2
147
 70
64
 62
250
  6
CONTINUOUS
  0
LAYER
  2
148
 70
64
 62
250
  6
CONTINUOUS
  0
LAYER
  2
149
 70
64
 62
250
  6
CONTINUOUS
  0
LAYER
  2
150
 70
64
 62
250
  6
CONTINUOUS
  0
LAYER
  2
151
 70
64
 62
250
  6
CONTINUOUS
  0
LAYER
  2
152
 70
64
 62
250
  6
CONTINUOUS
  0
LAYER
  2
153
 70
64
 62
250
  6
CONTINUOUS
  0
LAYER
  2
154
 70
64
 62
250
  6
CONTINUOUS
  0
LAYER
  2
155
 70
64
 62
250
  6
CONTINUOUS
  0
LAYER
  2
156
 70
64
 62
250
  6
CONTINUOUS
  0
LAYER
  2
157
 70
64
 62
250
  6
CONTINUOUS
  0
LAYER
  2
191
 70
64
 62
250
  6
CONTINUOUS
  0
LAYER
  2
192
 70
64
 62
250
  6
CONTINUOUS
  0
LAYER
  2
193
 70
64
 62
250
  6
CONTINUOUS
  0
LAYER
  2
194
 70
64
 62
250
  6
CONTINUOUS
  0
LAYER
  2
195
 70
64
 62
250
  6
CONTINUOUS
  0
LAYER
  2
196
 70
64
 62
250
  6
CONTINUOUS
  0
LAYER
  2
199
 70
64
 62
250
  6
CONTINUOUS
  0
LAYER
  2
200
 70
64
 62
174
  6
CONTINUOUS
  0
LAYER
  2
201
 70
64
 62
94
  6
CONTINUOUS
  0
LAYER
  2
202
 70
64
 62
134
  6
CONTINUOUS
  0
LAYER
  2
203
 70
64
 62
14
  6
CONTINUOUS
  0
LAYER
  2
204
 70
64
 62
214
  6
CONTINUOUS
  0
LAYER
  2
205
 70
64
 62
54
  6
CONTINUOUS
  0
LAYER
  2
206
 70
64
 62
250
  6
CONTINUOUS
  0
LAYER
  2
207
 70
64
 62
253
  6
CONTINUOUS
  0
LAYER
  2
208
 70
64
 62
5
  6
CONTINUOUS
  0
LAYER
  2
209
 70
64
 62
250
  6
CONTINUOUS
  0
LAYER
  2
210
 70
64
 62
250
  6
CONTINUOUS
  0
LAYER
  2
211
 70
64
 62
250
  6
CONTINUOUS
  0
LAYER
  2
212
 70
64
 62
250
  6
CONTINUOUS
  0
LAYER
  2
213
 70
64
 62
250
  6
CONTINUOUS
  0
LAYER
  2
214
 70
64
 62
250
  6
CONTINUOUS
  0
LAYER
  2
215
 70
64
 62
250
  6
CONTINUOUS
  0
LAYER
  2
216
 70
64
 62
250
  6
CONTINUOUS
  0
LAYER
  2
225
 70
64
 62
250
  6
CONTINUOUS
  0
LAYER
  2
226
 70
64
 62
250
  6
CONTINUOUS
  0
LAYER
  2
227
 70
64
 62
250
  6
CONTINUOUS
  0
LAYER
  2
228
 70
64
 62
250
  6
CONTINUOUS
  0
LAYER
  2
229
 70
64
 62
250
  6
CONTINUOUS
  0
LAYER
  2
230
 70
64
 62
250
  6
CONTINUOUS
  0
LAYER
  2
231
 70
64
 62
250
  6
CONTINUOUS
  0
LAYER
  2
248
 70
64
 62
250
  6
CONTINUOUS
  0
LAYER
  2
249
 70
64
 62
250
  6
CONTINUOUS
  0
LAYER
  2
254
 70
64
 62
250
  6
CONTINUOUS
  0
ENDTAB
  0
ENDSEC
  0
SECTION
  2
BLOCKS
  0
BLOCK
  8
0
  2
RECT
 70
64
 10
0.0000
 20
0.0000
 30
0.0000
  3
RECT
  0
SOLID
  8
0
 10
-0.5000
 20
-0.5000
 30
0.0000
 11
0.5000
 21
-0.5000
 31
0.0000
 12
-0.5000
 22
0.5000
 32
0.0000
 13
0.5000
 23
0.5000
 33
0.0000
  0
ENDBLK
  8
0
  0
BLOCK
  8
0
  2
PIE
 70
64
 10
0.0000
 20
0.0000
 30
0.0000
  3
PIE
  0
CIRCLE
  8
0
 10
0.0000
 20
0.0000
 30
0.0000
 40
0.5000
  0
ENDBLK
  8
0
  0
BLOCK
  8
0
  2
OCTAGONP
 70
64
 10
0.0000
 20
0.0000
 30
0.0000
  3
OCTAGONP
  0
POLYLINE
  8
0
 66
1
 10
0.0000
 20
0.0000
 30
0.0000
 40
0.0000
 41
0.0000
 70
1
  0
VERTEX
  8
0
 10
-0.5000
 20
-0.2071
 30
0.0000
  0
VERTEX
  8
0
 10
-0.5000
 20
0.2071
 30
0.0000
  0
VERTEX
  8
0
 10
-0.2071
 20
0.5000
 30
0.0000
  0
VERTEX
  8
0
 10
0.2071
 20
0.5000
 30
0.0000
  0
VERTEX
  8
0
 10
0.5000
 20
0.2071
 30
0.0000
  0
VERTEX
  8
0
 10
0.5000
 20
-0.2071
 30
0.0000
  0
VERTEX
  8
0
 10
0.2071
 20
-0.5000
 30
0.0000
  0
VERTEX
  8
0
 10
-0.2071
 20
-0.5000
 30
0.0000
  0
SEQEND
  8
0
  0
ENDBLK
  8
0
  0
BLOCK
  8
0
  2
SQUAREP
 70
64
 10
0.0000
 20
0.0000
 30
0.0000
  3
SQUAREP
  0
SOLID
  8
0
 10
-0.5000
 20
-0.5000
 30
0.0000
 11
0.5000
 21
-0.5000
 31
0.0000
 12
-0.5000
 22
0.5000
 32
0.0000
 13
0.5000
 23
0.5000
 33
0.0000
  0
ENDBLK
  8
0
  0
BLOCK
  8
0
  2
ROUNDP
 70
64
 10
0.0000
 20
0.0000
 30
0.0000
  3
ROUNDP
  0
CIRCLE
  8
0
 10
0.0000
 20
0.0000
 30
0.0000
 40
0.5000
  0
ENDBLK
  8
0
  0
BLOCK
  8
0
  2
ANNULUSP
 70
64
 10
0.0000
 20
0.0000
 30
0.0000
  3
ANNULUSP
  0
CIRCLE
  8
0
 10
0.0000
 20
0.0000
 30
0.0000
 40
0.5000
  0
ENDBLK
  8
0
  0
BLOCK
  8
0
  2
THERMALP
 70
64
 10
0.0000
 20
0.0000
 30
0.0000
  3
THERMALP
  0
LINE
  8
0
 10
-0.2379
 20
0.4500
 30
0.0000
 11
0.2379
 21
0.4500
 31
0.0000
  0
LINE
  8
0
 10
0.4500
 20
0.2379
 30
0.0000
 11
0.4500
 21
-0.2379
 31
0.0000
  0
LINE
  8
0
 10
0.2379
 20
-0.4500
 30
0.0000
 11
-0.2379
 21
-0.4500
 31
0.0000
  0
LINE
  8
0
 10
-0.4500
 20
-0.2379
 30
0.0000
 11
-0.4500
 21
0.2379
 31
0.0000
  0
ENDBLK
  8
0
  0
BLOCK
  8
0
  2
OCTAGONV
 70
64
 10
0.0000
 20
0.0000
 30
0.0000
  3
OCTAGONV
  0
POLYLINE
  8
0
 66
1
 10
0.0000
 20
0.0000
 30
0.0000
 40
0.0000
 41
0.0000
 70
1
  0
VERTEX
  8
0
 10
-0.5000
 20
-0.2071
 30
0.0000
  0
VERTEX
  8
0
 10
-0.5000
 20
0.2071
 30
0.0000
  0
VERTEX
  8
0
 10
-0.2071
 20
0.5000
 30
0.0000
  0
VERTEX
  8
0
 10
0.2071
 20
0.5000
 30
0.0000
  0
VERTEX
  8
0
 10
0.5000
 20
0.2071
 30
0.0000
  0
VERTEX
  8
0
 10
0.5000
 20
-0.2071
 30
0.0000
  0
VERTEX
  8
0
 10
0.2071
 20
-0.5000
 30
0.0000
  0
VERTEX
  8
0
 10
-0.2071
 20
-0.5000
 30
0.0000
  0
SEQEND
  8
0
  0
ENDBLK
  8
0
  0
BLOCK
  8
0
  2
SQUAREV
 70
64
 10
0.0000
 20
0.0000
 30
0.0000
  3
SQUAREV
  0
SOLID
  8
0
 10
-0.5000
 20
-0.5000
 30
0.0000
 11
0.5000
 21
-0.5000
 31
0.0000
 12
-0.5000
 22
0.5000
 32
0.0000
 13
0.5000
 23
0.5000
 33
0.0000
  0
ENDBLK
  8
0
  0
BLOCK
  8
0
  2
ROUNDV
 70
64
 10
0.0000
 20
0.0000
 30
0.0000
  3
ROUNDV
  0
CIRCLE
  8
0
 10
0.0000
 20
0.0000
 30
0.0000
 40
0.5000
  0
ENDBLK
  8
0
  0
BLOCK
  8
0
  2
ANNULUSV
 70
64
 10
0.0000
 20
0.0000
 30
0.0000
  3
ANNULUSV
  0
CIRCLE
  8
0
 10
0.0000
 20
0.0000
 30
0.0000
 40
0.5000
  0
ENDBLK
  8
0
  0
BLOCK
  8
0
  2
THERMALV
 70
64
 10
0.0000
 20
0.0000
 30
0.0000
  3
THERMALV
  0
LINE
  8
0
 10
-0.2379
 20
0.4500
 30
0.0000
 11
0.2379
 21
0.4500
 31
0.0000
  0
LINE
  8
0
 10
0.4500
 20
0.2379
 30
0.0000
 11
0.4500
 21
-0.2379
 31
0.0000
  0
LINE
  8
0
 10
0.2379
 20
-0.4500
 30
0.0000
 11
-0.2379
 21
-0.4500
 31
0.0000
  0
LINE
  8
0
 10
-0.4500
 20
-0.2379
 30
0.0000
 11
-0.4500
 21
0.2379
 31
0.0000
  0
ENDBLK
  8
0
  0
ENDSEC
  0
SECTION
  2
ENTITIES
  0
ARC
  8
20
 10
3.8100
 20
92.7100
 30
0.0000
 40
3.8100
 50
90.0000
 51
180.0000
  0
ARC
  8
20
 10
153.6700
 20
92.7100
 30
0.0000
 40
3.8100
 50
0.0000
 51
90.0000
  0
ARC
  8
20
 10
153.6700
 20
3.8100
 30
0.0000
 40
3.8100
 50
270.0000
 51
0.0000
  0
ARC
  8
20
 10
3.8100
 20
3.8100
 30
0.0000
 40
3.8100
 50
180.0000
 51
270.0000
  0
LINE
  8
20
 10
0.0000
 20
92.7100
 30
0.0000
 11
0.0000
 21
3.8100
 31
0.0000
  0
LINE
  8
20
 10
153.6700
 20
0.0000
 30
0.0000
 11
3.8100
 21
0.0000
 31
0.0000
  0
LINE
  8
20
 10
157.4800
 20
92.7100
 30
0.0000
 11
157.4800
 21
3.8100
 31
0.0000
  0
LINE
  8
20
 10
3.8100
 20
96.5200
 30
0.0000
 11
153.6700
 21
96.5200
 31
0.0000
  0
CIRCLE
  8
20
 10
3.8100
 20
92.7100
 30
0.0000
 40
1.6510
  0
CIRCLE
  8
20
 10
153.6700
 20
92.7100
 30
0.0000
 40
1.6510
  0
CIRCLE
  8
20
 10
3.8100
 20
3.8100
 30
0.0000
 40
1.6510
  0
CIRCLE
  8
20
 10
153.6700
 20
3.8100
 30
0.0000
 40
1.6510
  0
ENDSEC
  0
EOF
